<?xml version="1.0" encoding="utf-8" standalone="yes"?>
<!DOCTYPE svg PUBLIC "-//W3C//DTD SVG 1.1//EN" "http://www.w3.org/Graphics/SVG/1.1/DTD/svg11.dtd">
<svg width="902" height="422" viewBox="0 0 902 422" style="fill:none;stroke:none;fill-rule:evenodd;clip-rule:evenodd;stroke-linecap:round;stroke-linejoin:round;stroke-miterlimit:1.5;" version="1.1" xmlns="http://www.w3.org/2000/svg" xmlns:xlink="http://www.w3.org/1999/xlink"><style id="fontImports">@import url("https://fonts.googleapis.com/css2?family=Roboto:wght@400;700&amp;display=block");</style><g id="items" style="isolation: isolate"><g id="blend" style="mix-blend-mode: normal"><g id="g-root-ro_mdljbj1nov21b-fill" data-item-order="-27000" transform="translate(327, 51)"><g id="ro_mdljbj1nov21b-fill" stroke="none" fill="#666666"><g><path d="M 34 10L 166 10C 166 10 190 10 190 34L 190 136C 190 136 190 160 166 160L 34 160C 34 160 10 160 10 136L 10 34C 10 34 10 10 34 10"></path></g></g></g><g id="g-root-ro_m98kcv1nowj5w-fill" data-item-order="-19440" transform="translate(237, 237)"><g id="ro_m98kcv1nowj5w-fill" stroke="none" fill="#e0cb15"><g><path d="M 22 10L 358 10C 358 10 370 10 370 22L 370 52C 370 52 370 64 358 64L 22 64C 22 64 10 64 10 52L 10 22C 10 22 10 10 22 10"></path></g></g></g><g id="g-root-ro_1cuwjrj1np3hmq-fill" data-item-order="-14904" transform="translate(555, 39)"><g id="ro_1cuwjrj1np3hmq-fill" stroke="none" fill="#ba5de5"><g><path d="M 22 10L 274 10C 274 10 286 10 286 22L 286 52C 286 52 286 64 274 64L 22 64C 22 64 10 64 10 52L 10 22C 10 22 10 10 22 10"></path></g></g></g><g id="g-root-ro_1qa3ztb1npaio6-fill" data-item-order="-13608" transform="translate(27, 39)"><g id="ro_1qa3ztb1npaio6-fill" stroke="none" fill="#4e88e7"><g><path d="M 22 10L 250 10C 250 10 262 10 262 22L 262 52C 262 52 262 64 250 64L 22 64C 22 64 10 64 10 52L 10 22C 10 22 10 10 22 10"></path></g></g></g><g id="g-root-cu_dhcemn1npaio8-fill" data-item-order="0" transform="translate(579, 93)"></g><g id="g-root-cu_1cynhfz1npak93-fill" data-item-order="0" transform="translate(279, 66)"></g><g id="g-root-cu_5vw9b1npak99-fill" data-item-order="0" transform="translate(261, 291)"></g><g id="g-root-tx_betterde_2ritr1nowidq-fill" data-item-order="0" transform="translate(15, 141)"><g id="tx_betterde_2ritr1nowidq-fill" stroke="none" fill="#484848"><g><text style="font: 20px Roboto, sans-serif; white-space: pre;" font-size="20px" font-family="Roboto, sans-serif"><tspan x="15.2" y="34" dominant-baseline="ideographic">Better Decision Making</tspan></text></g></g></g><g id="g-root-cu_18itzbj1npal1e-fill" data-item-order="0" transform="translate(507, 66)"></g><g id="g-root-cu_zntg5r1npaiod-fill" data-item-order="0" transform="translate(417, 201)"></g><g id="g-root-tx_45increa_141rj0v1nowiyx-fill" data-item-order="0" transform="translate(285, 303)"><g id="tx_45increa_141rj0v1nowiyx-fill" stroke="none" fill="#484848"><g><text style="font: 20px Roboto, sans-serif; white-space: pre;" font-size="20px" font-family="Roboto, sans-serif"><tspan x="16.84" y="34" dominant-baseline="ideographic">45% Increase in Satisfaction</tspan></text></g></g></g><g id="g-root-tx_73ofpmsu_de81731nowgst-fill" data-item-order="0" transform="translate(39, 105)"><g id="tx_73ofpmsu_de81731nowgst-fill" stroke="none" fill="#484848"><g><text style="font: 20px Roboto, sans-serif; white-space: pre;" font-size="20px" font-family="Roboto, sans-serif"><tspan x="14.7" y="34" dominant-baseline="ideographic">73% of PMs using AI</tspan></text></g></g></g><g id="g-root-cu_143mya71npaio0-fill" data-item-order="0" transform="translate(237, 93)"></g><g id="g-root-cu_v7zy1b1npajgr-fill" data-item-order="0" transform="translate(237, 93)"></g><g id="g-root-tx_2xfaster_1lt1jin1nowglr-fill" data-item-order="0" transform="translate(603, 105)"><g id="tx_2xfaster_1lt1jin1nowglr-fill" stroke="none" fill="#484848"><g><text style="font: 20px Roboto, sans-serif; white-space: pre;" font-size="20px" font-family="Roboto, sans-serif"><tspan x="12.83" y="34" dominant-baseline="ideographic">2x Faster Time-to-Market</tspan></text></g></g></g><g id="g-root-cu_91iwi71npajgi-fill" data-item-order="0" transform="translate(261, 291)"></g><g id="g-root-tx_enhanced_qqxhqn1nowhe2-fill" data-item-order="0" transform="translate(285, 339)"><g id="tx_enhanced_qqxhqn1nowhe2-fill" stroke="none" fill="#484848"><g><text style="font: 20px Roboto, sans-serif; white-space: pre;" font-size="20px" font-family="Roboto, sans-serif"><tspan x="12.18" y="34" dominant-baseline="ideographic">Enhanced User Experience</tspan></text></g></g></g><g id="g-root-tx_efficien_1hd81e71nowhe0-fill" data-item-order="0" transform="translate(603, 141)"><g id="tx_efficien_1hd81e71nowhe0-fill" stroke="none" fill="#484848"><g><text style="font: 20px Roboto, sans-serif; white-space: pre;" font-size="20px" font-family="Roboto, sans-serif"><tspan x="14.77" y="34" dominant-baseline="ideographic">Efficient Resource Allocation</tspan></text></g></g></g><g id="g-root-cu_hwjfnz1npal1p-fill" data-item-order="0" transform="translate(579, 93)"></g><g id="g-root-5_1ha3ksv1np3k09-fill" data-item-order="1000000000" transform="translate(567, 51)"></g><g id="g-root-adve_v8m2hb1nov4ee-fill" data-item-order="1000000000" transform="translate(393, 75)"></g><g id="g-root-tx_accelera_4g31fz1np3hts-fill" data-item-order="1000000000" transform="translate(603, 54)"><g id="tx_accelera_4g31fz1np3hts-fill" stroke="none" fill="#ffffff"><g><text style="font: 20px Roboto, sans-serif; white-space: pre;" font-size="20px" font-family="Roboto, sans-serif"><tspan x="16.08" y="34" dominant-baseline="ideographic">Accelerated Processes</tspan></text></g></g></g><g id="g-root-tx_aiinprod_1czw2z31nov219-fill" data-item-order="1000000000" transform="translate(351, 129)"><g id="tx_aiinprod_1czw2z31nov219-fill" stroke="none" fill="#ffffff"><g><text style="font: 20px Roboto, sans-serif; white-space: pre;" font-size="20px" font-family="Roboto, sans-serif"><tspan x="18.35" y="34" dominant-baseline="ideographic">AI in Product </tspan><tspan x="16.55" y="58" dominant-baseline="ideographic">Management</tspan></text></g></g></g><g id="g-root-incr_1upb0un1npal1p-fill" data-item-order="1000000000" transform="translate(237, 51)"></g><g id="g-root-2_qp22hb1nowidn-fill" data-item-order="1000000000" transform="translate(249, 249)"></g><g id="g-root-tx_increase_1cvj40f1nowj5u-fill" data-item-order="1000000000" transform="translate(285, 252)"><g id="tx_increase_1cvj40f1nowj5u-fill" stroke="none" fill="#ffffff"><g><text style="font: 20px Roboto, sans-serif; white-space: pre;" font-size="20px" font-family="Roboto, sans-serif"><tspan x="14.67" y="34" dominant-baseline="ideographic">Increased Customer Satisfaction</tspan></text></g></g></g><g id="g-root-tx_improved_8znh8v1npajnw-fill" data-item-order="1000000000" transform="translate(39, 54)"><g id="tx_improved_8znh8v1npajnw-fill" stroke="none" fill="#ffffff"><g><text style="font: 20px Roboto, sans-serif; white-space: pre;" font-size="20px" font-family="Roboto, sans-serif"><tspan x="15.98" y="34" dominant-baseline="ideographic">Improved Outcomes</tspan></text></g></g></g><g id="g-root-ro_mdljbj1nov21b-stroke" data-item-order="-27000" transform="translate(327, 51)"><g id="ro_mdljbj1nov21b-stroke" fill="none" stroke-linecap="round" stroke-linejoin="round" stroke-miterlimit="4" stroke="#ffffff" stroke-width="2"><g><path d="M 34 10L 166 10C 166 10 190 10 190 34L 190 136C 190 136 190 160 166 160L 34 160C 34 160 10 160 10 136L 10 34C 10 34 10 10 34 10"></path></g></g></g><g id="g-root-ro_m98kcv1nowj5w-stroke" data-item-order="-19440" transform="translate(237, 237)"><g id="ro_m98kcv1nowj5w-stroke" fill="none" stroke-linecap="round" stroke-linejoin="round" stroke-miterlimit="4" stroke="#ffffff" stroke-width="2"><g><path d="M 22 10L 358 10C 358 10 370 10 370 22L 370 52C 370 52 370 64 358 64L 22 64C 22 64 10 64 10 52L 10 22C 10 22 10 10 22 10"></path></g></g></g><g id="g-root-ro_1cuwjrj1np3hmq-stroke" data-item-order="-14904" transform="translate(555, 39)"><g id="ro_1cuwjrj1np3hmq-stroke" fill="none" stroke-linecap="round" stroke-linejoin="round" stroke-miterlimit="4" stroke="#ffffff" stroke-width="2"><g><path d="M 22 10L 274 10C 274 10 286 10 286 22L 286 52C 286 52 286 64 274 64L 22 64C 22 64 10 64 10 52L 10 22C 10 22 10 10 22 10"></path></g></g></g><g id="g-root-ro_1qa3ztb1npaio6-stroke" data-item-order="-13608" transform="translate(27, 39)"><g id="ro_1qa3ztb1npaio6-stroke" fill="none" stroke-linecap="round" stroke-linejoin="round" stroke-miterlimit="4" stroke="#ffffff" stroke-width="2"><g><path d="M 22 10L 250 10C 250 10 262 10 262 22L 262 52C 262 52 262 64 250 64L 22 64C 22 64 10 64 10 52L 10 22C 10 22 10 10 22 10"></path></g></g></g><g id="g-root-cu_dhcemn1npaio8-stroke" data-item-order="0" transform="translate(579, 93)"><g id="cu_dhcemn1npaio8-stroke" fill="none" stroke-linecap="round" stroke-linejoin="round" stroke-miterlimit="4" stroke="#484848" stroke-width="2" stroke-dasharray="5.0, 7.0"><g><path d="M 10 10L 10 17.5L 10 58C 10.000002 64.627417 15.372585 70 22.000002 69.999999L 22.1 70L 28 70"></path></g></g></g><g id="g-root-cu_1cynhfz1npak93-stroke" data-item-order="0" transform="translate(279, 66)"><g id="cu_1cynhfz1npak93-stroke" fill="none" stroke-linecap="round" stroke-linejoin="round" stroke-miterlimit="4" stroke="#484848" stroke-width="2" stroke-dasharray="5.0, 7.0"><g><path d="M 58 45L 55 45L 54.9 45C 50.422131 44.972593 45.63978 43.214375 41.299999 40C 38.67988 38.118536 36.018569 33.561496 33.999999 27.499999C 31.98143 21.438501 29.320119 16.881461 26.699999 15C 22.360218 11.785625 17.577867 10.027408 13.1 10L 13 10L 10 10"></path></g></g></g><g id="g-root-cu_5vw9b1npak99-stroke" data-item-order="0" transform="translate(261, 291)"><g id="cu_5vw9b1npak99-stroke" fill="none" stroke-linecap="round" stroke-linejoin="round" stroke-miterlimit="4" stroke="#484848" stroke-width="2" stroke-dasharray="5.0, 7.0"><g><path d="M 10 10L 10 17.5L 10 58C 10.000002 64.627417 15.372585 70 22.000002 69.999999L 22.1 70L 28 70"></path></g></g></g><g id="g-root-tx_betterde_2ritr1nowidq-stroke" data-item-order="0" transform="translate(15, 141)"></g><g id="g-root-cu_18itzbj1npal1e-stroke" data-item-order="0" transform="translate(507, 66)"><g id="cu_18itzbj1npal1e-stroke" fill="none" stroke-linecap="round" stroke-linejoin="round" stroke-miterlimit="4" stroke="#484848" stroke-width="2" stroke-dasharray="5.0, 7.0"><g><path d="M 10 45L 13 45L 13.1 45C 17.577866 44.972592 22.360217 43.214375 26.699999 40C 29.320119 38.118536 31.98143 33.561497 33.999999 27.499999C 36.018569 21.438502 38.67988 16.881462 41.299999 15C 45.63978 11.785625 50.422131 10.027407 54.899998 9.999999L 55 10L 58 10"></path></g></g></g><g id="g-root-cu_zntg5r1npaiod-stroke" data-item-order="0" transform="translate(417, 201)"><g id="cu_zntg5r1npaiod-stroke" fill="none" stroke-linecap="round" stroke-linejoin="round" stroke-miterlimit="4" stroke="#484848" stroke-width="2" stroke-dasharray="5.0, 7.0"><g><path d="M 10 10L 10 28L 10 46"></path></g></g></g><g id="g-root-tx_45increa_141rj0v1nowiyx-stroke" data-item-order="0" transform="translate(285, 303)"></g><g id="g-root-tx_73ofpmsu_de81731nowgst-stroke" data-item-order="0" transform="translate(39, 105)"></g><g id="g-root-cu_143mya71npaio0-stroke" data-item-order="0" transform="translate(237, 93)"><g id="cu_143mya71npaio0-stroke" fill="none" stroke-linecap="round" stroke-linejoin="round" stroke-miterlimit="4" stroke="#484848" stroke-width="2" stroke-dasharray="5.0, 7.0"><g><path d="M 28 10L 28 22L 28 34L 19 34L 10 34"></path></g></g></g><g id="g-root-cu_v7zy1b1npajgr-stroke" data-item-order="0" transform="translate(237, 93)"><g id="cu_v7zy1b1npajgr-stroke" fill="none" stroke-linecap="round" stroke-linejoin="round" stroke-miterlimit="4" stroke="#484848" stroke-width="2" stroke-dasharray="5.0, 7.0"><g><path d="M 28 10L 28 17.5L 28 58C 27.999999 64.627415 22.627416 69.999998 16 69.999998L 15.9 70L 10 70"></path></g></g></g><g id="g-root-tx_2xfaster_1lt1jin1nowglr-stroke" data-item-order="0" transform="translate(603, 105)"></g><g id="g-root-cu_91iwi71npajgi-stroke" data-item-order="0" transform="translate(261, 291)"><g id="cu_91iwi71npajgi-stroke" fill="none" stroke-linecap="round" stroke-linejoin="round" stroke-miterlimit="4" stroke="#484848" stroke-width="2" stroke-dasharray="5.0, 7.0"><g><path d="M 10 10L 10 22L 10 34L 19 34L 28 34"></path></g></g></g><g id="g-root-tx_enhanced_qqxhqn1nowhe2-stroke" data-item-order="0" transform="translate(285, 339)"></g><g id="g-root-tx_efficien_1hd81e71nowhe0-stroke" data-item-order="0" transform="translate(603, 141)"></g><g id="g-root-cu_hwjfnz1npal1p-stroke" data-item-order="0" transform="translate(579, 93)"><g id="cu_hwjfnz1npal1p-stroke" fill="none" stroke-linecap="round" stroke-linejoin="round" stroke-miterlimit="4" stroke="#484848" stroke-width="2" stroke-dasharray="5.0, 7.0"><g><path d="M 10 10L 10 22L 10 34L 19 34L 28 34"></path></g></g></g><g id="g-root-5_1ha3ksv1np3k09-stroke" data-item-order="1000000000" transform="translate(567, 51)"><g id="5_1ha3ksv1np3k09-stroke" fill="none" stroke-linecap="round" stroke-linejoin="round" stroke-miterlimit="4" stroke="#ffffff" stroke-width="2"><g><path d="M 26.5625 15.9375L 11.5625 15.9375C 11.1875 15.9375 10.9375 15.6875 10.9375 15.3125L 10.9375 12.1875C 10.9375 11.8125 11.1875 11.5625 11.5625 11.5625L 26.5625 11.5625C 26.9375 11.5625 27.1875 11.8125 27.1875 12.1875L 27.1875 15.3125C 27.1875 15.6875 26.9375 15.9375 26.5625 15.9375ZM 38.4375 30.9375L 17.8125 30.9375C 17.4375 30.9375 17.1875 30.6875 17.1875 30.3125L 17.1875 27.1875C 17.1875 26.8125 17.4375 26.5625 17.8125 26.5625L 38.4375 26.5625C 38.8125 26.5625 39.0625 26.8125 39.0625 27.1875L 39.0625 30.3125C 39.0625 30.6875 38.8125 30.9375 38.4375 30.9375ZM 38.4375 38.4375L 29.6875 38.4375C 29.3125 38.4375 29.0625 38.1875 29.0625 37.8125L 29.0625 34.6875C 29.0625 34.3125 29.3125 34.0625 29.6875 34.0625L 38.4375 34.0625C 38.8125 34.0625 39.0625 34.3125 39.0625 34.6875L 39.0625 37.8125C 39.0625 38.1875 38.8125 38.4375 38.4375 38.4375ZM 26.516251 24.2075L 23.94875 21.641251C 23.841595 21.539316 23.780937 21.397894 23.780937 21.25C 23.780937 21.102106 23.841595 20.960684 23.94875 20.858749L 26.514999 18.2925C 26.616934 18.185345 26.758356 18.124687 26.90625 18.124687C 27.054144 18.124687 27.195566 18.185345 27.297501 18.2925L 29.86375 20.858749C 29.970905 20.960684 30.031565 21.102106 30.031565 21.25C 30.031565 21.397894 29.970905 21.539316 29.86375 21.641251L 27.297501 24.2075C 27.184999 24.43125 26.73875 24.43125 26.516251 24.2075Z"></path></g></g></g><g id="g-root-adve_v8m2hb1nov4ee-stroke" data-item-order="1000000000" transform="translate(393, 75)"><g id="adve_v8m2hb1nov4ee-stroke" fill="none" stroke-linecap="round" stroke-linejoin="round" stroke-miterlimit="4" stroke="#ffffff" stroke-width="2"><g><path d="M 39 54.442001C 38.998894 55.847336 37.859337 56.986 36.454002 56.986L 13.546 56.986C 12.140663 56.986 11.001104 55.847336 11 54.442001L 11 45.532001C 11.000001 37.800014 17.268013 31.532001 25 31.532001C 32.731987 31.532001 39 37.800014 39 45.532001ZM 18.4 42.757999C 18.399887 43.181126 18.74287 43.5242 19.166 43.5242C 19.589128 43.5242 19.93211 43.181126 19.931999 42.757999C 19.93211 42.334869 19.589128 41.991798 19.166 41.991798C 18.74287 41.991798 18.399887 42.334869 18.4 42.757999M 30.025999 42.757999C 30.025887 43.181126 30.36887 43.5242 30.791998 43.5242C 31.215128 43.5242 31.558109 43.181126 31.557999 42.757999C 31.558109 42.334869 31.215128 41.991798 30.791998 41.991798C 30.36887 41.991798 30.025887 42.334869 30.025999 42.757999M 24.98 31.506001L 24.98 26.604M 21.304001 22.928001C 21.304001 24.958199 22.949802 26.604 24.98 26.604C 27.010199 26.604 28.656 24.958199 28.656 22.928001C 28.656 20.8978 27.010199 19.252001 24.98 19.252001C 22.949802 19.252001 21.304001 20.8978 21.304001 22.928001M 41.295998 29.49L 39.035999 30.558001C 36.961861 31.507433 34.509815 30.613144 33.533913 28.551323C 32.55801 26.489504 33.420841 24.026215 35.470001 23.024002L 37.73 21.954ZM 41.295998 29.49C 45.716484 27.397758 50.657368 26.660801 55.495998 27.372L 56.993999 27.591999L 49.153999 11.014L 48.374001 12.312C 45.855305 16.50601 42.151806 19.860872 37.73 21.953999ZM 41.295998 29.49C 42.240303 31.482212 43.959999 33.000229 46.054001 33.690002M 11 50.014L 39 50.014"></path></g></g></g><g id="g-root-tx_accelera_4g31fz1np3hts-stroke" data-item-order="1000000000" transform="translate(603, 54)"></g><g id="g-root-tx_aiinprod_1czw2z31nov219-stroke" data-item-order="1000000000" transform="translate(351, 129)"></g><g id="g-root-incr_1upb0un1npal1p-stroke" data-item-order="1000000000" transform="translate(237, 51)"><g id="incr_1upb0un1npal1p-stroke" fill="none" stroke-linecap="round" stroke-linejoin="round" stroke-miterlimit="4" stroke="#ffffff" stroke-width="2"><g><path d="M 10.63 39.0625L 39.380001 39.0625M 15.625 39.0625L 15.625 35.9375C 15.625 35.592323 15.345179 35.3125 15 35.3125L 12.5 35.3125C 12.154822 35.3125 11.875 35.592323 11.875 35.9375L 11.875 39.0625M 23.125 39.0625L 23.125 30.9375C 23.125 30.592323 22.845177 30.3125 22.5 30.3125L 20 30.3125C 19.654821 30.3125 19.375 30.592323 19.375 30.9375L 19.375 39.0625M 30.625 39.0625L 30.625 25.9375C 30.625 25.592323 30.345177 25.3125 30 25.3125L 27.5 25.3125C 27.154823 25.3125 26.875 25.592323 26.875 25.9375L 26.875 39.0625M 38.125 39.0625L 38.125 20.9375C 38.125 20.592323 37.845177 20.3125 37.5 20.3125L 35 20.3125C 34.654823 20.3125 34.375 20.592323 34.375 20.9375L 34.375 39.0625M 13.755 26.5625L 36.255001 11.5625M 35.630001 16.5625L 36.255001 11.5625L 31.254999 10.9375"></path></g></g></g><g id="g-root-2_qp22hb1nowidn-stroke" data-item-order="1000000000" transform="translate(249, 249)"><g id="2_qp22hb1nowidn-stroke" fill="none" stroke-linecap="round" stroke-linejoin="round" stroke-miterlimit="4" stroke="#ffffff" stroke-width="2"><g><path d="M 10.625 20.465L 13.125 20.465C 13.815356 20.465 14.375 21.024645 14.375 21.715L 14.375 36.715C 14.375 37.405354 13.815356 37.965 13.125 37.965L 10.625 37.965M 14.375 34.215C 23.54875 38.872498 23.10125 38.258751 30.956249 38.258751C 34.24625 38.258751 35.903748 36.115002 36.87125 32.973751L 36.87125 32.953751L 39.254997 24.953751L 39.254997 24.938751C 39.483421 24.183556 39.341942 23.364849 38.873333 22.730106C 38.40472 22.095366 37.663971 21.719082 36.875 21.715L 30.75 21.715C 29.974485 21.715046 29.242861 21.355186 28.769526 20.740877C 28.296188 20.12657 28.134745 19.327377 28.3325 18.577499L 29.435001 14.3975C 29.698784 13.394311 29.20558 12.346316 28.264431 11.910189C 27.32328 11.474062 26.204874 11.775237 25.610001 12.625L 19.5 21.28125C 19.031639 21.945076 18.26992 22.33992 17.4575 22.34L 14.375 22.34"></path></g></g></g><g id="g-root-tx_increase_1cvj40f1nowj5u-stroke" data-item-order="1000000000" transform="translate(285, 252)"></g><g id="g-root-tx_improved_8znh8v1npajnw-stroke" data-item-order="1000000000" transform="translate(39, 54)"></g></g></g></svg>