<?xml version="1.0" encoding="utf-8" standalone="yes"?>
<!DOCTYPE svg PUBLIC "-//W3C//DTD SVG 1.1//EN" "http://www.w3.org/Graphics/SVG/1.1/DTD/svg11.dtd">
<svg width="795" height="579" viewBox="0 0 795 579" style="fill:none;stroke:none;fill-rule:evenodd;clip-rule:evenodd;stroke-linecap:round;stroke-linejoin:round;stroke-miterlimit:1.5;" version="1.1" xmlns="http://www.w3.org/2000/svg" xmlns:xlink="http://www.w3.org/1999/xlink"><style id="fontImports">@import url("https://fonts.googleapis.com/css2?family=Roboto:wght@400;700&amp;display=block");</style><g id="items" style="isolation: isolate"><g id="blend" style="mix-blend-mode: normal"><g id="g-root-5.cu_sy_8znhf21nfcdfx-fill" data-item-order="-215638" transform="translate(471.5400390625, 447.0001220703125)"><g id="5.cu_sy_8znhf21nfcdfx-fill" stroke="none" fill="url(#gradient-fe8884-413551779)"><g><path d="M 82 46C 82 65.8823 65.8823 82 46 82C 26.1177 82 10 65.8823 10 46C 10 26.1177 26.1177 10 46 10C 65.8823 10 82 26.1177 82 46Z"></path></g></g></g><g id="g-root-5.cu_1_sy_1cynhm61nfce12-fill" data-item-order="-215636" transform="translate(15, 134.979248046875)"><g id="5.cu_1_sy_1cynhm61nfce12-fill" stroke="none" fill="url(#gradient-fe8884-413551779)"><g><path d="M 30.928 276.389015C 17.459 226.402015 22.1494 171.585015 44.2256 125.010015C 54.4385 103.463815 67.6803 84.847815 83.0761 69.244715C 82.7237 67.222915 82.54 65.143315 82.54 63.020815C 82.54 43.138515 98.6578 27.020815 118.54 27.020815C 124.661 27.020815 130.426 28.548615 135.473 31.243615C 186.366 5.801715 246.505 2.912715 298.691 24.196015L 285.978 58.096715C 244.252 40.724015 195.935 42.242515 154.523 61.909515C 154.534 62.278515 154.54 62.649015 154.54 63.020815C 154.54 82.903015 138.422 99.020815 118.54 99.020815C 114.266 99.020815 110.166 98.275915 106.3621 96.908815C 94.7319 109.221115 84.6676 123.739015 76.7562 140.430015C 59.2153 177.436015 54.9298 220.667015 64.058 260.455015L 82.8421 251.421015L 76.7611 332.021015L 10 286.454015L 30.928 276.389015Z"></path></g></g></g><g id="g-root-4.cu_sy_143myge1nfcbnz-fill" data-item-order="-215632" transform="translate(471.5400390625, 363.0001220703125)"><g id="4.cu_sy_143myge1nfcbnz-fill" stroke="none" fill="url(#gradient-fdac61-172712277)"><g><path d="M 82 46C 82 65.8823 65.8823 82 46 82C 26.1177 82 10 65.8823 10 46C 10 26.1177 26.1177 10 46 10C 65.8823 10 82 26.1177 82 46Z"></path></g></g></g><g id="g-root-4.cu_1_sy_zntgby1nfccg8-fill" data-item-order="-215630" transform="translate(290.9775390625, 149.17529296875)"><g id="4.cu_1_sy_zntgby1nfccg8-fill" stroke="none" fill="url(#gradient-fdac61-172712277)"><g><path d="M 10 43.9007C 37.0677 55.1703 61.3619 74.3896 79.1987 101.7614C 88.4313 115.929 94.7554 130.878 98.4177 145.984C 88.8511 152.455 82.5625 163.406 82.5625 175.825C 82.5625 188.644 89.263 199.898 99.3527 206.277C 90.6063 247.595 62.7013 283.34 21.4597 298.851L 33.6691 333.037C 89.7864 312.564 125.971 263.21 135.475 207.613C 146.832 201.558 154.562 189.594 154.562 175.825C 154.562 161.681 146.406 149.443 134.541 143.556C 130.282 122.377 122.003 101.5089 109.3599 82.1069C 86.9125 47.6598 56.4773 23.7704 22.7128 10L 10 43.9007Z"></path></g></g></g><g id="g-root-3.cu_sy_mccxym1nfce15-fill" data-item-order="-215626" transform="translate(471.5400390625, 279)"><g id="3.cu_sy_mccxym1nfce15-fill" stroke="none" fill="url(#gradient-ffed4b-499785973)"><g><path d="M 82 46C 82 65.8823 65.8823 82 46 82C 26.1177 82 10 65.8823 10 46C 10 26.1177 26.1177 10 46 10C 65.8823 10 82 26.1177 82 46Z"></path></g></g></g><g id="g-root-3.cu_1_sy_hx5wxa1nfcbnm-fill" data-item-order="-215624" transform="translate(107.7177734375, 270.602783203125)"><g id="3.cu_1_sy_hx5wxa1nfcbnm-fill" stroke="none" fill="url(#gradient-ffed4b-499785973)"><g><path d="M 65.559607 192.065C 90.966907 211.242 123.230007 222.57 158.340007 221.65C 179.698007 221.623 199.298007 218.041 216.929007 211.609L 204.720007 177.423C 190.652007 182.714 175.032007 185.65 158.091007 185.65L 157.841007 185.65L 157.590007 185.657C 132.073007 186.368 109.105507 178.897 90.753007 166.141C 91.451507 163.342 91.822307 160.413 91.822307 157.397C 91.822307 137.515 75.704507 121.397 55.822307 121.397C 55.251307 121.397 54.683407 121.411 54.118907 121.437C 43.713607 97.0247 43.047207 68.5421 55.944907 41.3555C 58.063007 36.8909 60.530907 32.6833 63.296907 28.7495L 32.494207 10C 29.121607 15.004 26.080107 20.3169 23.419607 25.925C 4.311607 66.2018 6.753207 107.3637 23.520807 141.485C 21.152807 146.283 19.822307 151.685 19.822307 157.397C 19.822307 177.279 35.940007 193.397 55.822307 193.397C 59.196607 193.397 62.462507 192.933 65.559607 192.065Z"></path></g></g></g><g id="g-root-2.cu_sy_91iwoe1nfccgb-fill" data-item-order="-215620" transform="translate(471.5400390625, 195)"><g id="2.cu_sy_91iwoe1nfccgb-fill" stroke="none" fill="url(#gradient-64edab-240055791)"><g><path d="M 82 46C 82 65.8823 65.8823 82 46 82C 26.1177 82 10 65.8823 10 46C 10 26.1177 26.1177 10 46 10C 65.8823 10 82 26.1177 82 46Z"></path></g></g></g><g id="g-root-2.cu_1_sy_4lpejy1nfcd8k-fill" data-item-order="-215618" transform="translate(130.21194458007812, 201)"><g id="2.cu_1_sy_4lpejy1nfcd8k-fill" stroke="none" fill="url(#gradient-64edab-240055791)"><g><path d="M 171.07 41.6631C 183.05 49.4425 193.86 60.0099 202.712 73.5974L 202.718 73.6074C 209.619 84.2141 214.09 96.0025 216.233 108.0936L 180.613 113.458C 179.229 106.3132 176.549 99.3995 172.546 93.2444C 167.835 86.0145 162.328 80.0555 156.248 75.3013C 150.352 79.5183 143.13 82 135.328 82C 120.907 82 108.4662 73.5204 102.7201 61.2752C 102.1114 61.3487 101.5027 61.4289 100.8939 61.5158C 77.639 64.8361 55.1885 77.8927 40.8027 98.3523L 10 79.6029C 30.2564 49.5478 62.4567 30.6387 95.8055 25.8772C 99.25 25.3855 102.7147 25.0444 106.1871 24.8579C 112.731 15.854 123.346 10 135.328 10C 153.743 10 168.928 23.8258 171.07 41.6631Z"></path></g></g></g><g id="g-root-1.cu_sy_1hgcezy1nfcc99-fill" data-item-order="-215614" transform="translate(471.5400390625, 111)"><g id="1.cu_sy_1hgcezy1nfcc99-fill" stroke="none" fill="url(#gradient-76aaff-163240667)"><g><path d="M 82 46C 82 65.8823 65.8823 82 46 82C 26.1177 82 10 65.8823 10 46C 10 26.1177 26.1177 10 46 10C 65.8823 10 82 26.1177 82 46Z"></path></g></g></g><g id="g-root-1.cu_1_sy_1d0iwvi1nfcd1i-fill" data-item-order="-215612" transform="translate(183.29299926757812, 299.0933837890625)"><defs><linearGradient id="gradient-fe8884-413551779" x2="0" y2="1"><stop offset="0" stop-color="#ffa6a3"></stop><stop offset="1" stop-color="#fd6a65"></stop></linearGradient><linearGradient id="gradient-fdac61-172712277" x2="0" y2="1"><stop offset="0" stop-color="#ffc188"></stop><stop offset="1" stop-color="#fa963a"></stop></linearGradient><linearGradient id="gradient-ffed4b-499785973" x2="0" y2="1"><stop offset="0" stop-color="#fff282"></stop><stop offset="1" stop-color="#ffe714"></stop></linearGradient><linearGradient id="gradient-64edab-240055791" x2="0" y2="1"><stop offset="0" stop-color="#83fac1"></stop><stop offset="1" stop-color="#44e095"></stop></linearGradient><linearGradient id="gradient-76aaff-163240667" x2="0" y2="1"><stop offset="0" stop-color="#9cc2ff"></stop><stop offset="1" stop-color="#4f92ff"></stop></linearGradient></defs><g id="1.cu_1_sy_1d0iwvi1nfcd1i-fill" stroke="none" fill="url(#gradient-76aaff-163240667)"><g><path d="M 147.72497 80.7629C 151.80697 75.1392 155.17097 69.0218 157.78397 62.59C 164.41297 46.2757 166.30897 27.8095 163.15197 10L 127.53097 15.3648C 129.72797 26.7086 128.65897 38.636 124.43197 49.0384C 123.95397 50.2158 123.43697 51.3715 122.87997 52.5028C 119.51897 51.4653 115.94897 50.9067 112.24697 50.9067C 95.48927 50.9067 81.40587 62.3566 77.39327 77.86C 65.26327 76.9974 55.60487 71.1896 49.43267 61.1709C 47.69587 58.3516 46.23507 55.199 45.07297 51.7292C 41.91577 42.3028 31.71477 37.2205 22.28827 40.3777C 12.86187 43.5349 7.77957 53.7359 10.93677 63.1624C 12.28417 67.1855 13.89517 71.0187 15.75077 74.6436C 28.56797 99.6822 53.05627 114.787 82.98267 113.938C 84.73117 113.889 86.45427 113.794 88.15167 113.654C 94.53207 119.406 102.98067 122.907 112.24697 122.907C 132.12897 122.907 148.24697 106.7889 148.24697 86.9067C 148.24697 84.8121 148.06797 82.7594 147.72497 80.7629Z"></path></g></g></g><g id="g-root-fore_18gb17y1np95os-fill" data-item-order="0" transform="translate(99.5400390625, 165)"></g><g id="g-root-scru_4j6d4e1noton6-fill" data-item-order="0" transform="translate(231.5400390625, 213)"></g><g id="g-root-48px_4kfkry1np0owe-fill" data-item-order="0" transform="translate(483.5400390625, 207)"></g><g id="g-root-tx_automate_1ut1vji1nfccuj-fill" data-item-order="0" transform="translate(555.5400390625, 207)"><g id="tx_automate_1ut1vji1nfccuj-fill" stroke="none" fill="#484848"><g><text style="font: 20px Roboto, sans-serif; white-space: pre;" font-size="20px" font-family="Roboto, sans-serif"><tspan x="12" y="34" dominant-baseline="ideographic">Automated user story </tspan><tspan x="12" y="58" dominant-baseline="ideographic">scoring</tspan></text></g></g></g><g id="g-root-tx_mldriven_1qd8df21nfcdms-fill" data-item-order="0" transform="translate(555.5400390625, 123)"><g id="tx_mldriven_1qd8df21nfcdms-fill" stroke="none" fill="#484848"><g><text style="font: 20px Roboto, sans-serif; white-space: pre;" font-size="20px" font-family="Roboto, sans-serif"><tspan x="12" y="34" dominant-baseline="ideographic">ML-driven impact </tspan><tspan x="12" y="58" dominant-baseline="ideographic">prediction</tspan></text></g></g></g><g id="g-root-48px_hte6su1np6bcw-fill" data-item-order="0" transform="translate(483.5400390625, 123)"></g><g id="g-root-arro_140hj3i1nowhkw-fill" data-item-order="0" transform="translate(375.5400390625, 291)"></g><g id="g-root-48px_1lwrilq1nov3t7-fill" data-item-order="0" transform="translate(483.5400390625, 291)"></g><g id="g-root-tx_riskasse_4nktta1nfcc8y-fill" data-item-order="0" transform="translate(555.5400390625, 291)"><g id="tx_riskasse_4nktta1nfcc8y-fill" stroke="none" fill="#484848"><g><text style="font: 20px Roboto, sans-serif; white-space: pre;" font-size="20px" font-family="Roboto, sans-serif"><tspan x="12" y="34" dominant-baseline="ideographic">Risk assessment </tspan><tspan x="12" y="58" dominant-baseline="ideographic">automation</tspan></text></g></g></g><g id="g-root-user_4otyb21nf2jnx-fill" data-item-order="0" transform="translate(261.5400390625, 351.0001220703125)"></g><g id="g-root-tx_roipredi_me8d7y1nfcd1k-fill" data-item-order="0" transform="translate(555.5400390625, 471.0001220703125)"><g id="tx_roipredi_me8d7y1nfcd1k-fill" stroke="none" fill="#484848"><g><text style="font: 20px Roboto, sans-serif; white-space: pre;" font-size="20px" font-family="Roboto, sans-serif"><tspan x="12" y="34" dominant-baseline="ideographic">ROI prediction models</tspan></text></g></g></g><g id="g-root-48px_3d1bi1np6arm-fill" data-item-order="0" transform="translate(483.5400390625, 375.0001220703125)"></g><g id="g-root-tx_resource_hyev3i1nfcdtt-fill" data-item-order="0" transform="translate(555.5400390625, 375.0001220703125)"><g id="tx_resource_hyev3i1nfcdtt-fill" stroke="none" fill="#484848"><g><text style="font: 20px Roboto, sans-serif; white-space: pre;" font-size="20px" font-family="Roboto, sans-serif"><tspan x="12" y="34" dominant-baseline="ideographic">Resource requirement </tspan><tspan x="12" y="58" dominant-baseline="ideographic">forecasting</tspan></text></g></g></g><g id="g-root-1_humvhq1np7rpp-fill" data-item-order="0" transform="translate(129.5400390625, 393.0001220703125)"></g><g id="g-root-48px_1qegctq1nov4lf-fill" data-item-order="0" transform="translate(483.5400390625, 459.0001220703125)"></g><g id="g-root-tx_automate_zpovla1nfcbgn-fill" data-item-order="0" transform="translate(207.5400390625, 39)"><g id="tx_automate_zpovla1nfcbgn-fill" stroke="none" fill="#484848"><g><text style="font: 20px Roboto, sans-serif; white-space: pre;" font-size="20px" font-family="Roboto, sans-serif"><tspan x="13" y="34" dominant-baseline="ideographic">Automated Feature Prioritization Process</tspan></text></g></g></g><g id="g-root-5.cu_sy_8znhf21nfcdfx-stroke" data-item-order="-215638" transform="translate(471.5400390625, 447.0001220703125)"><g id="5.cu_sy_8znhf21nfcdfx-stroke" fill="none" stroke-linecap="round" stroke-linejoin="round" stroke-miterlimit="4" stroke="#484848" stroke-width="2"><g><path d="M 82 46C 82 65.8823 65.8823 82 46 82C 26.1177 82 10 65.8823 10 46C 10 26.1177 26.1177 10 46 10C 65.8823 10 82 26.1177 82 46Z"></path></g></g></g><g id="g-root-5.cu_1_sy_1cynhm61nfce12-stroke" data-item-order="-215636" transform="translate(15, 134.979248046875)"><g id="5.cu_1_sy_1cynhm61nfce12-stroke" fill="none" stroke-linecap="round" stroke-linejoin="round" stroke-miterlimit="4" stroke="#484848" stroke-width="2"><g><path d="M 30.928 276.389015C 17.459 226.401915 22.1494 171.584715 44.2256 125.010315C 54.4385 103.463815 67.6803 84.847815 83.0761 69.244715C 82.7237 67.222915 82.54 65.143315 82.54 63.020815C 82.54 43.138515 98.6578 27.020815 118.54 27.020815C 124.6614 27.020815 130.4259 28.548615 135.473 31.243615C 186.3658 5.801815 246.5049 2.912715 298.6908 24.196015L 285.978 58.096715C 244.2518 40.724015 195.935 42.242515 154.5232 61.909515C 154.5344 62.278515 154.5401 62.649015 154.5401 63.020815C 154.5401 82.903015 138.4223 99.020815 118.54 99.020815C 114.2658 99.020815 110.1656 98.275915 106.3621 96.908815C 94.7319 109.221115 84.6676 123.738815 76.7562 140.429715C 59.2153 177.435915 54.9298 220.666815 64.058 260.455015L 82.8421 251.420715L 76.7611 332.020715L 10 286.454415L 30.928 276.389015Z"></path></g></g></g><g id="g-root-4.cu_sy_143myge1nfcbnz-stroke" data-item-order="-215632" transform="translate(471.5400390625, 363.0001220703125)"><g id="4.cu_sy_143myge1nfcbnz-stroke" fill="none" stroke-linecap="round" stroke-linejoin="round" stroke-miterlimit="4" stroke="#484848" stroke-width="2"><g><path d="M 82 46C 82 65.8823 65.8823 82 46 82C 26.1177 82 10 65.8823 10 46C 10 26.1177 26.1177 10 46 10C 65.8823 10 82 26.1177 82 46Z"></path></g></g></g><g id="g-root-4.cu_1_sy_zntgby1nfccg8-stroke" data-item-order="-215630" transform="translate(290.9775390625, 149.17529296875)"><g id="4.cu_1_sy_zntgby1nfccg8-stroke" fill="none" stroke-linecap="round" stroke-linejoin="round" stroke-miterlimit="4" stroke="#484848" stroke-width="2"><g><path d="M 10 43.9007C 37.0677 55.1703 61.3619 74.3896 79.1987 101.7614C 88.4313 115.9295 94.7554 130.8777 98.4177 145.9843C 88.8511 152.4552 82.5625 163.4056 82.5625 175.8247C 82.5625 188.644 89.263 199.8984 99.3527 206.2766C 90.6063 247.5948 62.7013 283.34 21.4597 298.8506L 33.6691 333.0367C 89.7864 312.5645 125.9714 263.2098 135.4751 207.6127C 146.8324 201.5575 154.5625 189.5939 154.5625 175.8247C 154.5625 161.6811 146.4062 149.4425 134.5406 143.5559C 130.2819 122.3771 122.0032 101.5089 109.3599 82.1069C 86.9125 47.6598 56.4773 23.7704 22.7128 10L 10 43.9007Z"></path></g></g></g><g id="g-root-3.cu_sy_mccxym1nfce15-stroke" data-item-order="-215626" transform="translate(471.5400390625, 279)"><g id="3.cu_sy_mccxym1nfce15-stroke" fill="none" stroke-linecap="round" stroke-linejoin="round" stroke-miterlimit="4" stroke="#484848" stroke-width="2"><g><path d="M 82 46C 82 65.8823 65.8823 82 46 82C 26.1177 82 10 65.8823 10 46C 10 26.1177 26.1177 10 46 10C 65.8823 10 82 26.1177 82 46Z"></path></g></g></g><g id="g-root-3.cu_1_sy_hx5wxa1nfcbnm-stroke" data-item-order="-215624" transform="translate(107.7177734375, 270.602783203125)"><g id="3.cu_1_sy_hx5wxa1nfcbnm-stroke" fill="none" stroke-linecap="round" stroke-linejoin="round" stroke-miterlimit="4" stroke="#484848" stroke-width="2"><g><path d="M 65.559607 192.0649C 90.966907 211.2422 123.230407 222.5704 158.340407 221.6501C 179.698207 221.6225 199.297607 218.0415 216.929407 211.6092L 204.720007 177.423C 190.652007 182.7139 175.032107 185.6503 158.091507 185.6503L 157.840707 185.6503L 157.590007 185.6573C 132.073007 186.3685 109.105507 178.8972 90.753007 166.1412C 91.451507 163.3419 91.822307 160.4128 91.822307 157.3972C 91.822307 137.515 75.704507 121.3972 55.822307 121.3972C 55.251307 121.3972 54.683407 121.4105 54.118907 121.4368C 43.713607 97.0247 43.047207 68.5421 55.944907 41.3555C 58.063007 36.8909 60.530907 32.6833 63.296907 28.7495L 32.494207 10C 29.121607 15.004 26.080107 20.3169 23.419607 25.925C 4.311607 66.2018 6.753207 107.3637 23.520807 141.4851C 21.152807 146.283 19.822307 151.6847 19.822307 157.3972C 19.822307 177.2795 35.940007 193.3972 55.822307 193.3972C 59.196607 193.3972 62.462507 192.933 65.559607 192.0649Z"></path></g></g></g><g id="g-root-2.cu_sy_91iwoe1nfccgb-stroke" data-item-order="-215620" transform="translate(471.5400390625, 195)"><g id="2.cu_sy_91iwoe1nfccgb-stroke" fill="none" stroke-linecap="round" stroke-linejoin="round" stroke-miterlimit="4" stroke="#484848" stroke-width="2"><g><path d="M 82 46C 82 65.8823 65.8823 82 46 82C 26.1177 82 10 65.8823 10 46C 10 26.1177 26.1177 10 46 10C 65.8823 10 82 26.1177 82 46Z"></path></g></g></g><g id="g-root-2.cu_1_sy_4lpejy1nfcd8k-stroke" data-item-order="-215618" transform="translate(130.21194458007812, 201)"><g id="2.cu_1_sy_4lpejy1nfcd8k-stroke" fill="none" stroke-linecap="round" stroke-linejoin="round" stroke-miterlimit="4" stroke="#484848" stroke-width="2"><g><path d="M 171.0696 41.6631C 183.0501 49.4425 193.8597 60.0099 202.7119 73.5974L 202.7184 73.6074C 209.6186 84.2141 214.0903 96.0025 216.2334 108.0936L 180.6126 113.4584C 179.2287 106.3132 176.5488 99.3995 172.5457 93.2444C 167.8349 86.0145 162.3284 80.0555 156.2479 75.3013C 150.3519 79.5183 143.1298 82 135.3281 82C 120.9069 82 108.4662 73.5204 102.7201 61.2752C 102.1114 61.3487 101.5027 61.4289 100.8939 61.5158C 77.639 64.8361 55.1885 77.8927 40.8027 98.3523L 10 79.6029C 30.2564 49.5478 62.4567 30.6387 95.8055 25.8772C 99.25 25.3855 102.7147 25.0444 106.1871 24.8579C 112.7309 15.854 123.3459 10 135.3281 10C 153.7426 10 168.9278 23.8258 171.0696 41.6631Z"></path></g></g></g><g id="g-root-1.cu_sy_1hgcezy1nfcc99-stroke" data-item-order="-215614" transform="translate(471.5400390625, 111)"><g id="1.cu_sy_1hgcezy1nfcc99-stroke" fill="none" stroke-linecap="round" stroke-linejoin="round" stroke-miterlimit="4" stroke="#484848" stroke-width="2"><g><path d="M 82 46C 82 65.8823 65.8823 82 46 82C 26.1177 82 10 65.8823 10 46C 10 26.1177 26.1177 10 46 10C 65.8823 10 82 26.1177 82 46Z"></path></g></g></g><g id="g-root-1.cu_1_sy_1d0iwvi1nfcd1i-stroke" data-item-order="-215612" transform="translate(183.29299926757812, 299.0933837890625)"><g id="1.cu_1_sy_1d0iwvi1nfcd1i-stroke" fill="none" stroke-linecap="round" stroke-linejoin="round" stroke-miterlimit="4" stroke="#484848" stroke-width="2"><g><path d="M 147.72487 80.7629C 151.80727 75.1392 155.17097 69.0218 157.78427 62.59C 164.41307 46.2757 166.30867 27.8095 163.15197 10L 127.53127 15.3648C 129.72837 26.7086 128.65897 38.636 124.43237 49.0384C 123.95387 50.2158 123.43667 51.3715 122.88017 52.5028C 119.51947 51.4653 115.94847 50.9067 112.24707 50.9067C 95.48927 50.9067 81.40587 62.3566 77.39327 77.86C 65.26327 76.9974 55.60487 71.1896 49.43267 61.1709C 47.69587 58.3516 46.23507 55.199 45.07297 51.7292C 41.91577 42.3028 31.71477 37.2205 22.28827 40.3777C 12.86187 43.5349 7.77957 53.7359 10.93677 63.1624C 12.28417 67.1855 13.89517 71.0187 15.75077 74.6436C 28.56797 99.6822 53.05627 114.7868 82.98267 113.9385C 84.73117 113.8889 86.45427 113.7937 88.15167 113.6543C 94.53207 119.4057 102.98067 122.9067 112.24707 122.9067C 132.12927 122.9067 148.24707 106.7889 148.24707 86.9067C 148.24707 84.8121 148.06817 82.7594 147.72487 80.7629Z"></path></g></g></g><g id="g-root-fore_18gb17y1np95os-stroke" data-item-order="0" transform="translate(99.5400390625, 165)"><g id="fore_18gb17y1np95os-stroke" fill="none" stroke-linecap="round" stroke-linejoin="round" stroke-miterlimit="4" stroke="#484848" stroke-width="2"><g><path d="M 11 12.034L 11 55.966L 57 55.966M 51.762001 33.478001C 47.86594 39.362556 41.314705 42.942833 34.258003 43.044003C 27.201662 42.941444 20.651031 39.3615 16.754 33.478001C 16.465897 33.005089 16.465897 32.410912 16.754 31.938002C 20.649847 26.052944 27.20101 22.471962 34.257999 22.369999C 41.315353 22.47057 47.867126 26.051886 51.762001 31.938C 52.051937 32.410393 52.051937 33.005608 51.762001 33.477997ZM 27.908001 32.708C 27.907698 36.215221 30.750778 39.058548 34.257999 39.058548C 37.765221 39.058548 40.608303 36.215221 40.608002 32.708C 40.608303 29.200777 37.765221 26.357452 34.257999 26.357452C 30.750778 26.357452 27.907698 29.200777 27.907999 32.708M 11.516 55.450001L 22.024 44.942001M 45.456001 12.034L 54.931999 12.034L 54.931999 21.51M 47.172001 19.793999L 54.931999 12.034"></path></g></g></g><g id="g-root-scru_4j6d4e1noton6-stroke" data-item-order="0" transform="translate(231.5400390625, 213)"><g id="scru_4j6d4e1noton6-stroke" fill="none" stroke-linecap="round" stroke-linejoin="round" stroke-miterlimit="4" stroke="#484848" stroke-width="2"><g><path d="M 11.512 53.933998L 56.487999 53.933998M 52.400002 50.866001L 56.487999 53.933998L 52.400002 57M 17.941999 42.158001C 17.941999 35.654034 23.214701 30.381632 29.718666 30.382C 36.222633 30.382368 41.494736 35.655365 41.493999 42.159332C 41.493263 48.6633 36.219963 53.935104 29.716 53.933998M 14.578 40.475998L 17.941999 43.84L 21.306 40.475998M 44.855999 21.091999C 44.855179 16.099609 41.204887 11.857751 36.268402 11.112699C 31.331921 10.367646 26.592316 13.343235 25.118114 18.113005C 23.643913 22.882774 25.878008 28.013739 30.374001 30.184M 47.737999 19.65L 44.855999 22.534L 41.972 19.65"></path></g></g></g><g id="g-root-48px_4kfkry1np0owe-stroke" data-item-order="0" transform="translate(483.5400390625, 207)"><g id="48px_4kfkry1np0owe-stroke" fill="none" stroke-linecap="round" stroke-linejoin="round" stroke-miterlimit="4" stroke="#484848" stroke-width="2"><g><path d="M 15.07227 30.1785C 15.07227 24.4817 17.78873 19.69524 23.0107 19.69524C 28.2328 19.69524 30.9492 24.4817 30.9492 30.1785L 30.9492 37.2727C 30.9492 42.9695 28.1054 47.8816 23.0107 47.8816C 17.91609 47.8816 15.07227 42.9695 15.07227 37.2727L 15.07227 30.1785ZM 36.8315 27.5154C 36.8315 22.8951 40.0559 19.69531 44.4376 19.69531C 51.7066 19.69531 54.1859 26.7886 49.4213 33.0984L 37.33 47.4175L 53.9507 47.4175"></path></g></g></g><g id="g-root-tx_automate_1ut1vji1nfccuj-stroke" data-item-order="0" transform="translate(555.5400390625, 207)"></g><g id="g-root-tx_mldriven_1qd8df21nfcdms-stroke" data-item-order="0" transform="translate(555.5400390625, 123)"></g><g id="g-root-48px_hte6su1np6bcw-stroke" data-item-order="0" transform="translate(483.5400390625, 123)"><g id="48px_hte6su1np6bcw-stroke" fill="none" stroke-linecap="round" stroke-linejoin="round" stroke-miterlimit="4" stroke="#484848" stroke-width="2"><g><path d="M 37.8418 23.3774L 46.2969 20.1836L 46.2969 47.951M 15.07227 30.1785C 15.07227 24.4817 17.78873 19.69524 23.0107 19.69524C 28.2328 19.69524 30.9492 24.4817 30.9492 30.1785L 30.9492 37.2727C 30.9492 42.9695 28.1054 47.8816 23.0107 47.8816C 17.91609 47.8816 15.07227 42.9695 15.07227 37.2727L 15.07227 30.1785Z"></path></g></g></g><g id="g-root-arro_140hj3i1nowhkw-stroke" data-item-order="0" transform="translate(375.5400390625, 291)"><g id="arro_140hj3i1nowhkw-stroke" fill="none" stroke-linecap="round" stroke-linejoin="round" stroke-miterlimit="4" stroke="#484848" stroke-width="2"><g><path d="M 44.066002 44C 44.065998 46.300819 45.931183 48.166 48.231998 48.166C 50.532818 48.166 52.397999 46.300819 52.397999 44C 52.397999 41.699181 50.532818 39.834 48.231998 39.834C 45.931183 39.834 44.065998 41.699181 44.065998 44M 45.453999 56.5L 56.563999 56.5C 55.899048 53.89912 54.057701 51.757942 51.585693 50.711067C 49.113686 49.664192 46.294624 49.831722 43.964001 51.164001M 15.602 44C 15.602 46.300819 17.467182 48.166 19.768 48.166C 22.068817 48.166 23.934 46.300819 23.934 44C 23.934 41.699181 22.068817 39.834 19.768 39.834C 17.467182 39.834 15.602 41.699181 15.602 44M 22.487999 56.5L 11.436 56.5C 12.098295 53.912041 13.925614 51.778793 16.381168 50.726917C 18.836721 49.675037 21.641655 49.823986 23.972 51.130005M 44.158001 56.5C 44.209476 52.827229 42.279564 49.411205 39.107155 47.559803C 35.934746 45.708397 32.011253 45.708397 28.838844 47.559803C 25.666435 49.411205 23.736523 52.827229 23.787998 56.499996ZM 28.684 34.461998C 31.572502 37.455845 36.012802 38.348686 39.834 36.704002M 27.85 37.517998C 27.85 40.841652 30.544352 43.536003 33.868004 43.536003C 37.19165 43.536003 39.886002 40.841652 39.886002 37.518002C 39.886002 34.194351 37.19165 31.500002 33.868004 31.500002C 30.544352 31.500002 27.85 34.194351 27.85 37.518002M 46.972 35.5C 46.972 35.5 40.972 29.5 40.972 24.5L 49.972 24.5L 33.972 11.5L 17.972 24.5L 26.972 24.5C 26.972 29.5 20.972 35.5 20.972 35.5"></path></g></g></g><g id="g-root-48px_1lwrilq1nov3t7-stroke" data-item-order="0" transform="translate(483.5400390625, 291)"><g id="48px_1lwrilq1nov3t7-stroke" fill="none" stroke-linecap="round" stroke-linejoin="round" stroke-miterlimit="4" stroke="#484848" stroke-width="2"><g><path d="M 15.07227 30.1785C 15.07227 24.4817 17.78873 19.69524 23.0107 19.69524C 28.2328 19.69524 30.9492 24.4817 30.9492 30.1785L 30.9492 37.2727C 30.9492 42.9695 28.1054 47.8816 23.0107 47.8816C 17.91609 47.8816 15.07227 42.9695 15.07227 37.2727L 15.07227 30.1785ZM 37.1212 27.0681C 37.0021 24.6592 38.4826 19.70994 45.0653 19.70994C 51.648 19.70994 52.6563 24.5974 52.4282 27.357C 52.1767 30.3999 50.2718 33.5079 42.2007 33.5079C 49.7136 33.5079 53.1255 35.562 53.1255 41.1245C 53.1255 45.9328 48.8755 47.8898 44.9922 47.8898C 42.2014 47.866 36.6196 46.2871 36.6196 40.1622"></path></g></g></g><g id="g-root-tx_riskasse_4nktta1nfcc8y-stroke" data-item-order="0" transform="translate(555.5400390625, 291)"></g><g id="g-root-user_4otyb21nf2jnx-stroke" data-item-order="0" transform="translate(261.5400390625, 351.0001220703125)"><g id="user_4otyb21nf2jnx-stroke" fill="none" stroke-linecap="round" stroke-linejoin="round" stroke-miterlimit="4" stroke="#484848" stroke-width="2"><g><path d="M 32 35C 25.372583 35 20 29.627417 20 23C 20 16.372583 25.372583 11 32 11ZM 13 57C 13 46.506592 21.50659 38 32 38L 32 57ZM 36 35C 36.670525 34.995987 37.339535 34.935776 38 34.82L 38 31.76C 38.983719 31.534334 39.921806 31.142733 40.773998 30.601999L 42.945999 32.774002C 44.040051 31.99596 44.99596 31.040052 45.773998 29.945999L 43.599998 27.774C 44.141434 26.92194 44.533714 25.983845 44.759998 25L 47.82 25C 47.935772 24.339535 47.995983 23.670525 48 23C 47.995983 22.329475 47.935772 21.660467 47.82 21L 44.759998 21C 44.533714 20.016151 44.141434 19.07806 43.599998 18.226L 45.771999 16.054001C 44.993961 14.959948 44.038052 14.00404 42.944 13.226L 40.774002 15.4C 39.921936 14.858564 38.983845 14.466283 38 14.24L 38 11.18C 37.339535 11.064227 36.670525 11.004017 36 11M 36 19C 38.209137 19 40 20.790861 40 23C 40 25.209139 38.209137 27 36 27M 55 57C 54.992783 55.994694 54.905846 54.99155 54.739998 53.999996L 50.698002 54C 50.430782 52.702488 49.990864 51.446644 49.390003 50.266003L 52.332001 47.326C 50.955723 45.003922 49.102207 43.000431 46.894001 41.448002L 44.009998 44.334C 42.772068 43.546524 41.424023 42.947319 40.010002 42.556L 40.010002 38.43C 38.692268 38.145462 37.348099 38.001328 36 38M 36 49C 40.418278 49 44 52.581722 44 57"></path></g></g></g><g id="g-root-tx_roipredi_me8d7y1nfcd1k-stroke" data-item-order="0" transform="translate(555.5400390625, 471.0001220703125)"></g><g id="g-root-48px_3d1bi1np6arm-stroke" data-item-order="0" transform="translate(483.5400390625, 375.0001220703125)"><g id="48px_3d1bi1np6arm-stroke" fill="none" stroke-linecap="round" stroke-linejoin="round" stroke-miterlimit="4" stroke="#484848" stroke-width="2"><g><path d="M 15.07227 30.179C 15.07227 24.4822 17.78873 19.69573 23.0107 19.69573C 28.2328 19.69573 30.9492 24.4822 30.9492 30.179L 30.9492 37.2732C 30.9492 42.97 28.1054 47.8821 23.0107 47.8821C 17.91609 47.8821 15.07227 42.97 15.07227 37.2732L 15.07227 30.179ZM 49.9098 47.9788L 49.9098 19.55127L 36.2949 39.738L 55.3147 39.738"></path></g></g></g><g id="g-root-tx_resource_hyev3i1nfcdtt-stroke" data-item-order="0" transform="translate(555.5400390625, 375.0001220703125)"></g><g id="g-root-1_humvhq1np7rpp-stroke" data-item-order="0" transform="translate(129.5400390625, 393.0001220703125)"><g id="1_humvhq1np7rpp-stroke" fill="none" stroke-linecap="round" stroke-linejoin="round" stroke-miterlimit="4" stroke="#484848" stroke-width="2"><g><path d="M 23.694 38.138L 26.084 42.585999M 37.422001 21.091999L 46.846001 38.629997M 45.830002 36.739998L 25.507999 41.512001L 24.24 39.153999L 38.648003 23.372L 45.830002 36.739998ZM 29.898001 40.482002L 31.02 42.512001C 31.391617 43.233879 32.044506 43.770535 32.824669 43.995384C 33.604832 44.220234 34.443192 44.113373 35.141998 43.699997C 36.611572 42.796356 37.121231 40.90332 36.304001 39.383999L 36.104 39.026001M 31.028 14.45C 31.78653 15.292067 32.866669 15.772835 34 15.772835C 35.133331 15.772835 36.21347 15.292067 36.972 14.45L 38.896 12.322001C 40.029224 11.058366 41.836563 10.647524 43.404694 11.297089C 44.972824 11.946652 45.960255 13.515167 45.868 15.21L 45.722 18.074001C 45.663898 19.204723 46.087708 20.307102 46.888302 21.107697C 47.6889 21.908295 48.791279 22.332104 49.922001 22.274L 52.799999 22.132C 54.494831 22.039745 56.063347 23.027176 56.712914 24.595306C 57.362476 26.163439 56.951633 27.970776 55.688 29.104L 53.560001 31.028C 52.717934 31.78653 52.237167 32.866669 52.237167 34C 52.237167 35.133331 52.717934 36.21347 53.560001 36.972L 55.688 38.896C 56.951633 40.029224 57.362476 41.836563 56.712914 43.404694C 56.063347 44.972824 54.494831 45.960255 52.799999 45.868L 49.936001 45.722C 48.805279 45.663898 47.7029 46.087708 46.902302 46.888302C 46.101707 47.6889 45.677898 48.791279 45.736 49.922001L 45.882 52.785999C 45.974255 54.480831 44.986824 56.049347 43.418694 56.698914C 41.850563 57.348476 40.043224 56.937634 38.91 55.674L 36.986 53.546001C 36.22747 52.703934 35.147331 52.223167 34.014 52.223167C 32.880669 52.223167 31.800529 52.703934 31.042 53.546001L 29.118 55.674C 27.988682 56.946774 26.177763 57.365784 24.60416 56.718414C 23.03056 56.071041 22.038746 54.499004 22.132 52.799999L 22.278 49.936001C 22.336102 48.805279 21.912292 47.7029 21.111698 46.902302C 20.3111 46.101707 19.208721 45.677898 18.077999 45.736L 15.214001 45.882C 13.519167 45.974255 11.950653 44.986824 11.301088 43.418694C 10.651524 41.850563 11.062366 40.043224 12.326 38.91L 14.454 36.986C 15.296066 36.22747 15.776834 35.147331 15.776834 34.014C 15.776834 32.880669 15.296066 31.800529 14.454 31.042L 12.322001 29.104C 11.058366 27.970776 10.647524 26.163439 11.297089 24.595306C 11.946652 23.027176 13.515167 22.039745 15.21 22.132L 18.074001 22.278C 19.204723 22.336102 20.307102 21.912292 21.107697 21.111698C 21.908295 20.3111 22.332104 19.208721 22.274 18.077999L 22.132 15.21C 22.039745 13.515167 23.027176 11.946652 24.595306 11.297089C 26.163439 10.647524 27.970776 11.058366 29.104 12.322001Z"></path></g></g></g><g id="g-root-48px_1qegctq1nov4lf-stroke" data-item-order="0" transform="translate(483.5400390625, 459.0001220703125)"><g id="48px_1qegctq1nov4lf-stroke" fill="none" stroke-linecap="round" stroke-linejoin="round" stroke-miterlimit="4" stroke="#484848" stroke-width="2"><g><path d="M 15.07227 30.179C 15.07227 24.4822 17.78873 19.69573 23.0107 19.69573C 28.2328 19.69573 30.9492 24.4822 30.9492 30.179L 30.9492 37.2732C 30.9492 42.97 28.1054 47.8821 23.0107 47.8821C 17.91609 47.8821 15.07227 42.97 15.07227 37.2732L 15.07227 30.179ZM 53.6933 20.1206L 40.3788 20.1206L 38.9878 33.1442C 39.8169 32.315 42.3531 30.6566 45.8651 30.6566C 49.9711 30.6566 53.8125 33.4467 53.427 40.0524C 53.0278 46.8938 48.912 47.9042 45.5285 47.9042C 41.9445 47.9042 38.405 45.3609 38.0728 40.565"></path></g></g></g><g id="g-root-tx_automate_zpovla1nfcbgn-stroke" data-item-order="0" transform="translate(207.5400390625, 39)"></g></g></g></svg>