<?xml version="1.0" encoding="utf-8" standalone="yes"?>
<!DOCTYPE svg PUBLIC "-//W3C//DTD SVG 1.1//EN" "http://www.w3.org/Graphics/SVG/1.1/DTD/svg11.dtd">
<svg width="566" height="494" viewBox="0 0 566 494" style="fill:none;stroke:none;fill-rule:evenodd;clip-rule:evenodd;stroke-linecap:round;stroke-linejoin:round;stroke-miterlimit:1.5;" version="1.1" xmlns="http://www.w3.org/2000/svg" xmlns:xlink="http://www.w3.org/1999/xlink"><style id="fontImports">@import url("https://fonts.googleapis.com/css2?family=Roboto:wght@400;700&amp;display=block");</style><g id="items" style="isolation: isolate"><g id="blend" style="mix-blend-mode: normal"><g id="g-root-5.cu_sy_dbpm3f6pahvo-fill" data-item-order="-31674" transform="translate(195, 262)"></g><g id="g-root-4.cu_sy_4g2luj6paiod-fill" data-item-order="-31671" transform="translate(267, 273)"></g><g id="g-root-3.cu_sy_1q6cmjf6pagwe-fill" data-item-order="-31667" transform="translate(231, 294.326171875)"></g><g id="g-root-2.right-bucket_sy_1lqj4ez6pahon-fill" data-item-order="-31663" transform="translate(327, 243)"></g><g id="g-root-1.left-bucket_sy_18fp34r6pag3s-fill" data-item-order="-31659" transform="translate(159, 243)"></g><g id="g-root-tx_resource_zp2hp76p4uf4-fill" data-item-order="0" transform="translate(51, 39)"><g id="tx_resource_zp2hp76p4uf4-fill" stroke="none" fill="#484848"><g><text style="font: 20px Roboto, sans-serif; white-space: pre;" font-size="20px" font-family="Roboto, sans-serif"><tspan x="32.69" y="34" dominant-baseline="ideographic">Resource </tspan><tspan x="16.44" y="58" dominant-baseline="ideographic">Limitations</tspan></text></g></g></g><g id="g-root-2_40avv6peq6m-fill" data-item-order="0" transform="translate(171, 39)"></g><g id="g-root-1_zn72fv6p4vet-fill" data-item-order="0" transform="translate(339, 39)"></g><g id="g-root-tx_optimalr_hznwgr6p4v0r-fill" data-item-order="0" transform="translate(399, 39)"><g id="tx_optimalr_hznwgr6p4v0r-fill" stroke="none" fill="#484848"><g><text style="font: 20px Roboto, sans-serif; white-space: pre;" font-size="20px" font-family="Roboto, sans-serif"><tspan x="12" y="34" dominant-baseline="ideographic">Optimal </tspan><tspan x="12" y="58" dominant-baseline="ideographic">Resource Use</tspan></text></g></g></g><g id="g-root-tx_resistan_1ur6jh76p4tmv-fill" data-item-order="0" transform="translate(27, 111)"><g id="tx_resistan_1ur6jh76p4tmv-fill" stroke="none" fill="#484848"><g><text style="font: 20px Roboto, sans-serif; white-space: pre;" font-size="20px" font-family="Roboto, sans-serif"><tspan x="19.39" y="34" dominant-baseline="ideographic">Resistance to </tspan><tspan x="72.23" y="58" dominant-baseline="ideographic">Change</tspan></text></g></g></g><g id="g-root-2_4ikuu36p22a7-fill" data-item-order="0" transform="translate(171, 111)"></g><g id="g-root-open_18hl1cr6oz9qf-fill" data-item-order="0" transform="translate(339, 111)"></g><g id="g-root-tx_encourag_18lyg4b6p4v0q-fill" data-item-order="0" transform="translate(399, 111)"><g id="tx_encourag_18lyg4b6p4v0q-fill" stroke="none" fill="#484848"><g><text style="font: 20px Roboto, sans-serif; white-space: pre;" font-size="20px" font-family="Roboto, sans-serif"><tspan x="12" y="34" dominant-baseline="ideographic">Encouraging </tspan><tspan x="12" y="58" dominant-baseline="ideographic">Adaptation</tspan></text></g></g></g><g id="g-root-tx_complexi_qrk26z6p4w7i-fill" data-item-order="0" transform="translate(15, 183)"><g id="tx_complexi_qrk26z6p4w7i-fill" stroke="none" fill="#484848"><g><text style="font: 20px Roboto, sans-serif; white-space: pre;" font-size="20px" font-family="Roboto, sans-serif"><tspan x="31.77" y="34" dominant-baseline="ideographic">Complexity in </tspan><tspan x="11.95" y="58" dominant-baseline="ideographic">Implementation</tspan></text></g></g></g><g id="g-root-puzz_1hi7hnf6pbx8m-fill" data-item-order="0" transform="translate(171, 183)"></g><g id="g-root-1_18i7fa36p7ojk-fill" data-item-order="0" transform="translate(339, 183)"></g><g id="g-root-tx_simplifi_92ry1n6p4uf5-fill" data-item-order="0" transform="translate(399, 183)"><g id="tx_simplifi_92ry1n6p4uf5-fill" stroke="none" fill="#484848"><g><text style="font: 20px Roboto, sans-serif; white-space: pre;" font-size="20px" font-family="Roboto, sans-serif"><tspan x="12" y="34" dominant-baseline="ideographic">Simplified </tspan><tspan x="12" y="58" dominant-baseline="ideographic">Processes</tspan></text></g></g></g><g id="g-root-tx_challeng_1qehesb6p4uto-fill" data-item-order="0" transform="translate(57, 339)"><g id="tx_challeng_1qehesb6p4uto-fill" stroke="none" fill="#484848"><g><text style="font: 20px Roboto, sans-serif; white-space: pre;" font-size="20px" font-family="Roboto, sans-serif"><tspan x="14.8" y="34" dominant-baseline="ideographic">Challenges</tspan></text></g></g></g><g id="g-root-tx_solution_vcdd0b6p4vlx-fill" data-item-order="0" transform="translate(399, 339)"><g id="tx_solution_vcdd0b6p4vlx-fill" stroke="none" fill="#484848"><g><text style="font: 20px Roboto, sans-serif; white-space: pre;" font-size="20px" font-family="Roboto, sans-serif"><tspan x="16.35" y="34" dominant-baseline="ideographic">Solutions</tspan></text></g></g></g><g id="g-root-tx_balancin_4g37yz6p6a6e-fill" data-item-order="0" transform="translate(75, 411)"><g id="tx_balancin_4g37yz6p6a6e-fill" stroke="none" fill="#484848"><g><text style="font: 20px Roboto, sans-serif; white-space: pre;" font-size="20px" font-family="Roboto, sans-serif"><tspan x="11.98" y="34" dominant-baseline="ideographic">Balancing Challenges with Effective Solutions</tspan></text></g></g></g><g id="g-root-5.cu_sy_dbpm3f6pahvo-stroke" data-item-order="-31674" transform="translate(195, 262)"><g id="5.cu_sy_dbpm3f6pahvo-stroke" fill="none" stroke-linecap="round" stroke-linejoin="round" stroke-miterlimit="4" stroke="#484848" stroke-width="2"><g><path d="M 178 10L 178 24.978C 178 29.395 174.42 32.976 170.003 32.978L 107 33M 10 10L 10 25.025C 10 29.444 13.582 33.025 18 33.025L 82 33.025"></path></g></g></g><g id="g-root-4.cu_sy_4g2luj6paiod-stroke" data-item-order="-31671" transform="translate(267, 273)"><g id="4.cu_sy_4g2luj6paiod-stroke" fill="none" stroke-linecap="round" stroke-linejoin="round" stroke-miterlimit="4" stroke="#484848" stroke-width="2"><g><path d="M 34.086 22C 34.086 28.627 28.695 34 22.043 34C 15.392 34 10 28.627 10 22C 10 15.373 15.392 10 22.043 10C 28.695 10 34.086 15.373 34.086 22ZM 28 22C 28 25.314 25.314 28 22 28C 18.686 28 16 25.314 16 22C 16 18.686 18.686 16 22 16C 25.314 16 28 18.686 28 22Z"></path></g></g></g><g id="g-root-3.cu_sy_1q6cmjf6pagwe-stroke" data-item-order="-31667" transform="translate(231, 294.326171875)"><g id="3.cu_sy_1q6cmjf6pagwe-stroke" fill="none" stroke-linecap="round" stroke-linejoin="round" stroke-miterlimit="4" stroke="#484848" stroke-width="2"><g><path d="M 22 78.674011L 94 78.674011C 94 78.674011 73.992 28.166011 65.959 10.058011C 63.725 11.952011 61.073 12.997011 58.043 12.997011C 54.986 12.997011 52.288 11.933011 50.072 10.000011C 42.047 28.114011 22 78.674011 22 78.674011ZM 18 78.679011C 13.582 78.679011 10 82.260011 10 86.679011L 10 88.679011C 10 89.783011 10.895 90.679011 12 90.679011L 104 90.679011C 105.105 90.679011 106 89.783011 106 88.679011L 106 86.679011C 106 82.260011 102.418 78.679011 98 78.679011L 18 78.679011Z"></path></g></g><g id="3.cu_sy_1q6cmjf6pagwe-stroke" fill="none" stroke-linecap="round" stroke-linejoin="round" stroke-miterlimit="4" stroke="#484848" stroke-width="2"><g><path d="M 58 58.679011L 54 62.679011L 54 71.749011C 55.177 71.068011 56.543 70.679011 58 70.679011C 59.457 70.679011 60.823 71.068011 62 71.749011L 62 62.679011L 58 58.679011ZM 62 71.749011C 60.823 71.068011 59.457 70.679011 58 70.679011C 56.543 70.679011 55.177 71.068011 54 71.749011C 51.609 73.132011 50 75.718011 50 78.679011L 66 78.679011C 66 75.718011 64.391 73.132011 62 71.749011ZM 58 49.679011L 58 55.479011M 78.503 58.176011L 74.404 62.274011M 37.497 58.176011L 41.596 62.274011M 64.747 53.468011L 64.003 56.262011M 44.94 56.078011L 46.4 58.591011M 71.031 56.068011L 69.59 58.572011M 51.224 53.478011L 51.978 56.271011"></path></g></g></g><g id="g-root-2.right-bucket_sy_1lqj4ez6pahon-stroke" data-item-order="-31663" transform="translate(327, 243)"><g id="2.right-bucket_sy_1lqj4ez6pahon-stroke" fill="none" stroke-linecap="round" stroke-linejoin="round" stroke-miterlimit="4" stroke="#3cc583" stroke-width="2"><g><path d="M 10 11.8C 10 10.806 10.806 10 11.8 10L 80.2 10C 81.194 10 82 10.806 82 11.8C 82 20.747 74.747 28 65.8 28L 26.2 28C 17.253 28 10 20.747 10 11.8Z"></path></g></g></g><g id="g-root-1.left-bucket_sy_18fp34r6pag3s-stroke" data-item-order="-31659" transform="translate(159, 243)"><g id="1.left-bucket_sy_18fp34r6pag3s-stroke" fill="none" stroke-linecap="round" stroke-linejoin="round" stroke-miterlimit="4" stroke="#e55753" stroke-width="2"><g><path d="M 10 11.8C 10 10.806 10.806 10 11.8 10L 80.2 10C 81.194 10 82 10.806 82 11.8C 82 20.747 74.747 28 65.8 28L 26.2 28C 17.253 28 10 20.747 10 11.8Z"></path></g></g></g><g id="g-root-tx_resource_zp2hp76p4uf4-stroke" data-item-order="0" transform="translate(51, 39)"></g><g id="g-root-2_40avv6peq6m-stroke" data-item-order="0" transform="translate(171, 39)"><g id="2_40avv6peq6m-stroke" fill="none" stroke-linecap="round" stroke-linejoin="round" stroke-miterlimit="4" stroke="#484848" stroke-width="2"><g><path d="M 29.059999 25.307999C 28.356613 26.903687 27.183916 28.247301 25.697998 29.159998L 27.677999 39.48L 21.49 39.48L 19.734001 30.302C 16.215942 29.690422 13.443654 26.96526 12.771853 23.458204C 12.100054 19.951149 13.668999 16.394394 16.712 14.526L 17.938 20.92L 21.49 23.33L 23.9 19.779999L 22.674 13.384C 25.276871 13.835477 27.526892 15.460291 28.774094 17.78908C 30.021297 20.11787 30.126753 22.891222 29.059999 25.307999ZM 43.051998 14.592C 42.453999 17.282 39.290001 19.076 34.954002 18.112L 34.108002 21.914L 54.388 26.422001L 56.360001 17.549999L 43.051998 14.592ZM 39.015999 39.48L 42.504002 23.788L 48.278 25.071999L 44.911999 39.482002L 39.015999 39.482002ZM 56.5 52.66L 56.5 39.48L 11.5 39.48L 11.5 52.66C 11.5 53.740002 12.375999 54.618 13.456 54.618L 54.543999 54.618C 55.624001 54.618 56.5 53.740002 56.5 52.66ZM 36.933998 42.416C 36.933998 44.036404 35.620403 45.350002 34 45.350002C 32.379597 45.350002 31.066 44.036404 31.066 42.416L 31.066 39.482002L 36.933998 39.482002L 36.933998 42.416Z"></path></g></g></g><g id="g-root-1_zn72fv6p4vet-stroke" data-item-order="0" transform="translate(339, 39)"><g id="1_zn72fv6p4vet-stroke" fill="none" stroke-linecap="round" stroke-linejoin="round" stroke-miterlimit="4" stroke="#484848" stroke-width="2"><g><path d="M 11 22L 57 22L 57 54L 11 54ZM 27 22L 27 18C 27.005497 15.793142 28.793144 14.005497 31.000002 14L 37 14C 39.206863 14.005497 40.994507 15.793142 41 18L 41 22M 43.532001 38.816002C 43.300446 38.629601 43.163818 38.349854 43.15918 38.052631C 43.154541 37.755409 43.282375 37.471531 43.507999 37.278L 44.720001 36.239998C 44.901142 36.085094 45.131657 35.999981 45.369999 36L 47.970001 36C 48.348774 36 48.695034 35.785995 48.864426 35.447212C 49.033821 35.108429 48.997265 34.703018 48.77 34.400002C 47.451324 32.635391 45.266827 31.742062 43.089546 32.077026C 40.912262 32.411995 39.097298 33.920628 38.370003 36L 29.632 36C 28.792999 33.607147 26.535677 32.003937 24 32C 22.18049 32.063396 20.482365 32.928932 19.362 34.363998C 19.11581 34.662712 19.064129 35.076683 19.229321 35.426758C 19.394516 35.776829 19.746908 36.000122 20.133999 36L 22.630001 36C 22.868343 35.999981 23.098858 36.085094 23.279999 36.239998L 24.492001 37.278C 24.717627 37.471531 24.845459 37.755409 24.84082 38.052631C 24.836182 38.349854 24.699554 38.629601 24.468 38.816002L 23.268 39.778C 23.092327 39.91988 22.873804 39.998123 22.647999 40L 20.133999 40C 19.746908 39.999878 19.394516 40.223171 19.229321 40.573242C 19.064129 40.923317 19.11581 41.337288 19.362 41.636002C 20.482365 43.071068 22.18049 43.936607 24 44C 26.535677 43.996067 28.792999 42.392857 29.632002 40L 38.368 40C 39.094185 42.08041 40.909317 43.590145 43.0872 43.925205C 45.265083 44.260265 47.450069 43.365929 48.768002 41.599998C 48.995262 41.296982 49.031818 40.891571 48.862427 40.552788C 48.693035 40.214005 48.346771 40 47.967999 40L 45.352001 40C 45.124134 39.999481 44.903278 39.921162 44.726002 39.778Z"></path></g></g></g><g id="g-root-tx_optimalr_hznwgr6p4v0r-stroke" data-item-order="0" transform="translate(399, 39)"></g><g id="g-root-tx_resistan_1ur6jh76p4tmv-stroke" data-item-order="0" transform="translate(27, 111)"></g><g id="g-root-2_4ikuu36p22a7-stroke" data-item-order="0" transform="translate(171, 111)"><g id="2_4ikuu36p22a7-stroke" fill="none" stroke-linecap="round" stroke-linejoin="round" stroke-miterlimit="4" stroke="#484848" stroke-width="2"><g><path d="M 19 42C 19 50.284271 25.715729 57 34 57C 42.284271 57 49 50.284271 49 42C 49 33.715729 42.284271 27.000002 34 27.000002C 25.715729 27.000002 19 33.715729 19 42ZM 45 31.834L 45 21C 45 15.477153 40.52285 11 35 11C 29.477154 11 25 15.477153 25 21M 32 42C 32 43.104568 32.895432 44 34 44C 35.104568 44 36 43.104568 36 42C 36 40.895432 35.104568 40 34 40C 32.895432 40 32 40.895432 32 42ZM 34 44L 34 50"></path></g></g></g><g id="g-root-open_18hl1cr6oz9qf-stroke" data-item-order="0" transform="translate(339, 111)"><g id="open_18hl1cr6oz9qf-stroke" fill="none" stroke-linecap="round" stroke-linejoin="round" stroke-miterlimit="4" stroke="#484848" stroke-width="2"><g><path d="M 33.285999 28.058001C 30.209814 24.979794 25.220188 24.979794 22.144001 28.058001C 19.066212 31.134224 14.077788 31.134224 11 28.057999M 33.285999 21.214001C 30.208897 18.138004 25.221102 18.138004 22.144001 21.214001C 19.067127 24.292435 14.076874 24.292435 11 21.213999M 27.726 33.524002C 25.631842 33.517357 23.621975 34.348377 22.144001 35.832001C 19.066212 38.908226 14.077788 38.908226 11 35.832001M 33.285999 43.563999C 30.209814 40.485794 25.220188 40.485794 22.144001 43.564003C 19.066212 46.640224 14.077788 46.640224 11 43.563999M 28.771999 46.972L 28.771999 53.863998C 28.771999 55.019054 29.708942 55.955105 30.863998 55.953999L 54.908001 55.953999C 56.063053 55.955105 57 55.019054 56.999996 53.863998L 57 14.136C 57 12.980944 56.063053 12.044895 54.907997 12.046L 30.864 12.046C 29.708942 12.044895 28.771999 12.980944 28.771999 14.136L 28.771999 15.182M 57 32.954002C 55.650063 34.754639 53.299294 35.489334 51.164238 34.777878C 49.029182 34.066418 47.589005 32.068474 47.589005 29.818001C 47.589005 27.567528 49.029182 25.569584 51.164238 24.858128C 53.299294 24.146667 55.650063 24.881363 57.000004 26.682001M 57 41.129997L 49.674 41.129997C 49.59671 41.03331 49.513908 40.941154 49.426003 40.854L 39.809998 32.454002C 38.329323 31.121338 36.048664 31.241325 34.716 32.722C 33.383339 34.202675 33.503326 36.483337 34.984001 37.816002L 43.400002 45.139999L 43.400002 55.953999"></path></g></g></g><g id="g-root-tx_encourag_18lyg4b6p4v0q-stroke" data-item-order="0" transform="translate(399, 111)"></g><g id="g-root-tx_complexi_qrk26z6p4w7i-stroke" data-item-order="0" transform="translate(15, 183)"></g><g id="g-root-puzz_1hi7hnf6pbx8m-stroke" data-item-order="0" transform="translate(171, 183)"><g id="puzz_1hi7hnf6pbx8m-stroke" fill="none" stroke-linecap="round" stroke-linejoin="round" stroke-miterlimit="4" stroke="#484848" stroke-width="2"><g><path d="M 50.98 34C 50.98 33.84 50.98 33.66 50.98 33.5C 50.98 31.014719 48.965282 29 46.48 29C 43.99472 29 41.98 31.014719 41.98 33.5C 41.98 33.66 41.98 33.84 41.98 34L 36.5 34L 36.5 40L 37 40C 39.485283 40 41.5 42.014717 41.5 44.5C 41.5 46.985283 39.485283 49 37 49L 36.5 49L 36.5 55L 55 55C 56.104568 55 57 54.104568 57 53L 57 34ZM 37 40L 36.5 40L 36.5 34L 31.48 34C 31.48 34.16 31.48 34.34 31.48 34.5C 31.48 36.985283 29.465282 39 26.98 39C 24.494719 39 22.48 36.985283 22.48 34.5C 22.48 34.34 22.48 34.16 22.48 34L 16 34L 16 40L 15.5 40C 13.014719 40 11 42.014717 11 44.5C 11 46.985283 13.014719 49 15.5 49L 16 49L 16 53C 16 54.104568 16.895432 55 18 55L 36.5 55L 36.5 49L 37 49C 39.485283 49 41.5 46.985283 41.5 44.5C 41.5 42.014717 39.485283 40 37 40ZM 36.5 28L 36 28C 33.514717 28 31.5 25.985283 31.5 23.5C 31.5 21.014719 33.514717 19 36 19L 36.5 19L 36.5 13L 18 13C 16.895432 13 16 13.895431 16 15L 16 19L 16.5 19C 18.985281 19 21 21.014719 21 23.5C 21 25.985283 18.985281 28 16.5 28L 16 28L 16 34L 22.52 34C 22.52 34.16 22.52 34.34 22.52 34.5C 22.52 36.985283 24.534718 39 27.02 39C 29.505281 39 31.52 36.985283 31.52 34.5C 31.52 34.34 31.52 34.16 31.52 34L 36.540001 34ZM 50.98 13C 50.98 13.16 50.98 13.34 50.98 13.5C 50.98 15.985281 48.965282 18 46.48 18C 43.99472 18 41.98 15.985281 41.98 13.5C 41.98 13.34 41.98 13.16 41.98 13L 36.5 13L 36.5 19L 36 19C 33.514717 19 31.5 21.014719 31.5 23.5C 31.5 25.985283 33.514717 28 36 28L 36.5 28L 36.5 34L 42 34C 42 33.84 42 33.66 42 33.5C 42 31.014719 44.014717 29 46.5 29C 48.985283 29 51 31.014719 51 33.5C 51 33.66 51 33.84 51 34L 57 34L 57 15C 57 13.895431 56.104568 13 55 13Z"></path></g></g></g><g id="g-root-1_18i7fa36p7ojk-stroke" data-item-order="0" transform="translate(339, 183)"><g id="1_18i7fa36p7ojk-stroke" fill="none" stroke-linecap="round" stroke-linejoin="round" stroke-miterlimit="4" stroke="#484848" stroke-width="2"><g><path d="M 11 18C 11 20.761425 13.238577 23 16 23C 18.761425 23 21 20.761425 21 18C 21 15.238577 18.761425 13 16 13C 13.238577 13 11 15.238577 11 18M 32 18C 32 20.761425 34.238579 23 37 23C 39.761425 23 42 20.761425 42 18C 42 15.238577 39.761425 13 37 13C 34.238579 13 32 15.238577 32 18M 32 48C 32 50.761425 34.238579 53 37 53C 39.761425 53 42 50.761425 42 48C 42 45.238575 39.761425 43 37 43C 34.238579 43 32 45.238575 32 48M 21 18L 32 18M 16 48L 32 48M 42 18C 50.284271 18 57 24.715729 57 33C 57 41.284271 50.284271 48 42 48M 22 41L 15 48L 22 55"></path></g></g></g><g id="g-root-tx_simplifi_92ry1n6p4uf5-stroke" data-item-order="0" transform="translate(399, 183)"></g><g id="g-root-tx_challeng_1qehesb6p4uto-stroke" data-item-order="0" transform="translate(57, 339)"></g><g id="g-root-tx_solution_vcdd0b6p4vlx-stroke" data-item-order="0" transform="translate(399, 339)"></g><g id="g-root-tx_balancin_4g37yz6p6a6e-stroke" data-item-order="0" transform="translate(75, 411)"></g></g></g></svg>