<?xml version="1.0" encoding="utf-8" standalone="yes"?>
<!DOCTYPE svg PUBLIC "-//W3C//DTD SVG 1.1//EN" "http://www.w3.org/Graphics/SVG/1.1/DTD/svg11.dtd">
<svg width="662" height="420" viewBox="0 0 662 420" style="fill:none;stroke:none;fill-rule:evenodd;clip-rule:evenodd;stroke-linecap:round;stroke-linejoin:round;stroke-miterlimit:1.5;" version="1.1" xmlns="http://www.w3.org/2000/svg" xmlns:xlink="http://www.w3.org/1999/xlink"><style id="fontImports">@import url("https://fonts.googleapis.com/css2?family=Roboto:wght@400;700&amp;display=block");</style><g id="items" style="isolation: isolate"><g id="blend" style="mix-blend-mode: normal"><g id="g-root--1.cu_sy_qunapl65l3wq-fill" data-item-order="-44000" transform="translate(236.26953125, 99.16558837890625)"><g id="-1.cu_sy_qunapl65l3wq-fill" stroke="none" fill="#a3a3a3"><g><path d="M 15.0326 206.541496C 15.9629 207.112496 17.0468 207.444496 18.1904 207.444496L 19.2095 207.444496C 24.2441 213.857896 30.6852 219.848896 37.1417 224.982996L 29.3103 225.260696C 25.9806 225.393796 23.41 228.208396 23.41 231.542096L 23.41 232.952696C 23.5432 236.279696 26.3668 238.848196 29.6965 238.721796L 55.9034 237.809096C 61.4301 241.013396 67.2932 243.994396 73.3864 246.876096L 63.9578 270.929496C 46.3568 262.748596 28.2306 251.796196 14.9511 237.223296C 7.5094 227.592896 9.223 216.307196 15.0326 206.541496ZM 15.133342 110.003595C 7.076442 99.577095 9.706442 87.063395 16.752242 76.799995C 16.204642 77.617195 15.449042 78.809795 14.959442 79.650695C 16.476142 80.525295 17.443242 80.525295 18.546742 80.525295L 19.731442 80.525295C 24.773642 86.939095 30.927942 92.932695 37.386942 98.064495L 29.285442 98.344695C 25.955642 98.477795 23.385142 101.292395 23.385142 104.626095L 23.385142 106.036695C 23.518342 109.363695 26.341942 111.932195 29.671642 111.805795L 56.162042 110.888195C 66.137742 116.666395 77.207042 121.322595 88.745842 126.378595L 89.077642 126.525195L 88.745842 126.670595C 82.647342 129.367795 77.285442 131.582795 73.204342 133.245495C 68.085642 135.395195 62.839142 137.775895 57.604942 140.409495C 42.141042 132.628695 26.768942 122.772395 15.133342 110.003595ZM 135.705342 179.499995L 148.087342 180.001995C 151.296342 180.127995 153.910342 177.729995 154.036342 174.522595L 154.036342 173.244995C 154.036342 170.037795 151.606342 167.349595 148.396342 167.216495L 113.666342 165.834295C 105.899842 161.787995 97.618842 158.040095 89.076842 154.294295C 95.038242 151.663195 100.277342 149.498795 104.284442 147.866195C 109.592042 145.637095 115.037342 143.159795 120.463342 140.409495C 135.730342 148.147695 150.600342 157.992395 162.091342 170.601695C 170.190342 181.083995 167.316342 193.588995 160.247342 203.898995C 160.242342 203.890995 160.236342 203.882995 160.230342 203.874995C 160.236342 203.865995 160.242342 203.857995 160.247342 203.849995C 161.783342 201.609995 163.115342 199.268995 164.176342 196.869995C 163.097342 195.026995 161.468342 193.748995 159.234342 193.748995L 152.217342 193.748995C 147.118342 188.480995 141.266342 183.607995 135.705342 179.499995ZM 113.692421 38.8982L 148.396221 40.2793C 151.606021 40.4124 154.036721 43.1006 154.036721 46.3078L 154.036721 47.5854C 153.910221 50.7926 151.346321 53.2214 148.136521 53.0949L 135.788021 52.6035C 141.347621 56.7126 147.133121 61.5442 152.229621 66.8122L 159.234321 66.8122C 161.474821 66.8122 163.659221 68.2291 164.735421 70.0804C 168.548821 61.6721 169.111421 51.826 162.340421 43.3864C 149.060921 28.8136 130.934721 18.181 113.333621 10L 103.905121 34.0534C 107.242421 35.6318 110.510621 37.2399 113.692421 38.8982Z"></path></g></g></g><g id="g-root-4.cu_sy_metsl565l4oz-fill" data-item-order="-43996" transform="translate(315.013916015625, 253.96575927734375)"><g id="4.cu_sy_metsl565l4oz-fill" stroke="none" fill="#7f64ea"><g><path d="M 69.652 12.374C 72.8619 12.5071 75.2926 15.1953 75.2926 18.4026L 75.2926 19.6801C 75.1661 22.8874 72.6022 25.3161 69.3923 25.1897L 10.000004 22.8259L 10.000004 10L 69.652 12.374ZM 78.8627 52.6209C 79.8051 51.4275 80.6989 50.2193 81.5354 48.9991C 83.0713 46.7592 84.5356 44.1467 85.5964 41.7473C 84.6143 40.2268 82.6713 38.9458 80.4375 38.9458L 10.000004 38.9069L 10.000004 52.6209L 78.8627 52.6209ZM 65.3074 66.4553L 10.000004 68.3809L 10 81.852L 45.9823 80.5926C 51.7414 77.0178 58.6982 72.1444 65.3074 66.4553Z"></path></g></g></g><g id="g-root-3.cu_sy_8cr2165l3ws-fill" data-item-order="-43992" transform="translate(241.3424072265625, 253.16546630859375)"><g id="3.cu_sy_8cr2165l3ws-fill" stroke="none" fill="#1eabda"><g><path d="M 10.000007 52.6336C 10.898631 53.1539 12.103431 53.454 13.190731 53.454L 83.680831 53.454L 83.680831 39.74L 20.284231 39.74C 17.073131 43.0393 14.074831 46.5121 11.623231 50.0879C 11.050431 50.9232 10.512531 51.7724 10.000007 52.6336ZM 41.933131 21.9974L 83.680831 23.659L 83.680831 10.8331L 62.747331 10C 58.077931 12.3271 53.572131 14.7402 49.281431 17.2997C 47.030131 18.6465 44.544531 20.2237 41.933131 21.9974ZM 18.321731 77.5515C 18.321731 74.2178 20.892231 71.4032 24.222031 71.2701L 83.680831 69.214L 83.680831 82.6851L 24.608231 84.7312C 21.278531 84.8576 18.454931 82.2892 18.321731 78.9621L 18.321731 77.5515Z"></path></g></g></g><g id="g-root-2.cu_sy_1ly0ant65l5al-fill" data-item-order="-43988" transform="translate(315.01373291015625, 127.07073974609375)"><g id="2.cu_sy_1ly0ant65l5al-fill" stroke="none" fill="#92bd39"><g><path d="M 69.652 12.374C 72.8619 12.5071 75.2926 15.1953 75.2926 18.4026L 75.2926 19.6801C 75.1661 22.8874 72.6022 25.3161 69.3923 25.1897L 10.000005 22.8259L 10.000005 10L 69.652 12.374ZM 79.467 52.6209C 80.3141 51.5352 81.1207 50.4377 81.88 49.3302C 83.4557 47.0322 84.8166 44.6281 85.8905 42.1635C 84.8338 40.2434 82.7819 38.9069 80.4902 38.9069L 10.000005 38.9069L 10.000005 52.6209L 79.467 52.6209ZM 66.0837 66.4415L 10.000005 68.3809L 10 81.852L 46.9214 80.5732C 52.6853 76.9594 59.5694 72.0937 66.0837 66.4415Z"></path></g></g></g><g id="g-root-1.cu_sy_1hi6sjd65l62u-fill" data-item-order="-43984" transform="translate(241.225830078125, 126.21466064453125)"><g id="1.cu_sy_1hi6sjd65l62u-fill" stroke="none" fill="#3cc583"><g><path d="M 20.0608 39.7625C 16.9982 42.9437 14.1971 46.2553 11.843 49.6887C 11.1882 50.6438 10.5755 51.6202 9.999992 52.6087C 10.9079 53.1433 12.006 53.4765 13.1095 53.4765L 83.7879 53.4765L 83.7879 39.7625L 20.0608 39.7625ZM 41.4923 22.0049L 83.7879 23.6815L 83.7879 10.8556L 62.1184 10C 59.1294 11.5014 56.209 13.0397 53.3708 14.6308C 52.0273 15.3839 50.7022 16.1489 49.3971 16.9275C 46.9864 18.3697 44.3071 20.076 41.4923 22.0049ZM 18.4288 77.574C 18.4288 74.2403 20.9994 71.4257 24.3291 71.2926L 83.7879 69.2365L 83.7879 82.7076L 24.7154 84.7537C 21.3856 84.8801 18.562 82.3117 18.4288 78.9847L 18.4288 77.574Z"></path></g></g></g><g id="g-root--1.cu_1_sy_147cr9565l4hz-fill" data-item-order="-43980" transform="translate(230.74176025390625, 98.99957275390625)"><g id="-1.cu_1_sy_147cr9565l4hz-fill" stroke="none" fill="#a3a3a3"><g><path d="M 165.986199 203.901093C 156.501099 217.734893 139.638899 230.028993 128.505899 236.689293C 127.200699 237.467793 125.875599 238.232893 124.532099 238.985993C 119.668399 241.712593 114.562999 244.284293 109.284699 246.780993L 118.718699 270.831893C 136.312299 262.651793 154.428199 251.702693 167.701799 237.136293C 176.487799 227.494593 178.106299 218.223493 178.106299 203.901093C 178.106299 189.578793 176.487799 180.307693 167.701799 170.665893C 175.801699 181.148093 173.055099 193.591293 165.986199 203.901093ZM 20.4382 171.12746C 36.0626 154.03646 58.3749 141.92516 78.6817 133.42416C 82.776 131.76136 88.1553 129.54646 94.2736 126.84926C 106.5574 121.48416 118.308 116.12336 128.783 109.89486C 139.952 103.23456 156.869 90.94046 166.385 77.10666C 173.477 66.79686 176.232 54.35366 168.106 43.87146C 176.921 53.51326 178.544 62.78436 178.544 77.10666C 178.544 91.42906 176.921 100.70016 168.106 110.34196C 152.482 127.43266 130.169 139.54386 109.8625 148.04446C 105.7682 149.70746 100.3918 151.92146 94.2736 154.61946C 81.9897 159.98446 70.2362 165.34546 59.7611 171.57446C 48.592 178.23446 31.6752 190.52846 22.1594 204.36246C 15.0676 214.67246 12.3642 227.14346 20.6699 237.59746C 11.8554 227.95546 10 218.68446 10 204.36246C 10 190.03946 11.6237 180.76846 20.4382 171.12746ZM 22.307892 76.930801C 31.793 63.097 48.739594 50.802902 59.872589 44.142601C 61.177796 43.364097 62.502899 42.598999 63.846375 41.845901C 68.710083 39.119301 73.815491 36.5476 79.093781 34.050903L 69.65979 10C 52.066193 18.180099 33.950287 29.129196 20.676697 43.695595C 11.890686 53.337295 10.272187 62.608398 10.272187 76.930801C 10.272187 91.253097 11.890686 100.5242 20.676697 110.166C 12.576782 99.683792 15.238983 87.2406 22.307892 76.930801Z"></path></g></g></g><g id="g-root-tx_embracin_18efpbt6503d8-fill" data-item-order="0" transform="translate(39, 39.00006103515625)"><g id="tx_embracin_18efpbt6503d8-fill" stroke="none" fill="#484848"><g><text style="font: 20px Roboto, sans-serif; white-space: pre;" font-size="20px" font-family="Roboto, sans-serif"><tspan x="17.64" y="34" dominant-baseline="ideographic">Embracing Flexibility and Collaboration in Agile Methodology</tspan></text></g></g></g><g id="g-root-tx_customer_1lpw7p56501sb-fill" data-item-order="0" transform="translate(15, 135.00006103515625)"><g id="tx_customer_1lpw7p56501sb-fill" stroke="none" fill="#374840"><g><text style="font: 20px Roboto, sans-serif; white-space: pre;" font-size="20px" font-family="Roboto, sans-serif"><tspan x="53" y="34" dominant-baseline="ideographic">Customer </tspan><tspan x="21.27" y="58" dominant-baseline="ideographic">Collaboration</tspan></text></g></g></g><g id="g-root-hand_93zxmh65gydq-fill" data-item-order="0" transform="translate(159, 135.00006103515625)"></g><g id="g-root-1_1lwrit5658g0f-fill" data-item-order="0" transform="translate(423, 135.00006103515625)"></g><g id="g-root-tx_respondi_9lp8965l62y-fill" data-item-order="0" transform="translate(483, 135.00006103515625)"><g id="tx_respondi_9lp8965l62y-fill" stroke="none" fill="#424736"><g><text style="font: 20px Roboto, sans-serif; white-space: pre;" font-size="20px" font-family="Roboto, sans-serif"><tspan x="12" y="34" dominant-baseline="ideographic">Responding to </tspan><tspan x="12" y="58" dominant-baseline="ideographic">Change</tspan></text></g></g></g><g id="g-root-tx_workings_dl27ll65l4i1-fill" data-item-order="0" transform="translate(63, 267.00006103515625)"><g id="tx_workings_dl27ll65l4i1-fill" stroke="none" fill="#32444a"><g><text style="font: 20px Roboto, sans-serif; white-space: pre;" font-size="20px" font-family="Roboto, sans-serif"><tspan x="19.13" y="34" dominant-baseline="ideographic">Working </tspan><tspan x="12.16" y="58" dominant-baseline="ideographic">Software</tspan></text></g></g></g><g id="g-root-two_v2z6yh65jr4e-fill" data-item-order="0" transform="translate(159, 267.00006103515625)"></g><g id="g-root-info_1czvh8965bb42-fill" data-item-order="0" transform="translate(423, 267.00006103515625)"></g><g id="g-root-tx_individu_qvw8vt65l62w-fill" data-item-order="0" transform="translate(483, 267.00006103515625)"><g id="tx_individu_qvw8vt65l62w-fill" stroke="none" fill="#443e5c"><g><text style="font: 20px Roboto, sans-serif; white-space: pre;" font-size="20px" font-family="Roboto, sans-serif"><tspan x="12" y="34" dominant-baseline="ideographic">Individuals and </tspan><tspan x="12" y="58" dominant-baseline="ideographic">Interactions</tspan></text></g></g></g><g id="g-root--1.cu_sy_qunapl65l3wq-stroke" data-item-order="-44000" transform="translate(236.26953125, 99.16558837890625)"><g id="-1.cu_sy_qunapl65l3wq-stroke" fill="none" stroke-linecap="round" stroke-linejoin="round" stroke-miterlimit="4" stroke="#ffffff" stroke-width="2"><g><path d="M 15.0326 206.541496C 15.9629 207.112496 17.0468 207.444496 18.1904 207.444496L 19.2095 207.444496C 24.2441 213.857896 30.6852 219.848896 37.1417 224.982996L 29.3103 225.260696C 25.9806 225.393796 23.41 228.208396 23.41 231.542096L 23.41 232.952696C 23.5432 236.279696 26.3668 238.848196 29.6965 238.721796L 55.9034 237.809096C 61.4301 241.013396 67.2932 243.994396 73.3864 246.876096L 63.9578 270.929496C 46.3568 262.748596 28.2306 251.796196 14.9511 237.223296C 7.5094 227.592896 9.223 216.307196 15.0326 206.541496ZM 15.133342 110.003595C 7.076542 99.577095 9.706442 87.063395 16.752242 76.799995C 16.204642 77.617195 15.449042 78.809795 14.959442 79.650695C 16.476142 80.525295 17.443242 80.525295 18.546642 80.525295L 19.731442 80.525295C 24.773642 86.939095 30.927942 92.932695 37.386942 98.064495L 29.285442 98.344695C 25.955642 98.477795 23.385142 101.292395 23.385142 104.626095L 23.385142 106.036695C 23.518342 109.363695 26.341942 111.932195 29.671642 111.805795L 56.162042 110.888195C 66.137742 116.666395 77.207042 121.322595 88.745842 126.378595L 89.077642 126.525195L 88.745842 126.670595C 82.647342 129.367795 77.285442 131.582795 73.204342 133.245495C 68.085642 135.395195 62.839142 137.775895 57.604942 140.409495C 42.141042 132.628695 26.768942 122.772395 15.133342 110.003595ZM 135.705442 179.499495L 148.086942 180.001495C 151.296842 180.127895 153.910242 177.729795 154.036842 174.522595L 154.036842 173.244995C 154.036842 170.037795 151.606142 167.349595 148.396242 167.216495L 113.666042 165.834295C 105.899842 161.787995 97.618842 158.040095 89.076842 154.294295C 95.038242 151.663195 100.277342 149.498795 104.284442 147.866195C 109.592042 145.637095 115.037042 143.159795 120.463242 140.409495C 135.730842 148.147695 150.600742 157.992395 162.090942 170.601695C 170.190842 181.083895 167.316442 193.589395 160.247542 203.899295C 160.241942 203.890995 160.236342 203.882795 160.230642 203.874595C 160.236342 203.866295 160.241942 203.858095 160.247642 203.849895C 161.783442 201.609895 163.115242 199.269195 164.176142 196.869795C 163.097642 195.027395 161.468242 193.749395 159.234342 193.749395L 152.217042 193.749395C 147.118042 188.480595 141.266142 183.608295 135.705442 179.499495ZM 113.692421 38.8982L 148.396221 40.2793C 151.606021 40.4124 154.036721 43.1006 154.036721 46.3078L 154.036721 47.5854C 153.910221 50.7926 151.346321 53.2214 148.136521 53.0949L 135.788021 52.6035C 141.347621 56.7126 147.133121 61.5442 152.229621 66.8122L 159.234321 66.8122C 161.474821 66.8122 163.659221 68.2291 164.735421 70.0804C 168.548821 61.6721 169.111421 51.826 162.340421 43.3864C 149.060921 28.8136 130.934721 18.181 113.333621 10L 103.905121 34.0534C 107.242421 35.6318 110.510621 37.2399 113.692421 38.8982Z"></path></g></g></g><g id="g-root-4.cu_sy_metsl565l4oz-stroke" data-item-order="-43996" transform="translate(315.013916015625, 253.96575927734375)"><g id="4.cu_sy_metsl565l4oz-stroke" fill="none" stroke-linecap="round" stroke-linejoin="round" stroke-miterlimit="4" stroke="#ffffff" stroke-width="2"><g><path d="M 69.652 12.374C 72.8619 12.5071 75.2926 15.1953 75.2926 18.4025L 75.2926 19.6801C 75.1661 22.8874 72.6022 25.3161 69.3923 25.1897L 10 22.8259L 10 10L 69.652 12.374ZM 78.8627 52.6209C 79.8051 51.4275 80.6989 50.2193 81.5354 48.9991C 83.0713 46.7592 84.5356 44.1467 85.5964 41.7473C 84.6142 40.2268 82.6713 38.9458 80.4375 38.9458L 10 38.9069L 10 52.6209L 78.8627 52.6209ZM 65.3074 66.4553L 10 68.3809L 10 81.852L 45.9823 80.5926C 51.7414 77.0178 58.6982 72.1444 65.3074 66.4553Z"></path></g></g></g><g id="g-root-3.cu_sy_8cr2165l3ws-stroke" data-item-order="-43992" transform="translate(241.3424072265625, 253.16546630859375)"><g id="3.cu_sy_8cr2165l3ws-stroke" fill="none" stroke-linecap="round" stroke-linejoin="round" stroke-miterlimit="4" stroke="#ffffff" stroke-width="2"><g><path d="M 10.000031 52.6336C 10.898631 53.1539 12.103431 53.454 13.190731 53.454L 83.680831 53.454L 83.680831 39.74L 20.284231 39.74C 17.073131 43.0393 14.074831 46.5121 11.623131 50.0879C 11.050431 50.9232 10.512531 51.7724 10.000031 52.6336ZM 41.933131 21.9974L 83.680831 23.659L 83.680831 10.8331L 62.747331 10C 58.077931 12.3271 53.572131 14.7402 49.281431 17.2997C 47.030131 18.6465 44.544531 20.2237 41.933131 21.9974ZM 18.321731 77.5515C 18.321731 74.2178 20.892231 71.4032 24.222031 71.2701L 83.680831 69.214L 83.680831 82.6851L 24.608231 84.7312C 21.278531 84.8576 18.454931 82.2892 18.321731 78.9621L 18.321731 77.5515Z"></path></g></g></g><g id="g-root-2.cu_sy_1ly0ant65l5al-stroke" data-item-order="-43988" transform="translate(315.01373291015625, 127.07073974609375)"><g id="2.cu_sy_1ly0ant65l5al-stroke" fill="none" stroke-linecap="round" stroke-linejoin="round" stroke-miterlimit="4" stroke="#ffffff" stroke-width="2"><g><path d="M 69.652 12.374C 72.8619 12.5071 75.2926 15.1953 75.2926 18.4025L 75.2926 19.6801C 75.1661 22.8874 72.6022 25.3161 69.3923 25.1897L 10 22.8259L 10 10L 69.652 12.374ZM 79.467 52.6209C 80.3141 51.5352 81.1207 50.4377 81.88 49.3302C 83.4557 47.0322 84.8166 44.6281 85.8905 42.1635C 84.8338 40.2434 82.7819 38.9069 80.4902 38.9069L 10 38.9069L 10 52.6209L 79.467 52.6209ZM 66.0837 66.4415L 10 68.3809L 10 81.852L 46.9214 80.5732C 52.6853 76.9594 59.5694 72.0937 66.0837 66.4415Z"></path></g></g></g><g id="g-root-1.cu_sy_1hi6sjd65l62u-stroke" data-item-order="-43984" transform="translate(241.225830078125, 126.21466064453125)"><g id="1.cu_sy_1hi6sjd65l62u-stroke" fill="none" stroke-linecap="round" stroke-linejoin="round" stroke-miterlimit="4" stroke="#ffffff" stroke-width="2"><g><path d="M 20.0608 39.7625C 16.9982 42.9437 14.1971 46.2553 11.843 49.6887C 11.1882 50.6438 10.5755 51.6202 10 52.6087C 10.9079 53.1433 12.006 53.4765 13.1095 53.4765L 83.7879 53.4765L 83.7879 39.7625L 20.0608 39.7625ZM 41.4923 22.0049L 83.7879 23.6815L 83.7879 10.8556L 62.1184 10C 59.1294 11.5014 56.209 13.0397 53.3708 14.6308C 52.0273 15.3839 50.7022 16.1489 49.3971 16.9275C 46.9864 18.3697 44.3071 20.076 41.4923 22.0049ZM 18.4288 77.574C 18.4288 74.2403 20.9994 71.4257 24.3291 71.2926L 83.7879 69.2365L 83.7879 82.7076L 24.7154 84.7537C 21.3856 84.8801 18.562 82.3117 18.4288 78.9847L 18.4288 77.574Z"></path></g></g></g><g id="g-root--1.cu_1_sy_147cr9565l4hz-stroke" data-item-order="-43980" transform="translate(230.74176025390625, 98.99957275390625)"><g id="-1.cu_1_sy_147cr9565l4hz-stroke" fill="none" stroke-linecap="round" stroke-linejoin="round" stroke-miterlimit="4" stroke="#ffffff" stroke-width="2"><g><path d="M 165.986199 203.901093C 156.501099 217.734893 139.638899 230.028993 128.505899 236.689293C 127.200699 237.467793 125.875599 238.232893 124.532099 238.985993C 119.668399 241.712593 114.562999 244.284293 109.284699 246.780993L 118.718699 270.831493C 136.312299 262.651793 154.428199 251.702693 167.701799 237.136293C 176.487799 227.494593 178.106299 218.223493 178.106299 203.901093C 178.106299 189.578793 176.487799 180.307693 167.701799 170.665893C 175.801699 181.148093 173.055099 193.591293 165.986199 203.901093ZM 78.6817 133.42416C 58.3749 141.92516 36.0626 154.03626 20.4382 171.12706C 11.6237 180.76876 10 190.03996 10 204.36226C 10 218.68456 11.8554 227.95576 20.6699 237.59746C 12.3642 227.14336 15.0676 214.67206 22.1594 204.36226C 31.6752 190.52846 48.592 178.23436 59.7611 171.57406C 70.2362 165.34556 81.9897 159.98426 94.2736 154.61916C 100.3918 151.92196 105.7682 149.70756 109.8625 148.04486C 130.1694 139.54386 152.4817 127.43266 168.106 110.34196C 176.9206 100.70016 178.5443 91.42906 178.5443 77.10666C 178.5443 62.78436 176.9206 53.51326 168.106 43.87146C 176.2322 54.35366 173.4767 66.79686 166.3849 77.10666C 156.8691 90.94046 139.9523 103.23456 128.7832 109.89486C 118.3081 116.12336 106.5574 121.48416 94.2736 126.84926C 88.1553 129.54646 82.776 131.76136 78.6817 133.42416ZM 22.307892 76.930801C 31.793 63.097 48.739594 50.802902 59.872589 44.142601C 61.177796 43.364097 62.502899 42.598999 63.846375 41.845901C 68.710083 39.119301 73.815491 36.5476 79.093781 34.050903L 69.65979 10.000397C 52.066193 18.180099 33.950287 29.129196 20.676697 43.695595C 11.890686 53.337295 10.272187 62.608398 10.272187 76.930801C 10.272187 91.253097 11.890686 100.5242 20.676697 110.166C 12.576782 99.683792 15.238983 87.2406 22.307892 76.930801Z"></path></g></g></g><g id="g-root-tx_embracin_18efpbt6503d8-stroke" data-item-order="0" transform="translate(39, 39.00006103515625)"></g><g id="g-root-tx_customer_1lpw7p56501sb-stroke" data-item-order="0" transform="translate(15, 135.00006103515625)"></g><g id="g-root-hand_93zxmh65gydq-stroke" data-item-order="0" transform="translate(159, 135.00006103515625)"><g id="hand_93zxmh65gydq-stroke" fill="none" stroke-linecap="round" stroke-linejoin="round" stroke-miterlimit="4" stroke="#3cc583" stroke-width="2"><g><path d="M 20.908001 27.620001C 19.739769 22.631084 21.615746 17.421778 25.696476 14.323119C 29.777206 11.22446 35.298946 10.816385 39.790855 13.2815C 44.282768 15.746613 46.904148 20.62355 46.481998 25.73M 21.82 19.102001L 24.278 19.102001C 26.260609 19.251587 27.836411 20.827391 27.986 22.809999L 27.986 26.264C 27.986 26.775999 28.441999 27.218 28.944 27.618M 36.498001 12.024C 36.498001 12.024 34.334 13.728 33.542 14.337999C 32.206818 15.366749 31.946564 17.277655 32.958 18.625999L 34.82 21.110001C 35.402084 21.885067 36.314697 22.341372 37.284 22.341999L 39.084 22.341999C 39.901016 22.34128 40.684715 22.66584 41.262001 23.243999L 42.683998 24.664M 50.669998 48.217999L 40.686001 49.049999M 38.858002 36.43L 31.884001 38.736C 30.766323 39.103287 29.550863 38.574265 29.058001 37.506001C 28.525827 36.361473 28.996387 35.001095 30.122 34.43L 36.877998 31.030001C 38.041801 30.443649 39.396461 30.365454 40.619999 30.813999L 50.619999 34.472M 31.152 33.912003L 30.431999 33.312C 29.254356 32.449097 27.714605 32.255493 26.360001 32.799999L 17.41 36.379997M 11.376 32.956001L 15.4 32.956001C 16.463615 32.910805 17.363367 33.734535 17.412001 34.798L 17.412001 47.702C 17.363358 48.765755 16.463955 49.590057 15.4 49.546001L 11.376 49.546001M 56.624001 49.546001L 52.599998 49.546001C 51.536045 49.590057 50.636642 48.765755 50.588001 47.702L 50.588001 34.799999C 50.636631 33.736534 51.536385 32.912807 52.599998 32.958L 56.622002 32.958M 36.096001 38L 41.295998 45.138C 41.952049 46.038876 42.011395 47.243034 41.447113 48.204052C 40.882828 49.16507 39.802361 49.699963 38.695999 49.566002C 38.425995 51.00877 37.078117 51.990959 35.622002 51.806C 35.351105 53.248432 34.004227 54.230766 32.548 54.048C 32.331886 55.135815 31.494066 55.993546 30.411625 56.235146C 29.329185 56.476746 28.206161 56.056675 27.548 55.164001L 22.302 48.571999C 21.525995 47.586224 20.35574 46.991589 19.102001 46.945999L 17.41 46.886002M 32.556 54.043999L 31.152 52.32M 35.629997 51.801998L 34.428001 50.206001M 38.704002 49.562L 37.389999 47.776001"></path></g></g></g><g id="g-root-1_1lwrit5658g0f-stroke" data-item-order="0" transform="translate(423, 135.00006103515625)"><g id="1_1lwrit5658g0f-stroke" fill="none" stroke-linecap="round" stroke-linejoin="round" stroke-miterlimit="4" stroke="#92bd39" stroke-width="2"><g><path d="M 16 22L 20 19C 20 14.582 22.686001 11 26 11C 29.313999 11 32 14.582 32 19L 37 22M 21 22L 19 26M 31 22L 33 26M 23.5 17C 23.776142 17 24 17.223858 24 17.5M 23 17.5C 23 17.223858 23.223858 17 23.5 17M 23.5 18C 23.223858 18 23 17.776142 23 17.5M 24 17.5C 24 17.776142 23.776142 18 23.5 18M 28.5 17C 28.776142 17 29 17.223858 29 17.5M 28 17.5C 28 17.223858 28.223858 17 28.5 17M 28.5 18C 28.223858 18 28 17.776142 28 17.5M 29 17.5C 29 17.776142 28.776142 18 28.5 18M 46 44C 46 51.179703 40.179703 57.000004 33 57C 27 57 23 54 21 47C 18.957672 41.564323 18.609043 35.637638 20 30M 32.242001 30.886C 32.242001 30.886 36 32 37 29M 31.709999 41.91C 31.709999 41.91 35 43 36 40M 19.734001 31.16C 19.734001 31.16 16 32 15 29M 19.639999 41.877998C 19.639999 41.877998 16 43 15 40M 32 30C 34 37 32.372002 38.136002 31 45C 30 50 32.799999 52 35 52C 36.067966 52.023735 37.099228 51.609936 37.854584 50.854584C 38.609936 50.099232 39.023735 49.067966 39 48L 39 41C 39 37.13401 42.134007 34 46 34C 49.865993 34 53 37.13401 53 41L 53 45C 52.98159 49.964279 50.312176 54.540417 46 57"></path></g></g></g><g id="g-root-tx_respondi_9lp8965l62y-stroke" data-item-order="0" transform="translate(483, 135.00006103515625)"></g><g id="g-root-tx_workings_dl27ll65l4i1-stroke" data-item-order="0" transform="translate(63, 267.00006103515625)"></g><g id="g-root-two_v2z6yh65jr4e-stroke" data-item-order="0" transform="translate(159, 267.00006103515625)"><g id="two_v2z6yh65jr4e-stroke" fill="none" stroke-linecap="round" stroke-linejoin="round" stroke-miterlimit="4" stroke="#1eabda" stroke-width="2"><g><path d="M 11 23.007999L 51 23.007999M 17 18.507999L 17 18.507999M 17 18.507999C 16.723858 18.507999 16.5 18.731857 16.5 19.007999C 16.5 19.284142 16.723858 19.507999 17 19.507999C 17.276142 19.507999 17.5 19.284142 17.5 19.007999C 17.5 18.731857 17.276142 18.507999 17 18.507999M 21 18.507999L 21 18.507999M 21 18.507999C 20.723858 18.507999 20.5 18.731857 20.5 19.007999C 20.5 19.284142 20.723858 19.507999 21 19.507999C 21.276142 19.507999 21.5 19.284142 21.5 19.007999C 21.5 18.731857 21.276142 18.507999 21 18.507999M 25 18.507999L 25 18.507999M 25 18.507999C 24.723858 18.507999 24.5 18.731857 24.5 19.007999C 24.5 19.284142 24.723858 19.507999 25 19.507999C 25.276142 19.507999 25.5 19.284142 25.5 19.007999C 25.5 18.731857 25.276142 18.507999 25 18.507999M 15 15.007999L 47 15.007999C 47 15.007999 51 15.007999 51 19.007999L 51 41.007999C 51 41.007999 51 45.007999 47 45.007999L 15 45.007999C 15 45.007999 11 45.007999 11 41.007999L 11 19.007999C 11 19.007999 11 15.007999 15 15.007999M 51 31.007999L 57 31.007999M 51 23L 53 23C 55.209141 23 57 24.790861 57 27L 57 49C 57 51.209141 55.209141 53 53 53L 21 53C 18.790861 53 17 51.209141 17 49L 17 45"></path></g></g></g><g id="g-root-info_1czvh8965bb42-stroke" data-item-order="0" transform="translate(423, 267.00006103515625)"><g id="info_1czvh8965bb42-stroke" fill="none" stroke-linecap="round" stroke-linejoin="round" stroke-miterlimit="4" stroke="#7f64ea" stroke-width="2"><g><path d="M 27 34C 27 35.104568 27.89543 36 29 36L 33 36L 33 43L 40 36L 55 36C 56.104568 36 57 35.104568 57 34L 57 13C 57 11.895431 56.104568 11 55 11L 29 11C 27.89543 11 27 11.895431 27 13ZM 12.5 30.5C 12.5 32.985283 14.514719 35 17 35C 19.485281 35 21.5 32.985283 21.5 30.5C 21.5 28.014719 19.485281 26 17 26C 14.514719 26 12.5 28.014719 12.5 30.5M 17 37C 13.686292 37 11 39.686295 11 43L 11 47L 14 47L 15 57L 19 57L 20 47L 23 47L 23 43C 23 39.686295 20.313709 37 17 37ZM 42 30L 42 22M 41.5 17.5C 41.5 17.776142 41.723858 18 42 18C 42.276142 18 42.5 17.776142 42.5 17.5M 42 17C 41.723858 17 41.5 17.223858 41.5 17.5M 42.5 17.5C 42.5 17.223858 42.276142 17 42 17"></path></g></g></g><g id="g-root-tx_individu_qvw8vt65l62w-stroke" data-item-order="0" transform="translate(483, 267.00006103515625)"></g></g></g></svg>