<?xml version="1.0" encoding="utf-8" standalone="yes"?>
<!DOCTYPE svg PUBLIC "-//W3C//DTD SVG 1.1//EN" "http://www.w3.org/Graphics/SVG/1.1/DTD/svg11.dtd">
<svg width="963" height="734" viewBox="0 0 963 734" style="fill:none;stroke:none;fill-rule:evenodd;clip-rule:evenodd;stroke-linecap:round;stroke-linejoin:round;stroke-miterlimit:1.5;" version="1.1" xmlns="http://www.w3.org/2000/svg" xmlns:xlink="http://www.w3.org/1999/xlink"><style id="fontImports">@import url("https://fonts.googleapis.com/css2?family=Roboto:wght@400;700&amp;display=block");</style><g id="items" style="isolation: isolate"><g id="blend" style="mix-blend-mode: normal"><g id="g-root--1.line_sy_dkgp3v5lansw-fill" data-item-order="-357355" transform="translate(183, 195)"></g><g id="g-root-tx_implemen_4otouz5laoll-fill" data-item-order="0" transform="translate(291, 39)"><g id="tx_implemen_4otouz5laoll-fill" stroke="none" fill="#484848"><g><text style="font: bold 20px Roboto, sans-serif; white-space: pre;" font-weight="bold" font-size="20px" font-family="Roboto, sans-serif"><tspan x="16.51" y="34" dominant-baseline="ideographic">Implementing Scrum and Kanban</tspan></text></g></g></g><g id="g-root-tx_managefl_1lvihaz5v4phj-fill" data-item-order="0" transform="translate(735, 123)"><g id="tx_managefl_1lvihaz5v4phj-fill" stroke="none" fill="#484848"><g><text style="font: 20px Roboto, sans-serif; white-space: pre;" font-size="20px" font-family="Roboto, sans-serif"><tspan x="20.63" y="34" dominant-baseline="ideographic">Manage Flow</tspan></text></g></g></g><g id="g-root-mile_v5i1wb5lgbut-fill" data-item-order="0" transform="translate(879, 111)"></g><g id="g-root-tx_visualiz_qu0wm35v4n40-fill" data-item-order="0" transform="translate(663, 183)"><g id="tx_visualiz_qu0wm35v4n40-fill" stroke="none" fill="#484848"><g><text style="font: 20px Roboto, sans-serif; white-space: pre;" font-size="20px" font-family="Roboto, sans-serif"><tspan x="24.14" y="34" dominant-baseline="ideographic">Visualize </tspan><tspan x="20.45" y="58" dominant-baseline="ideographic">Workflow</tspan></text></g></g></g><g id="g-root-1_1ha3rbv5l7vnl-fill" data-item-order="0" transform="translate(771, 183)"></g><g id="g-root-tx_understa_v7yzh75v4nbi-fill" data-item-order="0" transform="translate(543, 255)"><g id="tx_understa_v7yzh75v4nbi-fill" stroke="none" fill="#484848"><g><text style="font: 20px Roboto, sans-serif; white-space: pre;" font-size="20px" font-family="Roboto, sans-serif"><tspan x="13.31" y="34" dominant-baseline="ideographic">Understand </tspan><tspan x="48.41" y="58" dominant-baseline="ideographic">Kanban</tspan></text></g></g></g><g id="g-root-boar_1q88r2z5lhrew-fill" data-item-order="0" transform="translate(663, 255)"></g><g id="g-root-tx_reviewan_7qcyj5v4n41-fill" data-item-order="0" transform="translate(411, 327)"><g id="tx_reviewan_7qcyj5v4n41-fill" stroke="none" fill="#484848"><g><text style="font: 20px Roboto, sans-serif; white-space: pre;" font-size="20px" font-family="Roboto, sans-serif"><tspan x="38.91" y="34" dominant-baseline="ideographic">Review and </tspan><tspan x="18.44" y="58" dominant-baseline="ideographic">Retrospective</tspan></text></g></g></g><g id="g-root-1_18mjoyj5v7guf-fill" data-item-order="0" transform="translate(555, 327)"></g><g id="g-root-tx_executes_18mjva35v4mwy-fill" data-item-order="0" transform="translate(291, 411)"><g id="tx_executes_18mjva35v4mwy-fill" stroke="none" fill="#484848"><g><text style="font: 20px Roboto, sans-serif; white-space: pre;" font-size="20px" font-family="Roboto, sans-serif"><tspan x="14.16" y="34" dominant-baseline="ideographic">Execute Sprints</tspan></text></g></g></g><g id="g-root-2_maggt75v0f7y-fill" data-item-order="0" transform="translate(447, 399)"></g><g id="g-root-tx_planspri_94mbdn5v4npn-fill" data-item-order="0" transform="translate(207, 483)"><g id="tx_planspri_94mbdn5v4npn-fill" stroke="none" fill="#484848"><g><text style="font: 20px Roboto, sans-serif; white-space: pre;" font-size="20px" font-family="Roboto, sans-serif"><tspan x="21.06" y="34" dominant-baseline="ideographic">Plan Sprints</tspan></text></g></g></g><g id="g-root-cale_18gb1975vbqpu-fill" data-item-order="0" transform="translate(339, 471)"></g><g id="g-root-tx_definesc_1hjftp75v4nik-fill" data-item-order="0" transform="translate(87, 543)"><g id="tx_definesc_1hjftp75v4nik-fill" stroke="none" fill="#484848"><g><text style="font: 20px Roboto, sans-serif; white-space: pre;" font-size="20px" font-family="Roboto, sans-serif"><tspan x="20.97" y="34" dominant-baseline="ideographic">Define Scrum </tspan><tspan x="90.52" y="58" dominant-baseline="ideographic">Roles</tspan></text></g></g></g><g id="g-root-assi_1cuvl7f5vir66-fill" data-item-order="0" transform="translate(231, 543)"></g><g id="g-root-tx_understa_m7c6jf5v62v9-fill" data-item-order="0" transform="translate(15, 615)"><g id="tx_understa_m7c6jf5v62v9-fill" stroke="none" fill="#484848"><g><text style="font: 20px Roboto, sans-serif; white-space: pre;" font-size="20px" font-family="Roboto, sans-serif"><tspan x="13.31" y="34" dominant-baseline="ideographic">Understand </tspan><tspan x="58.34" y="58" dominant-baseline="ideographic">Scrum</tspan></text></g></g></g><g id="g-root-scru_142zimz5v4pol-fill" data-item-order="0" transform="translate(123, 615)"></g><g id="g-root--1.line_sy_dkgp3v5lansw-stroke" data-item-order="-357355" transform="translate(183, 195)"><g id="-1.line_sy_dkgp3v5lansw-stroke" fill="none" stroke-linecap="round" stroke-linejoin="round" stroke-miterlimit="4" stroke="#969696" stroke-width="2"><g><path d="M 10 490L 10 466L 46 466L 46 442L 82 442L 82 418L 118 418L 118 394L 154 394L 154 370L 190 370L 190 346L 226 346L 226 322L 262 322L 262 298L 298 298L 298 274L 334 274L 334 250L 370 250L 370 226L 406 226L 406 202L 442 202L 442 178L 478 178L 478 154L 514 154L 514 130L 550 130L 550 106L 586 106L 586 82L 622 82L 622 58.5L 658 58.5L 658 34L 694 34L 694 10L 754.5 10"></path></g></g></g><g id="g-root-tx_implemen_4otouz5laoll-stroke" data-item-order="0" transform="translate(291, 39)"></g><g id="g-root-tx_managefl_1lvihaz5v4phj-stroke" data-item-order="0" transform="translate(735, 123)"></g><g id="g-root-mile_v5i1wb5lgbut-stroke" data-item-order="0" transform="translate(879, 111)"><g id="mile_v5i1wb5lgbut-stroke" fill="none" stroke-linecap="round" stroke-linejoin="round" stroke-miterlimit="4" stroke="#de58a9" stroke-width="2"><g><path d="M 11 47.212002L 17.852001 47.212002M 46.234001 47.212002L 57 47.212002M 25.68 47.212002L 38.403999 47.212002M 53.216 43.298L 57 47.212002L 53.216 51.127998M 17.852001 47.212002C 17.852001 49.373642 19.604359 51.125999 21.765999 51.125999C 23.927643 51.125999 25.68 49.373642 25.68 47.212002C 25.68 45.050358 23.927643 43.298 21.765999 43.298C 19.604359 43.298 17.852001 45.050358 17.852001 47.212002M 38.405998 47.212002C 38.405998 49.373642 40.158356 51.125999 42.32 51.125999C 44.481644 51.125999 46.234001 49.373642 46.234001 47.212002C 46.234001 45.050358 44.481644 43.298 42.32 43.298C 40.158356 43.298 38.405998 45.050358 38.405998 47.212002M 42.32 43.298L 42.32 17.852001M 21.765999 43.298L 21.765999 16.872M 21.765999 16.872L 33.510002 24.552L 21.765999 30.950001M 42.32 17.852001L 54.063999 25.529999L 42.32 31.93"></path></g></g></g><g id="g-root-tx_visualiz_qu0wm35v4n40-stroke" data-item-order="0" transform="translate(663, 183)"></g><g id="g-root-1_1ha3rbv5l7vnl-stroke" data-item-order="0" transform="translate(771, 183)"><g id="1_1ha3rbv5l7vnl-stroke" fill="none" stroke-linecap="round" stroke-linejoin="round" stroke-miterlimit="4" stroke="#e55753" stroke-width="2"><g><path d="M 23.392 18.144001L 12.492001 18.144001C 11.896 18.144001 11.5 17.748001 11.5 17.152L 11.5 13.188C 11.5 12.594 11.896 12.198 12.492001 12.198L 23.392 12.198C 23.987999 12.198 24.383999 12.594 24.383999 13.188L 24.383999 17.152C 24.383999 17.548 23.987999 18.144001 23.392 18.144001ZM 41.417999 24.09L 25.560001 24.09C 24.966 24.09 24.57 23.694 24.57 23.098L 24.57 19.133999C 24.57 18.540001 24.966 18.144001 25.560001 18.144001L 41.417999 18.144001C 42.012001 18.144001 42.408001 18.540001 42.408001 19.133999L 42.408001 23.1C 42.408001 23.498001 42.012001 24.091999 41.417999 24.091999ZM 55.509998 30.035999L 43.616001 30.035999C 43.021999 30.035999 42.625999 29.639999 42.625999 29.046L 42.625999 25.08C 42.625999 24.486 43.021999 24.09 43.616001 24.09L 55.509998 24.09C 56.104 24.09 56.5 24.486 56.5 25.08L 56.5 29.046C 56.5 29.441999 56.104 30.035999 55.509998 30.035999ZM 36.276001 39.945999L 16.455999 39.945999C 15.860001 39.945999 15.464001 39.549999 15.464001 38.956001L 15.464001 34.992001C 15.464001 34.396 15.860001 34 16.455999 34L 36.276001 34C 36.870003 34 37.267998 34.396 37.267998 34.989998L 37.267998 38.956001C 37.267998 39.351997 36.870003 39.945999 36.276001 39.945999ZM 55.292 45.891998L 38.444 45.891998C 37.849998 45.891998 37.454002 45.495998 37.454002 44.902L 37.454002 40.938C 37.454002 40.341999 37.849998 39.945999 38.444 39.945999L 55.292 39.945999C 55.886002 39.945999 56.284 40.341999 56.284 40.938L 56.284 44.902C 56.284 45.298 55.886002 45.891998 55.292 45.891998ZM 26.365999 55.801998L 16.455999 55.801998C 15.860001 55.801998 15.464001 55.405998 15.464001 54.812L 15.464001 50.848C 15.464001 50.251999 15.860001 49.855999 16.455999 49.855999L 26.365999 49.855999C 26.959999 49.855999 27.356001 50.251999 27.356001 50.848L 27.356001 54.812C 27.356001 55.208 26.959999 55.801998 26.365999 55.801998Z"></path></g></g></g><g id="g-root-tx_understa_v7yzh75v4nbi-stroke" data-item-order="0" transform="translate(543, 255)"></g><g id="g-root-boar_1q88r2z5lhrew-stroke" data-item-order="0" transform="translate(663, 255)"><g id="boar_1q88r2z5lhrew-stroke" fill="none" stroke-linecap="round" stroke-linejoin="round" stroke-miterlimit="4" stroke="#de8431" stroke-width="2"><g><path d="M 13.09 11.522L 30.08 11.522C 31.234274 11.522 32.169998 12.457725 32.169998 13.612L 32.169998 21.978001L 32.169998 21.978001L 11 21.978001L 11 21.978001L 11 13.614C 10.998895 12.458944 11.934943 11.521999 13.09 11.522ZM 11 28.388L 32.169998 28.388L 32.169998 47.206001L 11 47.206001ZM 25.114 17.012001C 25.113939 17.445034 25.464966 17.796108 25.897999 17.796108C 26.331034 17.796108 26.682058 17.445034 26.681999 17.011999C 26.682058 16.578966 26.331034 16.227892 25.897999 16.227892C 25.464966 16.227892 25.113939 16.578966 25.113998 17.011999M 16.487999 34.66L 26.944 34.66M 22.762001 40.931999L 26.944 40.931999M 41.318001 11.522L 54.917999 11.522C 56.069927 11.526409 57.00111 12.462061 56.999996 13.614L 57 21.978001L 57 21.978001L 39.228001 21.978001L 39.228001 21.978001L 39.228001 13.614C 39.226891 12.458944 40.162941 11.521999 41.318001 11.522ZM 39.228001 28.388L 57 28.388L 57 40.933998L 39.228001 40.933998ZM 49.944 17.012001C 49.943939 17.445034 50.294964 17.796108 50.727997 17.796108C 51.161034 17.796108 51.512058 17.445034 51.511997 17.011999C 51.512058 16.578966 51.161034 16.227892 50.727997 16.227892C 50.294964 16.227892 49.943939 16.578966 49.944 17.011999M 44.453999 34.66L 51.771999 34.66M 39.228001 47.206001L 57 47.206001L 57 56.478001L 39.228001 56.478001ZM 16.43 39.900002C 16.43 40.314217 16.765787 40.650002 17.18 40.650002C 17.594213 40.650002 17.93 40.314217 17.93 39.900002C 17.93 39.485786 17.594213 39.150002 17.18 39.150002C 16.765787 39.150002 16.43 39.485786 16.43 39.900002"></path></g></g></g><g id="g-root-tx_reviewan_7qcyj5v4n41-stroke" data-item-order="0" transform="translate(411, 327)"></g><g id="g-root-1_18mjoyj5v7guf-stroke" data-item-order="0" transform="translate(555, 327)"><g id="1_18mjoyj5v7guf-stroke" fill="none" stroke-linecap="round" stroke-linejoin="round" stroke-miterlimit="4" stroke="#e0cb15" stroke-width="2"><g><path d="M 14.282 42.495998C 14.282 45.533566 16.744434 47.996002 19.782001 47.996002C 22.819567 47.996002 25.282001 45.533566 25.282001 42.496002C 25.282001 39.458435 22.819567 36.996002 19.782001 36.996002C 16.744434 36.996002 14.282 39.458435 14.282 42.496002M 28.542 57C 27.616688 52.90662 23.979656 49.999977 19.783001 49.999977C 15.586342 49.999977 11.949311 52.90662 11.024 56.999996ZM 33.524002 39C 34.678299 33.895432 39.118507 30.203468 44.348 29.999998C 44.650002 29.988001 44.948002 29.988001 45.25 30C 50.816666 29.782644 55.746548 33.566452 56.976002 39ZM 37.25 19C 37.25 23.418278 40.831722 27 45.25 27C 49.668278 27 53.25 23.418278 53.25 19C 53.25 14.581722 49.668278 11 45.25 11C 40.831722 11 37.25 14.581722 37.25 19M 52.703999 17.934C 51.408463 18.647308 49.950863 19.014465 48.472004 19C 44.753796 19.007978 41.348892 16.918606 39.672001 13.6M 45.25 34L 45.25 37M 36.024002 57L 40.024002 57C 44.44228 57 48.023998 53.418278 48.023998 49L 48.023998 44M 43.023998 49L 48.023998 44L 53.023998 49M 15.024 31L 15.024 27C 15.024 22.581722 18.605722 19 23.024 19L 29.024 19M 24.024 24L 29.024 19L 24.024 14"></path></g></g></g><g id="g-root-tx_executes_18mjva35v4mwy-stroke" data-item-order="0" transform="translate(291, 411)"></g><g id="g-root-2_maggt75v0f7y-stroke" data-item-order="0" transform="translate(447, 399)"><g id="2_maggt75v0f7y-stroke" fill="none" stroke-linecap="round" stroke-linejoin="round" stroke-miterlimit="4" stroke="#92bd39" stroke-width="2"><g><path d="M 41.862 39.517998C 41.862 41.999969 43.874035 44.012001 46.355999 44.012001C 48.837967 44.012001 50.850002 41.999969 50.850002 39.518002C 50.850002 37.036034 48.837967 35.024002 46.355999 35.024002C 43.874035 35.024002 41.862 37.036034 41.862 39.518002M 54 52.273998C 53.212513 49.016087 50.448006 46.614399 47.112 46.290001M 56 53L 29 53M 47 53L 33 53L 31.27 45.216C 31.204535 44.920071 31.276814 44.61042 31.466526 44.374054C 31.65624 44.137688 31.942917 44.000118 32.246002 44L 43.400002 44C 44.337215 44.00016 45.148624 44.651115 45.352001 45.566002ZM 17.15 19.493999C 17.15 21.975967 19.162033 23.987999 21.644001 23.987999C 24.125969 23.987999 26.138 21.975967 26.138 19.493999C 26.138 17.012032 24.125969 15 21.644001 15C 19.162033 15 17.15 17.012032 17.15 19.493999M 20.888 26.266001C 17.551493 26.58923 14.786402 28.991423 14 32.25M 12 32.975998L 37 32.975998M 21 32.975998L 35 32.975998L 36.73 25.200001C 36.795464 24.904072 36.723186 24.594419 36.533474 24.358055C 36.343758 24.121689 36.057083 23.984119 35.753998 23.984001L 24.6 23.984001C 23.662785 23.984161 22.851376 24.635117 22.647999 25.549999ZM 28.25 28.476C 28.25 28.890215 28.585787 29.226 29 29.226C 29.414213 29.226 29.75 28.890215 29.75 28.476C 29.75 28.061787 29.414213 27.726 29 27.726C 28.585787 27.726 28.25 28.061787 28.25 28.476M 37.956001 48.5C 37.956001 48.914215 38.291786 49.25 38.706001 49.25C 39.120216 49.25 39.456001 48.914215 39.456001 48.5C 39.456001 48.085789 39.120216 47.75 38.706001 47.75C 38.291786 47.75 37.956001 48.085789 37.956001 48.5M 43.366001 36.172001C 45.076797 38.552814 47.934982 39.830673 50.850002 39.517998M 24.630001 16.147999C 22.919205 18.528814 20.06102 19.806671 17.146 19.493999"></path></g></g></g><g id="g-root-tx_planspri_94mbdn5v4npn-stroke" data-item-order="0" transform="translate(207, 483)"></g><g id="g-root-cale_18gb1975vbqpu-stroke" data-item-order="0" transform="translate(339, 471)"><g id="cale_18gb1975vbqpu-stroke" fill="none" stroke-linecap="round" stroke-linejoin="round" stroke-miterlimit="4" stroke="#3cc583" stroke-width="2"><g><path d="M 22 11L 22 21M 34 11L 34 21M 46 11L 46 21M 50 15L 54 15C 55.104568 15 56 15.895431 56 17L 56 55C 56 56.104568 55.104568 57 54 57L 14 57C 12.895431 57 12 56.104568 12 55L 12 17C 12 15.895431 12.895431 15 14 15L 17.938 15M 18 25L 18 50C 18 50.552284 18.447716 51 19 51L 49 51C 49.552284 51 50 50.552284 50 50L 50 25M 25.938 15L 34 15M 38 15L 46 15"></path></g></g></g><g id="g-root-tx_definesc_1hjftp75v4nik-stroke" data-item-order="0" transform="translate(87, 543)"></g><g id="g-root-assi_1cuvl7f5vir66-stroke" data-item-order="0" transform="translate(231, 543)"><g id="assi_1cuvl7f5vir66-stroke" fill="none" stroke-linecap="round" stroke-linejoin="round" stroke-miterlimit="4" stroke="#1eabda" stroke-width="2"><g><path d="M 28.632 45.396C 28.631388 48.361095 31.034903 50.76511 34 50.76511C 36.965096 50.76511 39.368614 48.361095 39.368 45.396C 39.368614 42.430901 36.965096 40.02689 34 40.02689C 31.034903 40.02689 28.631388 42.430901 28.632 45.396M 41.669998 56.900002C 40.158646 54.068169 37.2099 52.2995 34 52.2995C 30.7901 52.2995 27.841356 54.068169 26.33 56.900002M 44.212002 45.396C 44.211388 48.361095 46.614902 50.76511 49.579998 50.76511C 52.545097 50.76511 54.948612 48.361095 54.947998 45.396C 54.948612 42.430901 52.545097 40.02689 49.579998 40.02689C 46.614902 40.02689 44.211388 42.430901 44.211998 45.396M 57 56.138C 55.202232 53.59993 52.232258 52.156391 49.125824 52.310799C 46.01939 52.46521 43.207211 54.196159 41.669998 56.899998M 13.052 45.396C 13.051388 48.361095 15.454903 50.76511 18.42 50.76511C 21.385098 50.76511 23.788612 48.361095 23.788 45.396C 23.788612 42.430901 21.385098 40.02689 18.42 40.02689C 15.454903 40.02689 13.051388 42.430901 13.052 45.396M 11 56.138C 12.797768 53.59993 15.767741 52.156391 18.874174 52.310799C 21.980608 52.46521 24.792789 54.196159 26.33 56.899998M 55.743999 24.726L 45.344002 35.125999L 40.23 36.148003L 41.251999 31.035999L 51.652 20.636C 52.778206 19.510122 54.603798 19.510122 55.73 20.636L 55.742001 20.647999C 56.28392 21.188044 56.588692 21.92152 56.589069 22.686584C 56.589443 23.451651 56.285389 24.185425 55.743999 24.726ZM 47.414001 15.596001L 42.273998 11.1L 17.732 11.1L 17.732 34.108002M 23.868 21.836L 25.911999 23.882L 30.002001 19.792M 23.868 32.062L 25.911999 34.108002L 30.002001 30.016001M 35.115997 22.858L 38.183998 22.858M 42.273998 30.016001L 46.363998 34.108002M 14.268 42C 16.776192 44.495247 20.266575 45.74181 23.788 45.400002M 29.848 42C 32.356342 44.494999 35.846611 45.741524 39.367996 45.399998M 45.428001 42C 47.936962 44.495327 51.427975 45.741856 54.950001 45.400002"></path></g></g></g><g id="g-root-tx_understa_m7c6jf5v62v9-stroke" data-item-order="0" transform="translate(15, 615)"></g><g id="g-root-scru_142zimz5v4pol-stroke" data-item-order="0" transform="translate(123, 615)"><g id="scru_142zimz5v4pol-stroke" fill="none" stroke-linecap="round" stroke-linejoin="round" stroke-miterlimit="4" stroke="#4e88e7" stroke-width="2"><g><path d="M 11.512 53.933998L 56.487999 53.933998M 52.400002 50.866001L 56.487999 53.933998L 52.400002 57M 17.941999 42.158001C 17.941999 35.654034 23.214701 30.381632 29.718666 30.382C 36.222633 30.382368 41.494736 35.655365 41.493999 42.159332C 41.493263 48.6633 36.219963 53.935104 29.716 53.933998M 14.578 40.475998L 17.941999 43.84L 21.306 40.475998M 44.855999 21.091999C 44.855179 16.099609 41.204887 11.857751 36.268402 11.112699C 31.331921 10.367646 26.592316 13.343235 25.118114 18.113005C 23.643913 22.882774 25.878008 28.013739 30.374001 30.184M 47.737999 19.65L 44.855999 22.534L 41.972 19.65"></path></g></g></g></g></g></svg>