<?xml version="1.0" encoding="utf-8" standalone="yes"?>
<!DOCTYPE svg PUBLIC "-//W3C//DTD SVG 1.1//EN" "http://www.w3.org/Graphics/SVG/1.1/DTD/svg11.dtd">
<svg width="818" height="554" viewBox="0 0 818 554" style="fill:none;stroke:none;fill-rule:evenodd;clip-rule:evenodd;stroke-linecap:round;stroke-linejoin:round;stroke-miterlimit:1.5;" version="1.1" xmlns="http://www.w3.org/2000/svg" xmlns:xlink="http://www.w3.org/1999/xlink"><style id="fontImports">@import url("https://fonts.googleapis.com/css2?family=Roboto:wght@400;700&amp;display=block");</style><g id="items" style="isolation: isolate"><g id="blend" style="mix-blend-mode: normal"><g id="g-root--1.cu_sy_18itgj21p373eq-fill" data-item-order="-120954" transform="translate(218, 201)"><g id="-1.cu_sy_18itgj21p373eq-fill" stroke="none" fill="#a3a3a3"><g><path d="M 125 34L 101 10L 10 166L 34 190L 125 34ZM 125 34L 34 190L 216 190L 125 34Z"></path></g></g></g><g id="g-root-0.line-start_sy_zn6ga61p3747f-fill" data-item-order="-120949" transform="translate(177, 303)"></g><g id="g-root-5.line_sy_v7cy5q1p374zo-fill" data-item-order="-120943" transform="translate(287.5, 303)"></g><g id="g-root-4.line_sy_mccezy1p372ml-fill" data-item-order="-120937" transform="translate(287.5, 303)"></g><g id="g-root-3.line_sy_hwiwvi1p373eu-fill" data-item-order="-120931" transform="translate(288, 303)"></g><g id="g-root-2.line_sy_90vwmm1p3747j-fill" data-item-order="-120925" transform="translate(287.5, 219.5)"></g><g id="g-root-1.line_sy_dgper21p37474-fill" data-item-order="-120919" transform="translate(287.5, 135)"></g><g id="g-root-tx_unveilin_18k2xny1p2ype0-fill" data-item-order="0" transform="translate(123, 27)"><g id="tx_unveilin_18k2xny1p2ype0-fill" stroke="none" fill="#484848"><g><text style="font: bold 25px Roboto, sans-serif; white-space: pre;" font-weight="bold" font-size="25px" font-family="Roboto, sans-serif"><tspan x="13.54" y="43" dominant-baseline="ideographic">Unveiling Predictive Analytics Dimensions</tspan></text></g></g></g><g id="g-root-grow_1upb10u1p2yo01-fill" data-item-order="0" transform="translate(555, 111)"></g><g id="g-root-tx_markettr_1lvjg1a1p2ynt3-fill" data-item-order="0" transform="translate(615, 111)"><g id="tx_markettr_1lvjg1a1p2ynt3-fill" stroke="none" fill="#32444a"><g><text style="font: 20px Roboto, sans-serif; white-space: pre;" font-size="20px" font-family="Roboto, sans-serif"><tspan x="12" y="34" dominant-baseline="ideographic">Market Trend </tspan><tspan x="12" y="58" dominant-baseline="ideographic">Prediction</tspan></text></g></g></g><g id="g-root-tx_competit_1qaqh2m1p2yq6m-fill" data-item-order="0" transform="translate(615, 183)"><g id="tx_competit_1qaqh2m1p2yq6m-fill" stroke="none" fill="#374840"><g><text style="font: 20px Roboto, sans-serif; white-space: pre;" font-size="20px" font-family="Roboto, sans-serif"><tspan x="12" y="34" dominant-baseline="ideographic">Competitive </tspan><tspan x="12" y="58" dominant-baseline="ideographic">Analysis </tspan><tspan x="12" y="82" dominant-baseline="ideographic">Automation</tspan></text></g></g></g><g id="g-root-2_1lrsicu1p374ln-fill" data-item-order="0" transform="translate(555, 195)"></g><g id="g-root-tx_predicti_1hduini1p2ypky-fill" data-item-order="0" transform="translate(15, 279)"><g id="tx_predicti_1hduini1p2ypky-fill" stroke="none" fill="#484848"><g><text style="font: 20px Roboto, sans-serif; white-space: pre;" font-size="20px" font-family="Roboto, sans-serif"><tspan x="16.05" y="34" dominant-baseline="ideographic">Predictive </tspan><tspan x="22.55" y="58" dominant-baseline="ideographic">Analytics</tspan></text></g></g></g><g id="g-root-bar_4my0321p3cow3-fill" data-item-order="0" transform="translate(123, 279)"></g><g id="g-root-1_4l2ub21p2rn66-fill" data-item-order="0" transform="translate(555, 279)"></g><g id="g-root-tx_revenuef_4l2xgu1p2yost-fill" data-item-order="0" transform="translate(615, 279)"><g id="tx_revenuef_4l2xgu1p2yost-fill" stroke="none" fill="#424736"><g><text style="font: 20px Roboto, sans-serif; white-space: pre;" font-size="20px" font-family="Roboto, sans-serif"><tspan x="12" y="34" dominant-baseline="ideographic">Revenue </tspan><tspan x="12" y="58" dominant-baseline="ideographic">Forecasting</tspan></text></g></g></g><g id="g-root-netw_1uto6b21p32w3m-fill" data-item-order="0" transform="translate(555, 363)"></g><g id="g-root-tx_useradop_hwjfu61p2yn7w-fill" data-item-order="0" transform="translate(615, 363)"><g id="tx_useradop_hwjfu61p2yn7w-fill" stroke="none" fill="#46432d"><g><text style="font: 20px Roboto, sans-serif; white-space: pre;" font-size="20px" font-family="Roboto, sans-serif"><tspan x="12" y="34" dominant-baseline="ideographic">User Adoption </tspan><tspan x="12" y="58" dominant-baseline="ideographic">Modeling</tspan></text></g></g></g><g id="g-root-shie_1umsv721p3cp39-fill" data-item-order="0" transform="translate(555, 447)"></g><g id="g-root-tx_churnpre_1430hda1p2yo03-fill" data-item-order="0" transform="translate(615, 447)"><g id="tx_churnpre_1430hda1p2yo03-fill" stroke="none" fill="#4c4034"><g><text style="font: 20px Roboto, sans-serif; white-space: pre;" font-size="20px" font-family="Roboto, sans-serif"><tspan x="12" y="34" dominant-baseline="ideographic">Churn Prediction </tspan><tspan x="12" y="58" dominant-baseline="ideographic">and Prevention</tspan></text></g></g></g><g id="g-root--1.cu_sy_18itgj21p373eq-stroke" data-item-order="-120954" transform="translate(218, 201)"><g id="-1.cu_sy_18itgj21p373eq-stroke" fill="none" stroke-linecap="round" stroke-linejoin="round" stroke-miterlimit="4" stroke="#ffffff" stroke-width="2"><g><path d="M 125 34L 101 10L 10 166L 34 190L 125 34ZM 125 34L 34 190L 216 190L 125 34Z"></path></g></g></g><g id="g-root-0.line-start_sy_zn6ga61p3747f-stroke" data-item-order="-120949" transform="translate(177, 303)"><g id="0.line-start_sy_zn6ga61p3747f-stroke" fill="none" stroke-linecap="round" stroke-linejoin="round" stroke-miterlimit="4" stroke="#484848" stroke-width="2"><g><path d="M 10 10L 120.5 10"></path></g></g></g><g id="g-root-5.line_sy_v7cy5q1p374zo-stroke" data-item-order="-120943" transform="translate(287.5, 303)"><g id="5.line_sy_v7cy5q1p374zo-stroke" fill="none" stroke-linecap="round" stroke-linejoin="round" stroke-miterlimit="4" stroke="#de8431" stroke-width="2"><g><path d="M 258.08 176.59L 115 34L 10 10"></path><path d="M 249.2 177L 258.4 176.9L 258.4 167.7" stroke-dasharray="none"></path></g></g></g><g id="g-root-4.line_sy_mccezy1p372ml-stroke" data-item-order="-120937" transform="translate(287.5, 303)"><g id="4.line_sy_mccezy1p372ml-stroke" fill="none" stroke-linecap="round" stroke-linejoin="round" stroke-miterlimit="4" stroke="#e0cb15" stroke-width="2"><g><path d="M 257.7 93.64L 108 22L 10 10"></path><path d="M 249.5 96.9L 258.1 93.9L 255.1 85.2" stroke-dasharray="none"></path></g></g></g><g id="g-root-3.line_sy_hwiwvi1p373eu-stroke" data-item-order="-120931" transform="translate(288, 303)"><g id="3.line_sy_hwiwvi1p373eu-stroke" fill="none" stroke-linecap="round" stroke-linejoin="round" stroke-miterlimit="4" stroke="#92bd39" stroke-width="2"><g><path d="M 257 10L 100.5 10L 10 10"></path><path d="M 251 16.5L 257.5 10L 251 3.5" stroke-dasharray="none"></path></g></g></g><g id="g-root-2.line_sy_90vwmm1p3747j-stroke" data-item-order="-120925" transform="translate(287.5, 219.5)"><g id="2.line_sy_90vwmm1p3747j-stroke" fill="none" stroke-linecap="round" stroke-linejoin="round" stroke-miterlimit="4" stroke="#3cc583" stroke-width="2"><g><path d="M 257.66 10.790039L 94 81.500039L 10 93.500039"></path><path d="M 254.7 19.090039L 258.1 10.590039L 249.6 7.190039" stroke-dasharray="none"></path></g></g></g><g id="g-root-1.line_sy_dgper21p37474-stroke" data-item-order="-120919" transform="translate(287.5, 135)"><g id="1.line_sy_dgper21p37474-stroke" fill="none" stroke-linecap="round" stroke-linejoin="round" stroke-miterlimit="4" stroke="#1eabda" stroke-width="2"><g><path d="M 10 178.000029L 87 154.000029L 257.96 11.280029"></path><path d="M 257.5 20.080029L 258.3 10.980029L 249.2 10.180029" stroke-dasharray="none"></path></g></g></g><g id="g-root-tx_unveilin_18k2xny1p2ype0-stroke" data-item-order="0" transform="translate(123, 27)"></g><g id="g-root-grow_1upb10u1p2yo01-stroke" data-item-order="0" transform="translate(555, 111)"><g id="grow_1upb10u1p2yo01-stroke" fill="none" stroke-linecap="round" stroke-linejoin="round" stroke-miterlimit="4" stroke="#1eabda" stroke-width="2"><g><path d="M 33.040001 11.5L 39.040001 11.5L 39.040001 17.5M 39.040001 11.5L 28.66 22C 27.879925 22.775448 26.620075 22.775448 25.84 22L 22.16 18.220001C 21.379925 17.444553 20.120075 17.444553 19.34 18.220001L 11.04 26.5M 45.274822 21.572094L 48.788116 25.984165C 48.788116 25.984165 50.033962 27.548729 48.469398 28.794577L 36.531773 38.300404C 36.531773 38.300404 34.967209 39.546249 33.721359 37.981689L 30.208067 33.569618C 30.208067 33.569618 28.962219 32.005051 30.526781 30.759205L 42.464409 21.253378C 42.464409 21.253378 44.028973 20.00753 45.274822 21.572094M 48.52 25.66L 45.52 22L 48.880001 19.26C 49.515358 18.581139 50.483479 18.326324 51.370712 18.604431C 52.25795 18.882542 52.907391 19.644386 53.041553 20.564457C 53.17572 21.484531 52.770874 22.400108 52.000004 22.920002ZM 52.279999 19.540001L 55.720001 16.860001L 54.459999 15.3M 56.959999 18.42L 55.720001 16.860001M 16.040001 44.5L 29.040001 44.5M 20.040001 56.5L 50.040001 56.5M 45.16 31.42C 49.39933 36.10965 50.243393 42.953804 47.27047 48.532909C 44.297546 54.112015 38.145855 57.228363 31.888979 56.324928C 25.632103 55.42149 20.613251 50.692215 19.34 44.5M 40.440002 35.18C 43.044083 37.803528 43.77919 41.752556 42.293552 45.137375C 40.807915 48.522198 37.403679 50.654423 33.709854 50.513725C 30.016029 50.373028 26.783852 47.988026 25.560001 44.5"></path></g></g></g><g id="g-root-tx_markettr_1lvjg1a1p2ynt3-stroke" data-item-order="0" transform="translate(615, 111)"></g><g id="g-root-tx_competit_1qaqh2m1p2yq6m-stroke" data-item-order="0" transform="translate(615, 183)"></g><g id="g-root-2_1lrsicu1p374ln-stroke" data-item-order="0" transform="translate(555, 195)"><g id="2_1lrsicu1p374ln-stroke" fill="none" stroke-linecap="round" stroke-linejoin="round" stroke-miterlimit="4" stroke="#3cc583" stroke-width="2"><g><path d="M 35 33L 55 33C 56.104568 33 57 32.104568 57 31L 57 13C 57 11.895431 56.104568 11 55 11L 31 11C 29.89543 11 29 11.895431 29 13L 29 29M 43 33L 43 39M 49.007999 39L 37.007999 39M 13 34L 29 34C 29 34 31 34 31 36L 31 51.5C 31 51.5 31 53.5 29 53.5L 13 53.5C 13 53.5 11 53.5 11 51.5L 11 36C 11 36 11 34 13 34M 14 53.5L 14 57M 28 53.5L 28 57M 11 43L 31 43M 16.25 47.5C 16.664213 47.5 17 47.835789 17 48.25M 15.5 48.25C 15.5 47.835789 15.835787 47.5 16.25 47.5M 16.25 49C 15.835787 49 15.5 48.664215 15.5 48.25M 17 48.25C 17 48.664215 16.664213 49 16.25 49M 25.75 47.5C 26.164213 47.5 26.5 47.835789 26.5 48.25M 25 48.25C 25 47.835789 25.335787 47.5 25.75 47.5M 25.75 49C 25.335787 49 25 48.664215 25 48.25M 26.5 48.25C 26.5 48.664215 26.164213 49 25.75 49"></path></g></g></g><g id="g-root-tx_predicti_1hduini1p2ypky-stroke" data-item-order="0" transform="translate(15, 279)"></g><g id="g-root-bar_4my0321p3cow3-stroke" data-item-order="0" transform="translate(123, 279)"><g id="bar_4my0321p3cow3-stroke" fill="none" stroke-linecap="round" stroke-linejoin="round" stroke-miterlimit="4" stroke="#3a4455" stroke-width="2"><g><path d="M 11.008 57L 57.007999 57M 19 48C 19 47.447716 18.552284 47 18 47L 14 47C 13.447716 47 13 47.447716 13 48L 13 57L 19 57ZM 31 38C 31 37.447716 30.552284 37 30 37L 26 37C 25.447716 37 25 37.447716 25 38L 25 57L 31 57ZM 43 42C 43 41.447716 42.552284 41 42 41L 38 41C 37.447716 41 37 41.447716 37 42L 37 57L 43 57ZM 55 28C 55 27.447716 54.552284 27 54 27L 50 27C 49.447716 27 49 27.447716 49 28L 49 57L 55 57ZM 13.007999 33C 13.008 34.656853 14.351146 36 16.007999 36C 17.664854 36 19.007999 34.656853 19.007999 33C 19.007999 31.343147 17.664854 30 16.007999 30C 14.351146 30 13.008 31.343147 13.008 33ZM 25.007999 23C 25.007999 24.656855 26.351147 26 28.008001 26C 29.664854 26 31.008001 24.656855 31.008001 23C 31.008001 21.343147 29.664854 20 28.008001 20C 26.351147 20 25.007999 21.343147 25.007999 23ZM 37.007999 27C 37.008003 28.656855 38.351147 30 40.008003 30C 41.664856 30 43.007999 28.656855 43.007999 27C 43.007999 25.343147 41.664856 24 40.008003 24C 38.351147 24 37.008003 25.343147 37.008003 27ZM 49.007999 14C 49.007999 15.656855 50.351147 17 52.007999 17C 53.664856 17 55.007999 15.656855 55.007999 14C 55.007999 12.343145 53.664856 11 52.007999 11C 50.351147 11 49.007999 12.343145 49.007999 14ZM 18.529999 30.9L 25.704 24.92M 30.854 23.948L 37.162003 26.049999M 49.608002 15.8L 42.09 24.57"></path></g></g></g><g id="g-root-1_4l2ub21p2rn66-stroke" data-item-order="0" transform="translate(555, 279)"><g id="1_4l2ub21p2rn66-stroke" fill="none" stroke-linecap="round" stroke-linejoin="round" stroke-miterlimit="4" stroke="#92bd39" stroke-width="2"><g><path d="M 21.007999 11L 47.007999 11C 47.007999 11 52.007999 11 52.007999 16L 52.007999 52C 52.007999 52 52.007999 57 47.007999 57L 21.007999 57C 21.007999 57 16.007999 57 16.007999 52L 16.007999 16C 16.007999 16 16.007999 11 21.007999 11M 16.007999 41L 52.007999 41M 16.007999 27L 52.007999 27M 34.007999 27L 34.007999 57M 21.007999 35L 27.007999 35M 40.007999 35L 46.007999 35M 40.007999 51L 46.007999 51M 40.007999 47L 46.007999 47M 24.007999 32L 24.007999 38M 21.007999 46L 27.007999 52M 27.007999 46L 21.007999 52M 44.009998 21L 44.009998 17"></path></g></g></g><g id="g-root-tx_revenuef_4l2xgu1p2yost-stroke" data-item-order="0" transform="translate(615, 279)"></g><g id="g-root-netw_1uto6b21p32w3m-stroke" data-item-order="0" transform="translate(555, 363)"><g id="netw_1uto6b21p32w3m-stroke" fill="none" stroke-linecap="round" stroke-linejoin="round" stroke-miterlimit="4" stroke="#e0cb15" stroke-width="2"><g><path d="M 44 24.040001L 50.216 17.868M 49 15C 49 17.209139 50.790859 19 53 19C 55.209141 19 57 17.209139 57 15C 57 12.790861 55.209141 11 53 11C 50.790859 11 49 12.790861 49 15ZM 45.924 45.958L 50.153999 50.214001M 49.02 53C 49.02 55.209141 50.81086 57 53.02 57C 55.229137 57 57.02 55.209141 57.02 53C 57.02 50.790859 55.229137 49 53.02 49C 50.81086 49 49.02 50.790859 49.02 53ZM 24 24.040001L 17.785999 17.868M 11 15C 11 17.209139 12.790861 19 15 19C 17.209139 19 19 17.209139 19 15C 19 12.790861 17.209139 11 15 11C 12.790861 11 11 12.790861 11 15ZM 22.077999 45.958L 17.846001 50.214001M 10.98 53C 10.98 55.209141 12.770861 57 14.98 57C 17.189138 57 18.98 55.209141 18.98 53C 18.98 50.790859 17.189138 49 14.98 49C 12.770861 49 10.98 50.790859 10.98 53ZM 43 33L 49 33M 49 33C 49 35.209137 50.790859 37 53 37C 55.209141 37 57 35.209137 57 33C 57 30.790861 55.209141 29 53 29C 50.790859 29 49 30.790861 49 33ZM 25 33L 19 33M 11 33C 11 35.209137 12.790861 37 15 37C 17.209139 37 19 35.209137 19 33C 19 30.790861 17.209139 29 15 29C 12.790861 29 11 30.790861 11 33ZM 25.02 43C 25.02 38.029438 29.049437 34 34.02 34C 38.990562 34 43.02 38.029438 43.02 43ZM 28.52 26.5C 28.52 29.537567 30.982435 32 34.02 32C 37.057568 32 39.52 29.537567 39.52 26.5C 39.52 23.462435 37.057568 21 34.02 21C 30.982435 21 28.52 23.462435 28.52 26.5Z"></path></g></g></g><g id="g-root-tx_useradop_hwjfu61p2yn7w-stroke" data-item-order="0" transform="translate(615, 363)"></g><g id="g-root-shie_1umsv721p3cp39-stroke" data-item-order="0" transform="translate(555, 447)"><g id="shie_1umsv721p3cp39-stroke" fill="none" stroke-linecap="round" stroke-linejoin="round" stroke-miterlimit="4" stroke="#de8431" stroke-width="2"><g><path d="M 15 13C 15 11.895431 15.895431 11 17 11L 51 11C 52.104568 11 53 11.895431 53 13L 53 25.528C 52.999878 38.732285 45.684467 50.849682 34 57C 22.314255 50.851032 14.998331 38.732784 15 25.528ZM 26 21.996L 42 37.996002M 42 21.996L 26 37.996002"></path></g></g></g><g id="g-root-tx_churnpre_1430hda1p2yo03-stroke" data-item-order="0" transform="translate(615, 447)"></g></g></g></svg>