<?xml version="1.0" encoding="utf-8" standalone="yes"?>
<!DOCTYPE svg PUBLIC "-//W3C//DTD SVG 1.1//EN" "http://www.w3.org/Graphics/SVG/1.1/DTD/svg11.dtd">
<svg width="734" height="607" viewBox="0 0 734 607" style="fill:none;stroke:none;fill-rule:evenodd;clip-rule:evenodd;stroke-linecap:round;stroke-linejoin:round;stroke-miterlimit:1.5;" version="1.1" xmlns="http://www.w3.org/2000/svg" xmlns:xlink="http://www.w3.org/1999/xlink"><style class="text-font-style fontImports" data-font-family="Roboto">@import url('https://fonts.googleapis.com/css2?family=Roboto:wght@400;700&amp;display=block');</style><g id="items" style="isolation: isolate"><g id="blend" style="mix-blend-mode: normal"><g id="g-root-0.cu_sy_dfg4kh1541qmg-fill" data-item-order="-52002" transform="translate(295, 207)"><g id="0.cu_sy_dfg4kh1541qmg-fill" stroke="none" fill="#f5f5f5"><g><path d="M 54.78 334.78L 60.38 337.98L 61.98 333.18L 66 337.18L 70.02 333.18L 71.62 337.98L 77.22 334.78L 122 274L 94 286L 38 286L 10 274L 54.78 334.78ZM 94 226L 38 226L 10 238L 38 250L 94 250L 122 238L 94 226ZM 66 242.8C 54.95 242.8 46 240.65 46 238C 46 235.35 54.95 233.2 66 233.2C 77.05 233.2 86 235.35 86 238C 86 240.65 77.05 242.8 66 242.8ZM 94 154L 38 154L 10 166L 38 178L 94 178L 122 166L 94 154ZM 66 170.8C 54.95 170.8 46 168.65 46 166C 46 163.35 54.95 161.2 66 161.2C 77.05 161.2 86 163.35 86 166C 86 168.65 77.05 170.8 66 170.8ZM 94 82L 38 82L 10 94L 38 106L 94 106L 122 94L 94 82ZM 66 98.8C 54.95 98.8 46 96.65 46 94C 46 91.35 54.95 89.2 66 89.2C 77.05 89.2 86 91.35 86 94C 86 96.65 77.05 98.8 66 98.8ZM 94 10L 38 10L 10 22L 38 34L 94 34L 122 22L 94 10ZM 66 26.8C 54.95 26.8 46 24.65 46 22C 46 19.35 54.95 17.2 66 17.2C 77.05 17.2 86 19.35 86 22C 86 24.65 77.05 26.8 66 26.8Z"></path></g></g></g><g id="g-root-0.cu_1_sy_1lu9mw11541qfd-fill" data-item-order="-52000" transform="translate(295.000244140625, 115)"><g id="0.cu_1_sy_1lu9mw11541qfd-fill" stroke="none" fill="#f5f5f5"><g><path d="M 54.779785 426.780176L 60.379785 429.980176L 61.979785 425.180176L 65.999785 429.180176L 70.019785 425.180176L 71.619785 429.980176L 77.219785 426.780176L 65.999785 442.000176L 54.779785 426.780176ZM 65.999756 334.800195C 77.045456 334.800195 85.999756 332.651195 85.999756 330.000195C 85.999756 327.349195 77.045456 325.200195 65.999756 325.200195C 54.954056 325.200195 45.999756 327.349195 45.999756 330.000195C 45.999756 332.651195 54.954056 334.800195 65.999756 334.800195ZM 65.999756 262.800195C 77.045456 262.800195 85.999756 260.651195 85.999756 258.000195C 85.999756 255.349195 77.045456 253.200195 65.999756 253.200195C 54.954056 253.200195 45.999756 255.349195 45.999756 258.000195C 45.999756 260.651195 54.954056 262.800195 65.999756 262.800195ZM 65.999756 190.800195C 77.045456 190.800195 85.999756 188.651195 85.999756 186.000195C 85.999756 183.349195 77.045456 181.200195 65.999756 181.200195C 54.954056 181.200195 45.999756 183.349195 45.999756 186.000195C 45.999756 188.651195 54.954056 190.800195 65.999756 190.800195ZM 65.999756 118.800195C 77.045456 118.800195 85.999756 116.651195 85.999756 114.000195C 85.999756 111.349195 77.045456 109.200195 65.999756 109.200195C 54.954056 109.200195 45.999756 111.349195 45.999756 114.000195C 45.999756 116.651195 54.954056 118.800195 65.999756 118.800195ZM 10 34L 38 46L 94 46L 122 34L 122 42L 94 54L 38 54L 10 42L 10 34ZM 10 26L 38 38L 94 38L 122 26L 122 34L 94 46L 38 46L 10 34L 10 26ZM 10 26L 38 38L 94 38L 122 26L 122 10L 94 22L 38 22L 10 10L 10 26Z"></path></g></g></g><g id="g-root-5.cu_sy_1heg4rl1541r7m-fill" data-item-order="-51996" transform="translate(379, 435)"><g id="5.cu_sy_1heg4rl1541r7m-fill" stroke="none" fill="#faf0ff"><g><path d="M 10 58L 38 46L 38 10L 10 22L 10 58Z"></path></g></g></g><g id="g-root-5.cu_1_sy_143m3hd1541pmr-fill" data-item-order="-51994" transform="translate(323, 447)"><g id="5.cu_1_sy_143m3hd1541pmr-fill" stroke="none" fill="#faf0ff"><g><path d="M 66 10L 10 10L 10 46L 66 46L 66 10Z"></path></g></g></g><g id="g-root-5.cu_2_sy_v7z38h1541qfg-fill" data-item-order="-51992" transform="translate(295, 435)"><g id="5.cu_2_sy_v7z38h1541qfg-fill" stroke="none" fill="#faf0ff"><g><path d="M 38 22L 10 10L 10 46L 38 58L 38 22Z"></path></g></g></g><g id="g-root-4.cu_sy_hwikv51541s0d-fill" data-item-order="-51988" transform="translate(379, 363)"><g id="4.cu_sy_hwikv51541s0d-fill" stroke="none" fill="#f3f0ff"><g><path d="M 10 58L 38 46L 38 10L 10 22L 10 58Z"></path></g></g></g><g id="g-root-4.cu_1_sy_dhbjtt1541pmu-fill" data-item-order="-51986" transform="translate(323, 375)"><g id="4.cu_1_sy_dhbjtt1541pmu-fill" stroke="none" fill="#f3f0ff"><g><path d="M 66 10L 10 10L 10 46L 66 46L 66 10Z"></path></g></g></g><g id="g-root-4.cu_2_sy_5v1gh1541r7r-fill" data-item-order="-51984" transform="translate(295, 363)"><g id="4.cu_2_sy_5v1gh1541r7r-fill" stroke="none" fill="#f3f0ff"><g><path d="M 38 22L 10 10L 10 46L 38 58L 38 22Z"></path></g></g></g><g id="g-root-3.cu_sy_1lvil291541slk-fill" data-item-order="-51980" transform="translate(379, 291)"><g id="3.cu_sy_1lvil291541slk-fill" stroke="none" fill="#e8f9ff"><g><path d="M 10 58L 38 46L 38 10L 10 22L 10 58Z"></path></g></g></g><g id="g-root-3.cu_1_sy_18kojs11541r0p-fill" data-item-order="-51978" transform="translate(323, 303)"><g id="3.cu_1_sy_18kojs11541r0p-fill" stroke="none" fill="#e8f9ff"><g><path d="M 66 10L 10 10L 10 46L 66 46L 66 10Z"></path></g></g></g><g id="g-root-3.cu_2_sy_144v1nl1541rsy-fill" data-item-order="-51976" transform="translate(295, 291)"><g id="3.cu_2_sy_144v1nl1541rsy-fill" stroke="none" fill="#e8f9ff"><g><path d="M 38 22L 10 10L 10 46L 38 58L 38 22Z"></path></g></g></g><g id="g-root-2.cu_sy_qu10dd1541q83-fill" data-item-order="-51972" transform="translate(379, 219)"><g id="2.cu_sy_qu10dd1541q83-fill" stroke="none" fill="#f4ffdc"><g><path d="M 10 58L 38 46L 38 10L 10 22L 10 58Z"></path></g></g></g><g id="g-root-2.cu_1_sy_hye04h1541r0s-fill" data-item-order="-51970" transform="translate(323, 231)"><g id="2.cu_1_sy_hye04h1541r0s-fill" stroke="none" fill="#f4ffdc"><g><path d="M 66 10L 10 10L 10 46L 66 46L 66 10Z"></path></g></g></g><g id="g-root-2.cu_2_sy_4mxhr51541slp-fill" data-item-order="-51968" transform="translate(295, 219)"><g id="2.cu_2_sy_4mxhr51541slp-fill" stroke="none" fill="#f4ffdc"><g><path d="M 38 22L 10 10L 10 46L 38 58L 38 22Z"></path></g></g></g><g id="g-root-1.cu_sy_7qgpt1541q86-fill" data-item-order="-51964" transform="translate(379.000244140625, 147)"><g id="1.cu_sy_7qgpt1541q86-fill" stroke="none" fill="#e3fff2"><g><path d="M 10 58L 38 46L 38 10L 10 22L 10 58Z"></path></g></g></g><g id="g-root-1.cu_1_sy_1lxe0bl1541rlz-fill" data-item-order="-51962" transform="translate(323.000244140625, 159)"><g id="1.cu_1_sy_1lxe0bl1541rlz-fill" stroke="none" fill="#e3fff2"><g><path d="M 66 10L 10 10L 10 46L 66 46L 66 10Z"></path></g></g></g><g id="g-root-1.cu_2_sy_1hhki751541se8-fill" data-item-order="-51960" transform="translate(295.000244140625, 147)"><g id="1.cu_2_sy_1hhki751541se8-fill" stroke="none" fill="#e3fff2"><g><path d="M 38 22L 10 10L 10 46L 38 58L 38 22Z"></path></g></g></g><g id="g-root-1.cu_3_sy_146qgwx1541qtd-fill" data-item-order="-51958" transform="translate(295.0000305175781, 87)"><g id="1.cu_3_sy_146qgwx1541qtd-fill" stroke="none" fill="#e3fff2"><g><path d="M 38.000169 50L 94.000169 50L 121.999969 38C 121.999969 38 122.529969 10 66.000169 10C 9.470169 10 10.000169 38 10.000169 38L 38.000169 50Z"></path></g></g></g><g id="g-root-assi_1usepsx1541qfh-fill" data-item-order="0" transform="translate(219, 285)"></g><g id="g-root-tx_sprintpl_8wi90h15434en-fill" data-item-order="0" transform="translate(63, 297)"><g id="tx_sprintpl_8wi90h15434en-fill" stroke="none" fill="#484848"><g><text style="font: bold 20px Roboto, sans-serif; white-space: pre;" font-weight="bold" font-size="20px" font-family="Roboto, sans-serif"><tspan x="13.63" y="34" dominant-baseline="ideographic">Sprint Planning</tspan></text></g></g></g><g id="g-root-tx_illustra_1q6caht15436ko-fill" data-item-order="0" transform="translate(495, 261)"><g id="tx_illustra_1q6caht15436ko-fill" stroke="none" fill="#484848"><g><text style="font: 15px Roboto, sans-serif; white-space: pre;" font-size="15px" font-family="Roboto, sans-serif"><tspan x="12" y="28" dominant-baseline="ideographic">Illustrates the foundational </tspan><tspan x="12" y="46" dominant-baseline="ideographic">values of Agile</tspan></text></g></g></g><g id="g-root-tx_focuseso_m7caap15435zi-fill" data-item-order="0" transform="translate(27, 333)"><g id="tx_focuseso_m7caap15435zi-fill" stroke="none" fill="#484848"><g><text style="font: 15px Roboto, sans-serif; white-space: pre;" font-size="15px" font-family="Roboto, sans-serif"><tspan x="21.69" y="28" dominant-baseline="ideographic">Focuses on planning and </tspan><tspan x="77.33" y="46" dominant-baseline="ideographic">prioritizing tasks</tspan></text></g></g></g><g id="g-root-tx_corevalu_18for3515435s1-fill" data-item-order="0" transform="translate(495, 225)"><g id="tx_corevalu_18for3515435s1-fill" stroke="none" fill="#484848"><g><text style="font: bold 20px Roboto, sans-serif; white-space: pre;" font-weight="bold" font-size="20px" font-family="Roboto, sans-serif"><tspan x="12" y="34" dominant-baseline="ideographic">Core Values</tspan></text></g></g></g><g id="g-root-mana_mcyn8h153p53b-fill" data-item-order="0" transform="translate(435, 357)"></g><g id="g-root-sett_1hitpup153xjic-fill" data-item-order="0" transform="translate(435, 213)"></g><g id="g-root-tx_represen_v4upsx1543476-fill" data-item-order="0" transform="translate(51, 189)"><g id="tx_represen_v4upsx1543476-fill" stroke="none" fill="#484848"><g><text style="font: 15px Roboto, sans-serif; white-space: pre;" font-size="15px" font-family="Roboto, sans-serif"><tspan x="50.95" y="31" dominant-baseline="ideographic">Represents team </tspan><tspan x="16.06" y="49" dominant-baseline="ideographic">collaboration and task </tspan><tspan x="75.56" y="67" dominant-baseline="ideographic">management</tspan></text></g></g></g><g id="g-root-tx_iterativ_zisso115434el-fill" data-item-order="0" transform="translate(495, 369)"><g id="tx_iterativ_zisso115434el-fill" stroke="none" fill="#484848"><g><text style="font: bold 20px Roboto, sans-serif; white-space: pre;" font-weight="bold" font-size="20px" font-family="Roboto, sans-serif"><tspan x="12" y="34" dominant-baseline="ideographic">Iterative Development</tspan></text></g></g></g><g id="g-root-tx_software_8zew11541seb-fill" data-item-order="0" transform="translate(75, 417)"><g id="tx_software_8zew11541seb-fill" stroke="none" fill="#484848"><g><text style="font: bold 20px Roboto, sans-serif; white-space: pre;" font-weight="bold" font-size="20px" font-family="Roboto, sans-serif"><tspan x="59.14" y="34" dominant-baseline="ideographic">Software </tspan><tspan x="21.58" y="58" dominant-baseline="ideographic">Development</tspan></text></g></g></g><g id="g-root-tx_depictst_1d3mfc11541rf0-fill" data-item-order="0" transform="translate(495, 405)"><g id="tx_depictst_1d3mfc11541rf0-fill" stroke="none" fill="#484848"><g><text style="font: 15px Roboto, sans-serif; white-space: pre;" font-size="15px" font-family="Roboto, sans-serif"><tspan x="12" y="28" dominant-baseline="ideographic">Depicts the process of </tspan><tspan x="12" y="46" dominant-baseline="ideographic">incremental development</tspan></text></g></g></g><g id="g-root-code_1uo17vl15434ss-fill" data-item-order="0" transform="translate(219, 429)"></g><g id="g-root-5_1qd7v3515434sr-fill" data-item-order="0" transform="translate(219, 141)"></g><g id="g-root-tx_agilewor_8xr76p15436kr-fill" data-item-order="0" transform="translate(63, 153)"><g id="tx_agilewor_8xr76p15436kr-fill" stroke="none" fill="#484848"><g><text style="font: bold 20px Roboto, sans-serif; white-space: pre;" font-weight="bold" font-size="20px" font-family="Roboto, sans-serif"><tspan x="16.05" y="34" dominant-baseline="ideographic">Agile Workflow</tspan></text></g></g></g><g id="g-root-tx_highligh_i09fdt1541q16-fill" data-item-order="0" transform="translate(15, 477)"><g id="tx_highligh_i09fdt1541q16-fill" stroke="none" fill="#484848"><g><text style="font: 15px Roboto, sans-serif; white-space: pre;" font-size="15px" font-family="Roboto, sans-serif"><tspan x="14.45" y="28" dominant-baseline="ideographic">Highlights Agile practices in </tspan><tspan x="76.56" y="46" dominant-baseline="ideographic">coding and testing</tspan></text></g></g></g><g id="g-root-tx_visualiz_djtvz5153yxaa-fill" data-item-order="0" transform="translate(225, 39)"><g id="tx_visualiz_djtvz5153yxaa-fill" stroke="none" fill="#484848"><g><text style="font: 20px Roboto, sans-serif; white-space: pre;" font-size="20px" font-family="Roboto, sans-serif"><tspan x="16.59" y="34" dominant-baseline="ideographic">Visualizing Agile Principles</tspan></text></g></g></g><g id="g-root-0.cu_sy_dfg4kh1541qmg-stroke" data-item-order="-52002" transform="translate(295, 207)"><g id="0.cu_sy_dfg4kh1541qmg-stroke" fill="none" stroke-linecap="round" stroke-linejoin="round" stroke-miterlimit="4" stroke="#969696" stroke-width="2"><g><path d="M 54.78 334.78L 60.38 337.98L 61.98 333.18L 66 337.18L 70.02 333.18L 71.62 337.98L 77.22 334.78L 122 274L 94 286L 38 286L 10 274L 54.78 334.78ZM 94 226L 38 226L 10 238L 38 250L 94 250L 122 238L 94 226ZM 66 242.8C 54.95 242.8 46 240.65 46 238C 46 235.35 54.95 233.2 66 233.2C 77.05 233.2 86 235.35 86 238C 86 240.65 77.05 242.8 66 242.8ZM 94 154L 38 154L 10 166L 38 178L 94 178L 122 166L 94 154ZM 66 170.8C 54.95 170.8 46 168.65 46 166C 46 163.35 54.95 161.2 66 161.2C 77.05 161.2 86 163.35 86 166C 86 168.65 77.05 170.8 66 170.8ZM 94 82L 38 82L 10 94L 38 106L 94 106L 122 94L 94 82ZM 66 98.8C 54.95 98.8 46 96.65 46 94C 46 91.35 54.95 89.2 66 89.2C 77.05 89.2 86 91.35 86 94C 86 96.65 77.05 98.8 66 98.8ZM 94 10L 38 10L 10 22L 38 34L 94 34L 122 22L 94 10ZM 66 26.8C 54.95 26.8 46 24.65 46 22C 46 19.35 54.95 17.2 66 17.2C 77.05 17.2 86 19.35 86 22C 86 24.65 77.05 26.8 66 26.8Z"></path></g></g></g><g id="g-root-0.cu_1_sy_1lu9mw11541qfd-stroke" data-item-order="-52000" transform="translate(295.000244140625, 115)"><g id="0.cu_1_sy_1lu9mw11541qfd-stroke" fill="none" stroke-linecap="round" stroke-linejoin="round" stroke-miterlimit="4" stroke="#969696" stroke-width="2"><g><path d="M 54.779785 426.780176L 60.379785 429.980176L 61.979785 425.180176L 65.999785 429.180176L 70.019785 425.180176L 71.619785 429.980176L 77.219785 426.780176L 65.999785 442.000176L 54.779785 426.780176ZM 65.999756 334.800195C 77.045456 334.800195 85.999756 332.651195 85.999756 330.000195C 85.999756 327.349195 77.045456 325.200195 65.999756 325.200195C 54.954056 325.200195 45.999756 327.349195 45.999756 330.000195C 45.999756 332.651195 54.954056 334.800195 65.999756 334.800195ZM 65.999756 262.800195C 77.045456 262.800195 85.999756 260.651195 85.999756 258.000195C 85.999756 255.349195 77.045456 253.200195 65.999756 253.200195C 54.954056 253.200195 45.999756 255.349195 45.999756 258.000195C 45.999756 260.651195 54.954056 262.800195 65.999756 262.800195ZM 65.999756 190.800195C 77.045456 190.800195 85.999756 188.651195 85.999756 186.000195C 85.999756 183.349195 77.045456 181.200195 65.999756 181.200195C 54.954056 181.200195 45.999756 183.349195 45.999756 186.000195C 45.999756 188.651195 54.954056 190.800195 65.999756 190.800195ZM 65.999756 118.800195C 77.045456 118.800195 85.999756 116.651195 85.999756 114.000195C 85.999756 111.349195 77.045456 109.200195 65.999756 109.200195C 54.954056 109.200195 45.999756 111.349195 45.999756 114.000195C 45.999756 116.651195 54.954056 118.800195 65.999756 118.800195ZM 10 34L 38 46L 94 46L 122 34L 122 42L 94 54L 38 54L 10 42L 10 34ZM 10 26L 38 38L 94 38L 122 26L 122 34L 94 46L 38 46L 10 34L 10 26ZM 10 26L 38 38L 94 38L 122 26L 122 10L 94 22L 38 22L 10 10L 10 26Z"></path></g></g></g><g id="g-root-5.cu_sy_1heg4rl1541r7m-stroke" data-item-order="-51996" transform="translate(379, 435)"><g id="5.cu_sy_1heg4rl1541r7m-stroke" fill="none" stroke-linecap="round" stroke-linejoin="round" stroke-miterlimit="4" stroke="#ba5de5" stroke-width="2"><g><path d="M 10 58L 38 46L 38 10L 10 22L 10 58Z"></path></g></g></g><g id="g-root-5.cu_1_sy_143m3hd1541pmr-stroke" data-item-order="-51994" transform="translate(323, 447)"><g id="5.cu_1_sy_143m3hd1541pmr-stroke" fill="none" stroke-linecap="round" stroke-linejoin="round" stroke-miterlimit="4" stroke="#ba5de5" stroke-width="2"><g><path d="M 66 10L 10 10L 10 46L 66 46L 66 10Z"></path></g></g></g><g id="g-root-5.cu_2_sy_v7z38h1541qfg-stroke" data-item-order="-51992" transform="translate(295, 435)"><g id="5.cu_2_sy_v7z38h1541qfg-stroke" fill="none" stroke-linecap="round" stroke-linejoin="round" stroke-miterlimit="4" stroke="#ba5de5" stroke-width="2"><g><path d="M 38 22L 10 10L 10 46L 38 58L 38 22Z"></path></g></g></g><g id="g-root-4.cu_sy_hwikv51541s0d-stroke" data-item-order="-51988" transform="translate(379, 363)"><g id="4.cu_sy_hwikv51541s0d-stroke" fill="none" stroke-linecap="round" stroke-linejoin="round" stroke-miterlimit="4" stroke="#7f64ea" stroke-width="2"><g><path d="M 10 58L 38 46L 38 10L 10 22L 10 58Z"></path></g></g></g><g id="g-root-4.cu_1_sy_dhbjtt1541pmu-stroke" data-item-order="-51986" transform="translate(323, 375)"><g id="4.cu_1_sy_dhbjtt1541pmu-stroke" fill="none" stroke-linecap="round" stroke-linejoin="round" stroke-miterlimit="4" stroke="#7f64ea" stroke-width="2"><g><path d="M 66 10L 10 10L 10 46L 66 46L 66 10Z"></path></g></g></g><g id="g-root-4.cu_2_sy_5v1gh1541r7r-stroke" data-item-order="-51984" transform="translate(295, 363)"><g id="4.cu_2_sy_5v1gh1541r7r-stroke" fill="none" stroke-linecap="round" stroke-linejoin="round" stroke-miterlimit="4" stroke="#7f64ea" stroke-width="2"><g><path d="M 38 22L 10 10L 10 46L 38 58L 38 22Z"></path></g></g></g><g id="g-root-3.cu_sy_1lvil291541slk-stroke" data-item-order="-51980" transform="translate(379, 291)"><g id="3.cu_sy_1lvil291541slk-stroke" fill="none" stroke-linecap="round" stroke-linejoin="round" stroke-miterlimit="4" stroke="#1eabda" stroke-width="2"><g><path d="M 10 58L 38 46L 38 10L 10 22L 10 58Z"></path></g></g></g><g id="g-root-3.cu_1_sy_18kojs11541r0p-stroke" data-item-order="-51978" transform="translate(323, 303)"><g id="3.cu_1_sy_18kojs11541r0p-stroke" fill="none" stroke-linecap="round" stroke-linejoin="round" stroke-miterlimit="4" stroke="#1eabda" stroke-width="2"><g><path d="M 66 10L 10 10L 10 46L 66 46L 66 10Z"></path></g></g></g><g id="g-root-3.cu_2_sy_144v1nl1541rsy-stroke" data-item-order="-51976" transform="translate(295, 291)"><g id="3.cu_2_sy_144v1nl1541rsy-stroke" fill="none" stroke-linecap="round" stroke-linejoin="round" stroke-miterlimit="4" stroke="#1eabda" stroke-width="2"><g><path d="M 38 22L 10 10L 10 46L 38 58L 38 22Z"></path></g></g></g><g id="g-root-2.cu_sy_qu10dd1541q83-stroke" data-item-order="-51972" transform="translate(379, 219)"><g id="2.cu_sy_qu10dd1541q83-stroke" fill="none" stroke-linecap="round" stroke-linejoin="round" stroke-miterlimit="4" stroke="#92bd39" stroke-width="2"><g><path d="M 10 58L 38 46L 38 10L 10 22L 10 58Z"></path></g></g></g><g id="g-root-2.cu_1_sy_hye04h1541r0s-stroke" data-item-order="-51970" transform="translate(323, 231)"><g id="2.cu_1_sy_hye04h1541r0s-stroke" fill="none" stroke-linecap="round" stroke-linejoin="round" stroke-miterlimit="4" stroke="#92bd39" stroke-width="2"><g><path d="M 66 10L 10 10L 10 46L 66 46L 66 10Z"></path></g></g></g><g id="g-root-2.cu_2_sy_4mxhr51541slp-stroke" data-item-order="-51968" transform="translate(295, 219)"><g id="2.cu_2_sy_4mxhr51541slp-stroke" fill="none" stroke-linecap="round" stroke-linejoin="round" stroke-miterlimit="4" stroke="#92bd39" stroke-width="2"><g><path d="M 38 22L 10 10L 10 46L 38 58L 38 22Z"></path></g></g></g><g id="g-root-1.cu_sy_7qgpt1541q86-stroke" data-item-order="-51964" transform="translate(379.000244140625, 147)"><g id="1.cu_sy_7qgpt1541q86-stroke" fill="none" stroke-linecap="round" stroke-linejoin="round" stroke-miterlimit="4" stroke="#3cc583" stroke-width="2"><g><path d="M 10 58L 38 46L 38 10L 10 22L 10 58Z"></path></g></g></g><g id="g-root-1.cu_1_sy_1lxe0bl1541rlz-stroke" data-item-order="-51962" transform="translate(323.000244140625, 159)"><g id="1.cu_1_sy_1lxe0bl1541rlz-stroke" fill="none" stroke-linecap="round" stroke-linejoin="round" stroke-miterlimit="4" stroke="#3cc583" stroke-width="2"><g><path d="M 66 10L 10 10L 10 46L 66 46L 66 10Z"></path></g></g></g><g id="g-root-1.cu_2_sy_1hhki751541se8-stroke" data-item-order="-51960" transform="translate(295.000244140625, 147)"><g id="1.cu_2_sy_1hhki751541se8-stroke" fill="none" stroke-linecap="round" stroke-linejoin="round" stroke-miterlimit="4" stroke="#3cc583" stroke-width="2"><g><path d="M 38 22L 10 10L 10 46L 38 58L 38 22Z"></path></g></g></g><g id="g-root-1.cu_3_sy_146qgwx1541qtd-stroke" data-item-order="-51958" transform="translate(295.0000305175781, 87)"><g id="1.cu_3_sy_146qgwx1541qtd-stroke" fill="none" stroke-linecap="round" stroke-linejoin="round" stroke-miterlimit="4" stroke="#3cc583" stroke-width="2"><g><path d="M 38.000169 50L 94.000169 50L 122.000169 38C 122.000169 38 122.530169 10 66.000169 10C 9.470169 10 10.000169 38 10.000169 38L 38.000169 50Z"></path></g></g></g><g id="g-root-assi_1usepsx1541qfh-stroke" data-item-order="0" transform="translate(219, 285)"><g id="assi_1usepsx1541qfh-stroke" fill="none" stroke-linecap="round" stroke-linejoin="round" stroke-miterlimit="4" stroke="#1eabda" stroke-width="2"><g><path d="M 28.632 45.396C 28.631388 48.361095 31.034903 50.76511 34 50.76511C 36.965096 50.76511 39.368614 48.361095 39.368 45.396C 39.368614 42.430901 36.965096 40.02689 34 40.02689C 31.034903 40.02689 28.631388 42.430901 28.632 45.396M 41.669998 56.900002C 40.158646 54.068169 37.2099 52.2995 34 52.2995C 30.7901 52.2995 27.841356 54.068169 26.33 56.900002M 44.212002 45.396C 44.211388 48.361095 46.614902 50.76511 49.579998 50.76511C 52.545097 50.76511 54.948612 48.361095 54.947998 45.396C 54.948612 42.430901 52.545097 40.02689 49.579998 40.02689C 46.614902 40.02689 44.211388 42.430901 44.211998 45.396M 57 56.138C 55.202232 53.59993 52.232258 52.156391 49.125824 52.310799C 46.01939 52.46521 43.207211 54.196159 41.669998 56.899998M 13.052 45.396C 13.051388 48.361095 15.454903 50.76511 18.42 50.76511C 21.385098 50.76511 23.788612 48.361095 23.788 45.396C 23.788612 42.430901 21.385098 40.02689 18.42 40.02689C 15.454903 40.02689 13.051388 42.430901 13.052 45.396M 11 56.138C 12.797768 53.59993 15.767741 52.156391 18.874174 52.310799C 21.980608 52.46521 24.792789 54.196159 26.33 56.899998M 55.743999 24.726L 45.344002 35.125999L 40.23 36.148003L 41.251999 31.035999L 51.652 20.636C 52.778206 19.510122 54.603798 19.510122 55.73 20.636L 55.742001 20.647999C 56.28392 21.188044 56.588692 21.92152 56.589069 22.686584C 56.589443 23.451651 56.285389 24.185425 55.743999 24.726ZM 47.414001 15.596001L 42.273998 11.1L 17.732 11.1L 17.732 34.108002M 23.868 21.836L 25.911999 23.882L 30.002001 19.792M 23.868 32.062L 25.911999 34.108002L 30.002001 30.016001M 35.115997 22.858L 38.183998 22.858M 42.273998 30.016001L 46.363998 34.108002M 14.268 42C 16.776192 44.495247 20.266575 45.74181 23.788 45.400002M 29.848 42C 32.356342 44.494999 35.846611 45.741524 39.367996 45.399998M 45.428001 42C 47.936962 44.495327 51.427975 45.741856 54.950001 45.400002"></path></g></g></g><g id="g-root-tx_sprintpl_8wi90h15434en-stroke" data-item-order="0" transform="translate(63, 297)"></g><g id="g-root-tx_illustra_1q6caht15436ko-stroke" data-item-order="0" transform="translate(495, 261)"></g><g id="g-root-tx_focuseso_m7caap15435zi-stroke" data-item-order="0" transform="translate(27, 333)"></g><g id="g-root-tx_corevalu_18for3515435s1-stroke" data-item-order="0" transform="translate(495, 225)"></g><g id="g-root-mana_mcyn8h153p53b-stroke" data-item-order="0" transform="translate(435, 357)"><g id="mana_mcyn8h153p53b-stroke" fill="none" stroke-linecap="round" stroke-linejoin="round" stroke-miterlimit="4" stroke="#7f64ea" stroke-width="2"><g><path d="M 12 34L 16 34M 24 34L 34 34M 42 34L 56 34M 51.953999 30L 56 34L 51.953999 38M 16 34C 16 36.209137 17.790861 38 20 38C 22.209139 38 24 36.209137 24 34C 24 31.790861 22.209139 30 20 30C 17.790861 30 16 31.790861 16 34M 34 34C 34 36.209137 35.790863 38 38 38C 40.209137 38 42 36.209137 42 34C 42 31.790861 40.209137 30 38 30C 35.790863 30 34 31.790861 34 34M 38 30L 38 23M 20 45L 20 38M 32 11L 44 11C 44 11 46 11 46 13L 46 21C 46 21 46 23 44 23L 32 23C 32 23 30 23 30 21L 30 13C 30 13 30 11 32 11M 14 45L 26 45C 26 45 28 45 28 47L 28 55C 28 55 28 57 26 57L 14 57C 14 57 12 57 12 55L 12 47C 12 47 12 45 14 45"></path></g></g></g><g id="g-root-sett_1hitpup153xjic-stroke" data-item-order="0" transform="translate(435, 213)"><g id="sett_1hitpup153xjic-stroke" fill="none" stroke-linecap="round" stroke-linejoin="round" stroke-miterlimit="4" stroke="#92bd39" stroke-width="2"><g><path d="M 32 37C 32 38.104568 32.895432 39 34 39C 35.104568 39 36 38.104568 36 37C 36 35.895432 35.104568 35 34 35C 32.895432 35 32 35.895432 32 37ZM 35.697998 29.264L 36.288002 31.200001C 36.490089 31.867315 37.174461 32.26413 37.854 32.108002L 39.816002 31.652C 40.579586 31.48052 41.365868 31.826136 41.755825 32.504662C 42.145782 33.183189 42.048573 34.03656 41.515999 34.610001L 40.141998 36.091999C 39.66832 36.604668 39.66832 37.395332 40.141998 37.908001L 41.515999 39.389999C 42.048573 39.96344 42.145782 40.816811 41.755825 41.495338C 41.365868 42.173862 40.579586 42.519482 39.816002 42.348L 37.854 41.891998C 37.174461 41.73587 36.490089 42.132687 36.288002 42.799999L 35.697998 44.736C 35.4762 45.490139 34.784081 46.008015 33.998001 46.008015C 33.211922 46.008015 32.519798 45.490139 32.298 44.736L 31.708 42.799999C 31.505909 42.132687 30.821539 41.73587 30.142 41.891998L 28.18 42.348C 27.416416 42.519482 26.630133 42.173862 26.240175 41.495338C 25.850216 40.816811 25.947426 39.96344 26.48 39.389999L 27.854 37.908001C 28.327679 37.395332 28.327679 36.604668 27.854 36.092003L 26.48 34.610001C 25.947426 34.03656 25.850216 33.183189 26.240175 32.504662C 26.630133 31.826136 27.416416 31.48052 28.18 31.652L 30.142 32.108002C 30.821539 32.26413 31.505909 31.867315 31.708 31.200001L 32.298 29.264C 32.519798 28.509859 33.211922 27.991983 33.998001 27.991983C 34.784081 27.991983 35.4762 28.509859 35.697998 29.264ZM 30.5 14.5C 30.500002 16.432997 32.067005 18 34 18C 35.932999 18 37.5 16.432997 37.5 14.5C 37.5 12.567003 35.932999 11 34 11C 32.067005 11 30.500002 12.567003 30.500002 14.5ZM 41 25C 40.184052 21.800182 37.302212 19.560986 34 19.560986C 30.697788 19.560986 27.815947 21.800182 27 25M 46.5 46.5C 46.5 48.432999 48.067005 50 50 50C 51.932999 50 53.5 48.432999 53.5 46.5C 53.5 44.567005 51.932999 43 50 43C 48.067005 43 46.5 44.567005 46.5 46.5ZM 57 57C 56.184055 53.800182 53.302212 51.560986 50 51.560986C 46.697788 51.560986 43.815948 53.800182 43 57M 14.5 46.5C 14.5 48.432999 16.067003 50 18 50C 19.932997 50 21.5 48.432999 21.5 46.5C 21.5 44.567005 19.932997 43 18 43C 16.067003 43 14.5 44.567005 14.5 46.5ZM 25 57C 24.184053 53.800182 21.302212 51.560986 18 51.560986C 14.697788 51.560986 11.815947 53.800182 11 57M 40.099998 52C 36.14254 53.332817 31.85746 53.332817 27.9 52M 42.495998 17C 49.912167 20.715904 54.066589 28.807884 52.764 37M 15.236 37C 13.933422 28.806824 18.089802 20.714184 25.507999 17"></path></g></g></g><g id="g-root-tx_represen_v4upsx1543476-stroke" data-item-order="0" transform="translate(51, 189)"></g><g id="g-root-tx_iterativ_zisso115434el-stroke" data-item-order="0" transform="translate(495, 369)"></g><g id="g-root-tx_software_8zew11541seb-stroke" data-item-order="0" transform="translate(75, 417)"></g><g id="g-root-tx_depictst_1d3mfc11541rf0-stroke" data-item-order="0" transform="translate(495, 405)"></g><g id="g-root-code_1uo17vl15434ss-stroke" data-item-order="0" transform="translate(219, 429)"><g id="code_1uo17vl15434ss-stroke" fill="none" stroke-linecap="round" stroke-linejoin="round" stroke-miterlimit="4" stroke="#ba5de5" stroke-width="2"><g><path d="M 28.300039 18.17502L 28.300039 13.57502C 28.300039 12.37502 29.10004 11.575012 30.299999 11.575012L 49.5 11.575012C 49.900002 11.575012 50.5 11.775012 50.700001 11.975012L 55.5 15.975019C 55.900002 16.375019 56.299999 16.975019 56.299999 17.57502L 56.299999 42.575001C 56.299999 43.775002 55.5 44.575001 54.299999 44.575001L 39.299999 44.575001M 10 10M 36.299999 19.974979L 33.299999 22.974979L 36.299999 25.974979M 10 10M 48.299999 19.974979L 51.299999 22.974979L 48.299999 25.974979M 10 10M 40.299999 26.97504L 44.299999 17.97504M 37.099998 56.424999C 35.299999 51.224998 30.299999 47.424999 24.49996 47.424999C 18.699959 47.424999 13.49996 51.224998 11.699952 56.424999M 24.299999 29.42498L 24.299999 23.42498M 13.2998 35.224998L 35.299801 35.224998M 16.0998 37.424999C 16.299801 41.825001 19.899799 45.424999 24.299801 45.424999C 28.899799 45.424999 32.499802 41.825001 32.499802 37.224998L 32.499802 33.625C 32.499802 29.024981 28.899799 25.42498 24.299801 25.42498C 19.899799 25.42498 16.299801 29.024981 16.0998 33.424999L 16.0998 37.424999Z"></path></g></g></g><g id="g-root-5_1qd7v3515434sr-stroke" data-item-order="0" transform="translate(219, 141)"><g id="5_1qd7v3515434sr-stroke" fill="none" stroke-linecap="round" stroke-linejoin="round" stroke-miterlimit="4" stroke="#3cc583" stroke-width="2"><g><path d="M 36.5 19.5L 12.5 19.5C 11.9 19.5 11.5 19.1 11.5 18.5L 11.5 13.5C 11.5 12.9 11.9 12.5 12.5 12.5L 36.5 12.5C 37.099998 12.5 37.5 12.9 37.5 13.5L 37.5 18.5C 37.5 19.1 37.099998 19.5 36.5 19.5ZM 55.5 43.5L 22.5 43.5C 21.9 43.5 21.5 43.099998 21.5 42.5L 21.5 37.5C 21.5 36.900002 21.9 36.5 22.5 36.5L 55.5 36.5C 56.099998 36.5 56.5 36.900002 56.5 37.5L 56.5 42.5C 56.5 43.099998 56.099998 43.5 55.5 43.5ZM 55.5 55.5L 41.5 55.5C 40.900002 55.5 40.5 55.099998 40.5 54.5L 40.5 49.5C 40.5 48.900002 40.900002 48.5 41.5 48.5L 55.5 48.5C 56.099998 48.5 56.5 48.900002 56.5 49.5L 56.5 54.5C 56.5 55.099998 56.099998 55.5 55.5 55.5ZM 36.426003 32.732002L 32.318001 28.625999C 32.146553 28.462906 32.0495 28.236631 32.0495 28C 32.0495 27.763371 32.146553 27.537094 32.318001 27.374001L 36.424 23.268C 36.587097 23.096554 36.81337 22.9995 37.050003 22.9995C 37.286629 22.9995 37.512909 23.096554 37.676003 23.268002L 41.781998 27.374001C 41.953449 27.537094 42.050503 27.763371 42.050503 28C 42.050503 28.236631 41.953449 28.462906 41.782001 28.626001L 37.676003 32.732002C 37.496002 33.09 36.781998 33.09 36.426003 32.732002Z"></path></g></g></g><g id="g-root-tx_agilewor_8xr76p15436kr-stroke" data-item-order="0" transform="translate(63, 153)"></g><g id="g-root-tx_highligh_i09fdt1541q16-stroke" data-item-order="0" transform="translate(15, 477)"></g><g id="g-root-tx_visualiz_djtvz5153yxaa-stroke" data-item-order="0" transform="translate(225, 39)"></g></g></g></svg>