<?xml version="1.0" encoding="utf-8" standalone="yes"?>
<!DOCTYPE svg PUBLIC "-//W3C//DTD SVG 1.1//EN" "http://www.w3.org/Graphics/SVG/1.1/DTD/svg11.dtd">
<svg width="758" height="458" viewBox="0 0 758 458" style="fill:none;stroke:none;fill-rule:evenodd;clip-rule:evenodd;stroke-linecap:round;stroke-linejoin:round;stroke-miterlimit:1.5;" version="1.1" xmlns="http://www.w3.org/2000/svg" xmlns:xlink="http://www.w3.org/1999/xlink"><style id="fontImports">@import url("https://fonts.googleapis.com/css2?family=Roboto:wght@400;700&amp;display=block");</style><g id="items" style="isolation: isolate"><g id="blend" style="mix-blend-mode: normal"><g id="g-root--1.cu_sy_147dddl8n7ls4-fill" data-item-order="-110586" transform="translate(315, 111)"><g id="-1.cu_sy_147dddl8n7ls4-fill" stroke="none" fill="#a3a3a3"><g><path d="M 65.766602 298C 80.754802 298 106.000002 233.529 106.000002 154C 106.000002 74.471 80.754802 10 65.766602 10C 80.775202 10.0075 92.941702 74.6668 92.941702 154C 92.941702 233.333 80.775202 297.992 65.766602 298ZM 65.765897 298C 80.774597 297.992 92.941097 233.333 92.941097 154C 92.941097 74.6668 80.774597 10.0075 65.765897 10L 51.957397 10C 66.060697 15.1659 77.199297 77.8539 77.199297 154C 77.199297 230.146 65.382597 292.834 51.279297 298L 65.765897 298ZM 77.2 154C 77.2 230.146 65.3833 292.834 51.28 298L 50.0615 298C 35.0734 298 10 233.529 10 154C 10 74.471 35.0734 10 50.0615 10C 50.6991 10 51.9581 10 51.9581 10C 66.0614 15.1659 77.2 77.8539 77.2 154Z"></path></g></g></g><g id="g-root-0.cr-medium_cr_vbqd4p8n7mkt-fill" data-item-order="-110582" transform="translate(483, 219)"><g id="0.cr-medium_cr_vbqd4p8n7mkt-fill" stroke="none" fill="#666666"><g><path d="M 10 46C 10 65.882251 26.117749 82 46 82C 65.882251 82 82 65.882251 82 46C 82 26.117749 65.882251 10 46 10C 26.117749 10 10 26.117749 10 46"></path></g></g></g><g id="g-root-3.line_sy_qvwv098n7nd2-fill" data-item-order="-110575" transform="translate(231.10940551757812, 279)"></g><g id="g-root-3.cr-small_cr_i09urd8n7o5r-fill" data-item-order="-110574" transform="translate(171, 309)"><g id="3.cr-small_cr_i09urd8n7o5r-fill" stroke="none" fill="#92bd39"><g><path d="M 10 40C 10.000002 56.568544 23.431459 70.000002 40.000002 70.000002C 56.568544 70.000002 70.000002 56.568544 70.000002 40.000002C 70.000002 23.431459 56.568544 10.000002 40.000002 10.000002C 23.431459 10.000002 10.000002 23.431459 10.000002 40.000002"></path></g></g></g><g id="g-root-2.line_sy_dl2tq18n7ls8-fill" data-item-order="-110567" transform="translate(231, 255)"></g><g id="g-root-2.cr-small_cr_959bll8n7mkh-fill" data-item-order="-110566" transform="translate(171, 225)"><g id="2.cr-small_cr_959bll8n7mkh-fill" stroke="none" fill="#de8431"><g><path d="M 10 40C 10.000002 56.568544 23.431459 70.000002 40.000002 70.000002C 56.568544 70.000002 70.000002 56.568544 70.000002 40.000002C 70.000002 23.431459 56.568544 10.000002 40.000002 10.000002C 23.431459 10.000002 10.000002 23.431459 10.000002 40.000002"></path></g></g></g><g id="g-root-1.line_sy_9mbcp8n7nd6-fill" data-item-order="-110559" transform="translate(231, 171)"></g><g id="g-root-1.cr-small_cr_9mbcp8n7nd7-fill" data-item-order="-110558" transform="translate(171, 141)"><g id="1.cr-small_cr_9mbcp8n7nd7-fill" stroke="none" fill="#4e88e7"><g><path d="M 10 40C 10.000002 56.568544 23.431459 70.000002 40.000002 70.000002C 56.568544 70.000002 70.000002 56.568544 70.000002 40.000002C 70.000002 23.431459 56.568544 10.000002 40.000002 10.000002C 23.431459 10.000002 10.000002 23.431459 10.000002 40.000002"></path></g></g></g><g id="g-root-tx_unifieds_18k2l898nhibo-fill" data-item-order="0" transform="translate(261, 39)"><g id="tx_unifieds_18k2l898nhibo-fill" stroke="none" fill="#484848"><g><text style="font: 20px Roboto, sans-serif; white-space: pre;" font-size="20px" font-family="Roboto, sans-serif"><tspan x="16.57" y="34" dominant-baseline="ideographic">Unified Scrum Roles</tspan></text></g></g></g><g id="g-root-tx_scrummas_1lvj3ll8nhgqr-fill" data-item-order="0" transform="translate(27, 159)"><g id="tx_scrummas_1lvj3ll8nhgqr-fill" stroke="none" fill="#3a4455"><g><text style="font: 20px Roboto, sans-serif; white-space: pre;" font-size="20px" font-family="Roboto, sans-serif"><tspan x="14.84" y="34" dominant-baseline="ideographic">Scrum Master</tspan></text></g></g></g><g id="g-root-targ_18itn218nhg5j-fill" data-item-order="0" transform="translate(183, 153)"></g><g id="g-root-tx_producto_592wp8nhiiq-fill" data-item-order="0" transform="translate(15, 243)"><g id="tx_producto_592wp8nhiiq-fill" stroke="none" fill="#4c4034"><g><text style="font: 20px Roboto, sans-serif; white-space: pre;" font-size="20px" font-family="Roboto, sans-serif"><tspan x="19.97" y="34" dominant-baseline="ideographic">Product Owner</tspan></text></g></g></g><g id="g-root-assi_v3ma618nafif-fill" data-item-order="0" transform="translate(183, 237)"></g><g id="g-root-scru_v5hm9l8nep6w-fill" data-item-order="0" transform="translate(495, 231)"></g><g id="g-root-tx_effectiv_v7d4op8nhhqg-fill" data-item-order="0" transform="translate(567, 231)"><g id="tx_effectiv_v7d4op8nhhqg-fill" stroke="none" fill="#484848"><g><text style="font: 20px Roboto, sans-serif; white-space: pre;" font-size="20px" font-family="Roboto, sans-serif"><tspan x="12" y="34" dominant-baseline="ideographic">Effective Scrum </tspan><tspan x="12" y="58" dominant-baseline="ideographic">Team</tspan></text></g></g></g><g id="g-root-tx_developm_dgpla18nhgxt-fill" data-item-order="0" transform="translate(27, 315)"><g id="tx_developm_dgpla18nhgxt-fill" stroke="none" fill="#424736"><g><text style="font: 20px Roboto, sans-serif; white-space: pre;" font-size="20px" font-family="Roboto, sans-serif"><tspan x="23.08" y="34" dominant-baseline="ideographic">Development </tspan><tspan x="90.02" y="58" dominant-baseline="ideographic">Team</tspan></text></g></g></g><g id="g-root-arro_1hd7p4p8n0ky4-fill" data-item-order="0" transform="translate(183, 321)"></g><g id="g-root--1.cu_sy_147dddl8n7ls4-stroke" data-item-order="-110586" transform="translate(315, 111)"><g id="-1.cu_sy_147dddl8n7ls4-stroke" fill="none" stroke-linecap="round" stroke-linejoin="round" stroke-miterlimit="4" stroke="#ffffff" stroke-width="2"><g><path d="M 65.766602 298C 80.754802 298 106.000002 233.529 106.000002 154C 106.000002 74.471 80.754802 10 65.766602 10C 80.775202 10.0075 92.941702 74.6668 92.941702 154C 92.941702 233.3332 80.775202 297.9925 65.766602 298ZM 65.765897 298C 80.774597 297.9925 92.941097 233.3332 92.941097 154C 92.941097 74.6668 80.774597 10.0075 65.765897 10L 51.957397 10C 66.060697 15.1659 77.199297 77.8539 77.199297 154C 77.199297 230.1462 65.382597 292.8341 51.279297 298L 65.765897 298ZM 77.2 154C 77.2 230.1462 65.3833 292.8341 51.28 298L 50.0615 298C 35.0734 298 10 233.529 10 154C 10 74.471 35.0734 10 50.0615 10C 50.6991 10 51.9581 10 51.9581 10C 66.0614 15.1659 77.2 77.8539 77.2 154Z"></path></g></g></g><g id="g-root-0.cr-medium_cr_vbqd4p8n7mkt-stroke" data-item-order="-110582" transform="translate(483, 219)"><g id="0.cr-medium_cr_vbqd4p8n7mkt-stroke" fill="none" stroke-linecap="round" stroke-linejoin="round" stroke-miterlimit="4" stroke="#ffffff" stroke-width="2"><g><path d="M 10 46C 10 65.882251 26.117749 82 46 82C 65.882251 82 82 65.882251 82 46C 82 26.117749 65.882251 10 46 10C 26.117749 10 10 26.117749 10 46"></path></g></g></g><g id="g-root-3.line_sy_qvwv098n7nd2-stroke" data-item-order="-110575" transform="translate(231.10940551757812, 279)"><g id="3.line_sy_qvwv098n7nd2-stroke" fill="none" stroke-linecap="round" stroke-linejoin="round" stroke-miterlimit="4" stroke="#92bd39" stroke-width="2"><g><path d="M 254.080594 10.86L 129.890594 70L 10.000594 70"></path><path d="M 251.490594 19.3L 254.490594 10.6L 245.890594 7.6" stroke-dasharray="none"></path></g></g></g><g id="g-root-3.cr-small_cr_i09urd8n7o5r-stroke" data-item-order="-110574" transform="translate(171, 309)"><g id="3.cr-small_cr_i09urd8n7o5r-stroke" fill="none" stroke-linecap="round" stroke-linejoin="round" stroke-miterlimit="4" stroke="#ffffff" stroke-width="2"><g><path d="M 10 40C 10.000002 56.568544 23.431459 70.000002 40.000002 70.000002C 56.568544 70.000002 70.000002 56.568544 70.000002 40.000002C 70.000002 23.431459 56.568544 10.000002 40.000002 10.000002C 23.431459 10.000002 10.000002 23.431459 10.000002 40.000002"></path></g></g></g><g id="g-root-2.line_sy_dl2tq18n7ls8-stroke" data-item-order="-110567" transform="translate(231, 255)"><g id="2.line_sy_dl2tq18n7ls8-stroke" fill="none" stroke-linecap="round" stroke-linejoin="round" stroke-miterlimit="4" stroke="#de8431" stroke-width="2"><g><path d="M 248 10L 130 10L 10 10"></path><path d="M 242 16.5L 248.5 10L 242 3.5" stroke-dasharray="none"></path></g></g></g><g id="g-root-2.cr-small_cr_959bll8n7mkh-stroke" data-item-order="-110566" transform="translate(171, 225)"><g id="2.cr-small_cr_959bll8n7mkh-stroke" fill="none" stroke-linecap="round" stroke-linejoin="round" stroke-miterlimit="4" stroke="#ffffff" stroke-width="2"><g><path d="M 10 40C 10.000002 56.568544 23.431459 70.000002 40.000002 70.000002C 56.568544 70.000002 70.000002 56.568544 70.000002 40.000002C 70.000002 23.431459 56.568544 10.000002 40.000002 10.000002C 23.431459 10.000002 10.000002 23.431459 10.000002 40.000002"></path></g></g></g><g id="g-root-1.line_sy_9mbcp8n7nd6-stroke" data-item-order="-110559" transform="translate(231, 171)"><g id="1.line_sy_9mbcp8n7nd6-stroke" fill="none" stroke-linecap="round" stroke-linejoin="round" stroke-miterlimit="4" stroke="#4e88e7" stroke-width="2"><g><path d="M 254.19 69.14L 130 10L 10 10"></path><path d="M 246 72.4L 254.6 69.4L 251.6 60.7" stroke-dasharray="none"></path></g></g></g><g id="g-root-1.cr-small_cr_9mbcp8n7nd7-stroke" data-item-order="-110558" transform="translate(171, 141)"><g id="1.cr-small_cr_9mbcp8n7nd7-stroke" fill="none" stroke-linecap="round" stroke-linejoin="round" stroke-miterlimit="4" stroke="#ffffff" stroke-width="2"><g><path d="M 10 40C 10.000002 56.568544 23.431459 70.000002 40.000002 70.000002C 56.568544 70.000002 70.000002 56.568544 70.000002 40.000002C 70.000002 23.431459 56.568544 10.000002 40.000002 10.000002C 23.431459 10.000002 10.000002 23.431459 10.000002 40.000002"></path></g></g></g><g id="g-root-tx_unifieds_18k2l898nhibo-stroke" data-item-order="0" transform="translate(261, 39)"></g><g id="g-root-tx_scrummas_1lvj3ll8nhgqr-stroke" data-item-order="0" transform="translate(27, 159)"></g><g id="g-root-targ_18itn218nhg5j-stroke" data-item-order="0" transform="translate(183, 153)"><g id="targ_18itn218nhg5j-stroke" fill="none" stroke-linecap="round" stroke-linejoin="round" stroke-miterlimit="4" stroke="#ffffff" stroke-width="2"><g><path d="M 28 10.75L 28 16.0345M 10.75 28L 16.0345 28M 28 45.25L 28 39.9655M 45.25 28L 39.9655 28M 13.75 28C 13.75 35.87006 20.129942 42.25 28 42.25C 35.87006 42.25 42.25 35.87006 42.25 28C 42.25 20.129942 35.87006 13.75 28 13.75C 20.129942 13.75 13.75 20.129942 13.75 28M 35.850998 23.672501L 31 28.526501C 31.973953 31.011002 31.071791 33.838017 28.838717 35.29908C 26.605642 36.760151 23.653933 36.45467 21.767405 34.567253C 19.880875 32.679836 19.576782 29.727983 21.0389 27.495598C 22.501019 25.26321 25.328455 24.362377 27.8125 25.337502L 32.663502 20.485001L 35.887001 20.485001ZM 25.0945 30.581499C 25.09445 30.946043 25.389956 31.24159 25.754501 31.24159C 26.119043 31.24159 26.414551 30.946043 26.414499 30.581499C 26.414551 30.216957 26.119043 29.92141 25.754501 29.92141C 25.389956 29.92141 25.09445 30.216957 25.0945 30.581499"></path></g></g></g><g id="g-root-tx_producto_592wp8nhiiq-stroke" data-item-order="0" transform="translate(15, 243)"></g><g id="g-root-assi_v3ma618nafif-stroke" data-item-order="0" transform="translate(183, 237)"><g id="assi_v3ma618nafif-stroke" fill="none" stroke-linecap="round" stroke-linejoin="round" stroke-miterlimit="4" stroke="#ffffff" stroke-width="2"><g><path d="M 23.973999 36.547001C 23.973541 38.770821 25.776176 40.573833 28 40.573833C 30.223824 40.573833 32.026459 38.770821 32.026001 36.547001C 32.026459 34.323174 30.223824 32.520168 28 32.520168C 25.776176 32.520168 23.973541 34.323174 23.973999 36.547001M 33.752499 45.175003C 32.618984 43.051125 30.407427 41.724625 28 41.724625C 25.592575 41.724625 23.381018 43.051125 22.247499 45.175003M 35.659 36.547001C 35.658539 38.770821 37.461178 40.573833 39.684998 40.573833C 41.908821 40.573833 43.71146 38.770821 43.710999 36.547001C 43.71146 34.323174 41.908821 32.520168 39.684998 32.520168C 37.461178 32.520168 35.658539 34.323174 35.658997 36.547001M 45.25 44.6035C 43.901672 42.699947 41.674194 41.617294 39.344368 41.733101C 37.014542 41.848907 34.905407 43.147118 33.752499 45.174999M 12.289 36.547001C 12.288541 38.770821 14.091177 40.573833 16.315001 40.573833C 18.538822 40.573833 20.341459 38.770821 20.341 36.547001C 20.341459 34.323174 18.538822 32.520168 16.315001 32.520168C 14.091177 32.520168 12.288541 34.323174 12.289 36.547001M 10.75 44.6035C 12.098326 42.699947 14.325806 41.617294 16.65563 41.733101C 18.985456 41.848907 21.094591 43.147118 22.247499 45.174999M 44.307999 21.0445L 36.508003 28.8445L 32.672501 29.611L 33.438999 25.777L 41.238998 17.976999C 42.083656 17.132591 43.45285 17.132591 44.297501 17.976999L 44.306499 17.986C 44.71294 18.391033 44.941521 18.941139 44.941803 19.514938C 44.942081 20.088737 44.714043 20.639069 44.307999 21.0445ZM 38.060501 14.197001L 34.205498 10.825L 15.799 10.825L 15.799 28.080999M 20.401001 18.877001L 21.934 20.411499L 25.001501 17.344M 20.401001 26.546501L 21.934 28.080999L 25.001501 25.012001M 28.837 19.643499L 31.138 19.643499M 34.205498 25.012001L 37.272999 28.080999M 13.201 34C 15.082143 35.871437 17.699932 36.806358 20.341 36.550003M 24.886 34C 26.767258 35.87125 29.384956 36.806145 32.025997 36.549999M 36.570999 34C 38.452721 35.871494 41.07098 36.806393 43.712502 36.550003"></path></g></g></g><g id="g-root-scru_v5hm9l8nep6w-stroke" data-item-order="0" transform="translate(495, 231)"><g id="scru_v5hm9l8nep6w-stroke" fill="none" stroke-linecap="round" stroke-linejoin="round" stroke-miterlimit="4" stroke="#ffffff" stroke-width="2"><g><path d="M 11.512 53.933998L 56.487999 53.933998M 52.400002 50.866001L 56.487999 53.933998L 52.400002 57M 17.941999 42.158001C 17.941999 35.654034 23.214701 30.381632 29.718666 30.382C 36.222633 30.382368 41.494736 35.655365 41.493999 42.159332C 41.493263 48.6633 36.219963 53.935104 29.716 53.933998M 14.578 40.475998L 17.941999 43.84L 21.306 40.475998M 44.855999 21.091999C 44.855179 16.099609 41.204887 11.857751 36.268402 11.112699C 31.331921 10.367646 26.592316 13.343235 25.118114 18.113005C 23.643913 22.882774 25.878008 28.013739 30.374001 30.184M 47.737999 19.65L 44.855999 22.534L 41.972 19.65"></path></g></g></g><g id="g-root-tx_effectiv_v7d4op8nhhqg-stroke" data-item-order="0" transform="translate(567, 231)"></g><g id="g-root-tx_developm_dgpla18nhgxt-stroke" data-item-order="0" transform="translate(27, 315)"></g><g id="g-root-arro_1hd7p4p8n0ky4-stroke" data-item-order="0" transform="translate(183, 321)"><g id="arro_1hd7p4p8n0ky4-stroke" fill="none" stroke-linecap="round" stroke-linejoin="round" stroke-miterlimit="4" stroke="#ffffff" stroke-width="2"><g><path d="M 35.5495 35.5C 35.5495 37.225616 36.948387 38.6245 38.674 38.6245C 40.399612 38.6245 41.7985 37.225616 41.7985 35.5C 41.7985 33.774384 40.399612 32.3755 38.674 32.3755C 36.948387 32.3755 35.5495 33.774384 35.5495 35.5M 36.5905 44.875L 44.923 44.875C 44.424286 42.924339 43.043274 41.318459 41.18927 40.533302C 39.335266 39.748146 37.22097 39.873791 35.473 40.873001M 14.2015 35.5C 14.2015 37.225616 15.600387 38.6245 17.326 38.6245C 19.051613 38.6245 20.4505 37.225616 20.4505 35.5C 20.4505 33.774384 19.051613 32.3755 17.326 32.3755C 15.600387 32.3755 14.2015 33.774384 14.2015 35.5M 19.365999 44.875L 11.077 44.875C 11.573722 42.934029 12.944211 41.334095 14.785876 40.545189C 16.627541 39.756279 18.731241 39.867989 20.479 40.847504M 35.6185 44.875C 35.657108 42.120422 34.209671 39.558403 31.830364 38.169853C 29.451057 36.781296 26.50844 36.781296 24.129133 38.169853C 21.749826 39.558403 20.302391 42.120422 20.341 44.874996ZM 24.013 28.3465C 26.179377 30.591885 29.5096 31.261513 32.3755 30.028M 23.387501 30.6385C 23.387501 33.131241 25.408264 35.152 27.901001 35.152C 30.393738 35.152 32.414501 33.131241 32.414501 30.6385C 32.414501 28.145763 30.393738 26.125002 27.901001 26.125002C 25.408264 26.125002 23.387501 28.145763 23.387501 30.6385M 37.729 29.125C 37.729 29.125 33.229 24.625 33.229 20.875L 39.979 20.875L 27.979 11.125L 15.979 20.875L 22.729 20.875C 22.729 24.625 18.229 29.125 18.229 29.125"></path></g></g></g></g></g></svg>