<?xml version="1.0" encoding="utf-8" standalone="yes"?>
<!DOCTYPE svg PUBLIC "-//W3C//DTD SVG 1.1//EN" "http://www.w3.org/Graphics/SVG/1.1/DTD/svg11.dtd">
<svg width="836" height="758" viewBox="0 0 836 758" style="fill:none;stroke:none;fill-rule:evenodd;clip-rule:evenodd;stroke-linecap:round;stroke-linejoin:round;stroke-miterlimit:1.5;" version="1.1" xmlns="http://www.w3.org/2000/svg" xmlns:xlink="http://www.w3.org/1999/xlink"><style class="text-font-style fontImports" data-font-family="Roboto">@import url('https://fonts.googleapis.com/css2?family=Roboto:wght@400;700&amp;display=block');</style><g id="items" style="isolation: isolate"><g id="blend" style="mix-blend-mode: normal"><g id="g-root-0.cu_Subtract_sy_mgpkwh149t3wu-fill" data-item-order="-280790" transform="translate(353, 522.599609375)"><g id="0.cu_Subtract_sy_mgpkwh149t3wu-fill" stroke="none" fill="#666666"><g><path d="M 58 10.1851L 58 158.4C 58 169.43 49.03 178.4 38 178.4C 26.97 178.4 18 169.43 18 158.4C 18 156.19 16.21 154.4 14 154.4C 11.79 154.4 10 156.19 10 158.4C 10 173.84 22.56 186.4 38 186.4C 53.44 186.4 66 173.84 66 158.4L 66 10.1851C 64.6858 10.0655 63.3497 10 62 10C 60.6502 10 59.3142 10.0655 58 10.1851Z"></path></g></g></g><g id="g-root-0.Vector_sy_mgpkwh149t3wv-fill" data-item-order="-280787" transform="translate(225, 351)"></g><g id="g-root-5.cu_Vector_sy_i0w2s1149t4p4-fill" data-item-order="-280784" transform="translate(405, 387)"><g id="5.cu_Vector_sy_i0w2s1149t4p4-fill" stroke="none" fill="#de8431"><g><path d="M 96.4 154C 96.4 154 109.92 145.6 125.2 145.6C 140.48 145.6 154 154 154 154C 154 74.47 90.33 10 10 10C 10 10 96.4 36.09 96.4 154Z"></path></g></g></g><g id="g-root-5.Ellipse_sy_4pfkep149t6a1-fill" data-item-order="-280782" transform="translate(581, 539)"><g id="5.Ellipse_sy_4pfkep149t6a1-fill" stroke="none" fill="#de8431"><g><path d="M 10 14C 10 16.209139 11.790861 18 14 18C 16.209139 18 18 16.209139 18 14C 18 11.790861 16.209139 10 14 10C 11.790861 10 10 11.790861 10 14"></path></g></g></g><g id="g-root-5.cu_Vector_1_sy_8xzl149uigy-fill" data-item-order="-280780" transform="translate(597, 495)"><g id="5.cu_Vector_1_sy_8xzl149uigy-fill" stroke="none" fill="#de8431"><g><path d="M 70 106C 96.51 106 118 84.51 118 58C 118 31.49 96.51 10 70 10C 46.19 10 26.43 27.34 22.66 50.09L 10 58L 22.66 65.91C 26.43 88.65 46.19 106 70 106ZM 34 58C 34 38.12 50.12 22 70 22C 89.88 22 106 38.12 106 58C 106 77.88 89.88 94 70 94C 50.12 94 34 77.88 34 58Z"></path></g></g></g><g id="g-root-4.cu_Vector_sy_1q5pzpt149uj2j-fill" data-item-order="-280776" transform="translate(405, 387)"><g id="4.cu_Vector_sy_1q5pzpt149uj2j-fill" stroke="none" fill="#e0cb15"><g><path d="M 38.8 154C 38.8 154 52.32 145.6 67.6 145.6C 82.88 145.6 96.4 154 96.4 154C 96.4 36.09 10 10 10 10C 10 10 38.8 36.09 38.8 154Z"></path></g></g></g><g id="g-root-4.Ellipse_sy_1lpwhld149ujus-fill" data-item-order="-280774" transform="translate(540, 412)"><g id="4.Ellipse_sy_1lpwhld149ujus-fill" stroke="none" fill="#e0cb15"><g><path d="M 10 14C 10 16.209139 11.790861 18 14 18C 16.209139 18 18 16.209139 18 14C 18 11.790861 16.209139 10 14 10C 11.790861 10 10 11.790861 10 14"></path></g></g></g><g id="g-root-4.cu_Vector_1_sy_1cu9hch149uknh-fill" data-item-order="-280772" transform="translate(549, 315)"><g id="4.cu_Vector_1_sy_1cu9hch149uknh-fill" stroke="none" fill="#e0cb15"><g><path d="M 91.9333 91.9425C 110.683 73.1925 110.683 42.8025 91.9333 24.0625C 73.1933 5.3125 42.8033 5.3125 24.0533 24.0625C 7.2133 40.9025 5.5133 67.1325 18.9233 85.8825L 15.5633 100.4325L 30.1133 97.0725C 48.8633 110.482 75.0933 108.7825 91.9333 91.9425ZM 32.5433 83.4625C 18.4833 69.4025 18.4833 46.6125 32.5433 32.5525C 46.6033 18.4925 69.3933 18.4925 83.4533 32.5525C 97.5133 46.6125 97.5133 69.4025 83.4533 83.4625C 69.3933 97.5225 46.6033 97.5225 32.5433 83.4625Z"></path></g></g></g><g id="g-root-3.cu_Vector_sy_zjfg29149uj2m-fill" data-item-order="-280768" transform="translate(376.199951171875, 387)"><g id="3.cu_Vector_sy_zjfg29149uj2m-fill" stroke="none" fill="#92bd39"><g><path d="M 10 154C 10 36.09 38.8 10 38.8 10C 38.8 10 67.6 36.09 67.6 154C 67.6 154 54.08 145.6 38.8 145.6C 23.52 145.6 10 154 10 154Z"></path></g></g></g><g id="g-root-3.Ellipse_sy_m7yxox149uknj-fill" data-item-order="-280766" transform="translate(401, 347)"><g id="3.Ellipse_sy_m7yxox149uknj-fill" stroke="none" fill="#92bd39"><g><path d="M 10 14C 10 16.209139 11.790861 18 14 18C 16.209139 18 18 16.209139 18 14C 18 11.790861 16.209139 10 14 10C 11.790861 10 10 11.790861 10 14"></path></g></g></g><g id="g-root-3.cu_Vector_1_sy_dcyej5149uj28-fill" data-item-order="-280764" transform="translate(357, 231)"><g id="3.cu_Vector_1_sy_dcyej5149uj28-fill" stroke="none" fill="#92bd39"><g><path d="M 106 58C 106 31.49 84.51 10 58 10C 31.49 10 10 31.49 10 58C 10 81.81 27.34 101.57 50.09 105.34L 58 118L 65.91 105.34C 88.65 101.57 106 81.81 106 58ZM 58 94C 38.12 94 22 77.88 22 58C 22 38.12 38.12 22 58 22C 77.88 22 94 38.12 94 58C 94 77.88 77.88 94 58 94Z"></path></g></g></g><g id="g-root-2.cu_Vector_sy_4hbea9149ujux-fill" data-item-order="-280760" transform="translate(318.60009765625, 387)"><g id="2.cu_Vector_sy_4hbea9149ujux-fill" stroke="none" fill="#1eabda"><g><path d="M 67.6 154C 67.6 154 54.08 145.6 38.8 145.6C 23.52 145.6 10 154 10 154C 10 36.09 96.4 10 96.4 10C 96.4 10 67.6 36.09 67.6 154Z"></path></g></g></g><g id="g-root-2.Ellipse_sy_1hw5t149ukn6-fill" data-item-order="-280758" transform="translate(262, 412)"><g id="2.Ellipse_sy_1hw5t149ukn6-fill" stroke="none" fill="#1eabda"><g><path d="M 10 14C 10 16.209139 11.790861 18 14 18C 16.209139 18 18 16.209139 18 14C 18 11.790861 16.209139 10 14 10C 11.790861 10 10 11.790861 10 14"></path></g></g></g><g id="g-root-2.cu_Vector_1_sy_1lrrwup149uiv7-fill" data-item-order="-280756" transform="translate(165, 315)"><g id="2.cu_Vector_1_sy_1lrrwup149uiv7-fill" stroke="none" fill="#1eabda"><g><path d="M 85.8825 97.0725L 100.4325 100.4325L 97.0725 85.8825C 110.482 67.1325 108.7825 40.9025 91.9425 24.0625C 73.1925 5.3125 42.8025 5.3125 24.0625 24.0625C 5.3125 42.8125 5.3125 73.2025 24.0625 91.9425C 40.9025 108.7825 67.1325 110.482 85.8825 97.0725ZM 32.5425 83.4625C 18.4825 69.4025 18.4825 46.6125 32.5425 32.5525C 46.6025 18.4925 69.3925 18.4925 83.4525 32.5525C 97.5125 46.6125 97.5125 69.4025 83.4525 83.4625C 69.3925 97.5225 46.6025 97.5225 32.5425 83.4625Z"></path></g></g></g><g id="g-root-1.cu_Vector_sy_1cw4wlt149ujnw-fill" data-item-order="-280752" transform="translate(261, 387)"><g id="1.cu_Vector_sy_1cw4wlt149ujnw-fill" stroke="none" fill="#3cc583"><g><path d="M 67.6 154C 67.6 154 54.08 145.6 38.8 145.6C 23.52 145.6 10 154 10 154C 10 74.47 73.67 10 154 10C 154 10 67.6 36.09 67.6 154Z"></path></g></g></g><g id="g-root-1.Ellipse_sy_18gbehd149ukg5-fill" data-item-order="-280750" transform="translate(221, 539)"><g id="1.Ellipse_sy_18gbehd149ukg5-fill" stroke="none" fill="#3cc583"><g><path d="M 10 14C 10 16.209139 11.790861 18 14 18C 16.209139 18 18 16.209139 18 14C 18 11.790861 16.209139 10 14 10C 11.790861 10 10 11.790861 10 14"></path></g></g></g><g id="g-root-1.cu_Vector_1_sy_zlavbl149ui32-fill" data-item-order="-280748" transform="translate(105, 495)"><g id="1.cu_Vector_1_sy_zlavbl149ui32-fill" stroke="none" fill="#3cc583"><g><path d="M 105.34 65.91L 118 58L 105.34 50.09C 101.57 27.34 81.81 10 58 10C 31.49 10 10 31.49 10 58C 10 84.51 31.49 106 58 106C 81.81 106 101.57 88.66 105.34 65.91ZM 58 94C 38.12 94 22 77.88 22 58C 22 38.12 38.12 22 58 22C 77.88 22 94 38.12 94 58C 94 77.88 77.88 94 58 94Z"></path></g></g></g><g id="g-root-tx_teamcoll_v8lqmp149uk1t-fill" data-item-order="0" transform="translate(15, 351)"><g id="tx_teamcoll_v8lqmp149uk1t-fill" stroke="none" fill="#374840"><g><text style="font: bold 20px Roboto, sans-serif; white-space: pre;" font-weight="bold" font-size="20px" font-family="Roboto, sans-serif"><tspan x="50.83" y="34" dominant-baseline="ideographic">Team </tspan><tspan x="15.77" y="58" dominant-baseline="ideographic">Collaboration</tspan></text></g></g></g><g id="g-root-exch_1cymz9t149xdl6-fill" data-item-order="0" transform="translate(189, 339)"></g><g id="g-root-tx_iterativ_1hf2s5t149uk27-fill" data-item-order="0" transform="translate(117, 171)"><g id="tx_iterativ_1hf2s5t149uk27-fill" stroke="none" fill="#32444a"><g><text style="font: bold 20px Roboto, sans-serif; white-space: pre;" font-weight="bold" font-size="20px" font-family="Roboto, sans-serif"><tspan x="20.3" y="34" dominant-baseline="ideographic">Iterative </tspan><tspan x="16.73" y="58" dominant-baseline="ideographic">Progress</tspan></text></g></g></g><g id="g-root-tx_modernan_1q8ud5d149uk95-fill" data-item-order="0" transform="translate(669, 327)"><g id="tx_modernan_1q8ud5d149uk95-fill" stroke="none" fill="#4c4034"><g><text style="font: bold 20px Roboto, sans-serif; white-space: pre;" font-weight="bold" font-size="20px" font-family="Roboto, sans-serif"><tspan x="13.73" y="34" dominant-baseline="ideographic">Modern and </tspan><tspan x="41.97" y="58" dominant-baseline="ideographic">Clean </tspan><tspan x="24.63" y="82" dominant-baseline="ideographic">Aesthetic</tspan></text></g></g></g><g id="g-root-desi_4mba4x149yqdk-fill" data-item-order="0" transform="translate(573, 339)"></g><g id="g-root-2_mb3hg1149rrig-fill" data-item-order="0" transform="translate(381, 255)"></g><g id="g-root-tx_userfeed_9099u9149uk98-fill" data-item-order="0" transform="translate(333, 147)"><g id="tx_userfeed_9099u9149uk98-fill" stroke="none" fill="#424736"><g><text style="font: 15px Roboto, sans-serif; white-space: pre;" font-size="15px" font-family="Roboto, sans-serif"><tspan x="12.67" y="31" dominant-baseline="ideographic">User feedback loops </tspan><tspan x="25.52" y="49" dominant-baseline="ideographic">with satisfaction </tspan><tspan x="55.66" y="67" dominant-baseline="ideographic">metrics</tspan></text></g></g></g><g id="g-root-tx_iconssym_18i6tqp149ujgi-fill" data-item-order="0" transform="translate(579, 231)"><g id="tx_iconssym_18i6tqp149ujgi-fill" stroke="none" fill="#46432d"><g><text style="font: 15px Roboto, sans-serif; white-space: pre;" font-size="15px" font-family="Roboto, sans-serif"><tspan x="13.98" y="31" dominant-baseline="ideographic">Icons symbolizing </tspan><tspan x="21" y="49" dominant-baseline="ideographic">adaptability and </tspan><tspan x="30.55" y="67" dominant-baseline="ideographic">collaboration</tspan></text></g></g></g><g id="g-root-tx_diverset_18k2901149uigw-fill" data-item-order="0" transform="translate(21, 411)"><g id="tx_diverset_18k2901149uigw-fill" stroke="none" fill="#374840"><g><text style="font: 15px Roboto, sans-serif; white-space: pre;" font-size="15px" font-family="Roboto, sans-serif"><tspan x="24.48" y="28" dominant-baseline="ideographic">Diverse team </tspan><tspan x="21.65" y="46" dominant-baseline="ideographic">brainstorming </tspan><tspan x="16.55" y="64" dominant-baseline="ideographic">around a digital </tspan><tspan x="21.63" y="82" dominant-baseline="ideographic">Kanban board</tspan></text></g></g></g><g id="g-root-tx_visualiz_v5hd75149uivb-fill" data-item-order="0" transform="translate(261, 39)"><g id="tx_visualiz_v5hd75149uivb-fill" stroke="none" fill="#484848"><g><text style="font: bold 20px Roboto, sans-serif; white-space: pre;" font-weight="bold" font-size="20px" font-family="Roboto, sans-serif"><tspan x="17.19" y="34" dominant-baseline="ideographic">Visualizing Agile Methodology</tspan></text></g></g></g><g id="g-root-tx_designal_dettsh149ui2o-fill" data-item-order="0" transform="translate(657, 411)"><g id="tx_designal_dettsh149ui2o-fill" stroke="none" fill="#4c4034"><g><text style="font: 15px Roboto, sans-serif; white-space: pre;" font-size="15px" font-family="Roboto, sans-serif"><tspan x="13.51" y="31" dominant-baseline="ideographic">Design aligning with </tspan><tspan x="17.66" y="49" dominant-baseline="ideographic">contemporary tech </tspan><tspan x="45.91" y="67" dominant-baseline="ideographic">aesthetics</tspan></text></g></g></g><g id="g-root-tx_mobileap_1qapsep149uj9i-fill" data-item-order="0" transform="translate(93, 231)"><g id="tx_mobileap_1qapsep149uj9i-fill" stroke="none" fill="#32444a"><g><text style="font: 15px Roboto, sans-serif; white-space: pre;" font-size="15px" font-family="Roboto, sans-serif"><tspan x="14.45" y="31" dominant-baseline="ideographic">Mobile app evolving </tspan><tspan x="54.95" y="49" dominant-baseline="ideographic">through </tspan><tspan x="13.24" y="67" dominant-baseline="ideographic">development stages</tspan></text></g></g></g><g id="g-root-sett_1lynhg1149oyru-fill" data-item-order="0" transform="translate(129, 519)"></g><g id="g-root-tx_usercent_1uqjaj5149uih9-fill" data-item-order="0" transform="translate(339, 87)"><g id="tx_usercent_1uqjaj5149uih9-fill" stroke="none" fill="#424736"><g><text style="font: bold 20px Roboto, sans-serif; white-space: pre;" font-weight="bold" font-size="20px" font-family="Roboto, sans-serif"><tspan x="16.32" y="34" dominant-baseline="ideographic">User-Centric </tspan><tspan x="46.52" y="58" dominant-baseline="ideographic">Focus</tspan></text></g></g></g><g id="g-root-floa_924p3l149uj9m-fill" data-item-order="0" transform="translate(633, 519)"></g><g id="g-root-tx_agilepri_mbps7l149uiob-fill" data-item-order="0" transform="translate(597, 171)"><g id="tx_agilepri_mbps7l149uiob-fill" stroke="none" fill="#46432d"><g><text style="font: bold 20px Roboto, sans-serif; white-space: pre;" font-weight="bold" font-size="20px" font-family="Roboto, sans-serif"><tspan x="34.88" y="34" dominant-baseline="ideographic">Agile </tspan><tspan x="12.97" y="58" dominant-baseline="ideographic">Principles</tspan></text></g></g></g><g id="g-root-0.cu_Subtract_sy_mgpkwh149t3wu-stroke" data-item-order="-280790" transform="translate(353, 522.599609375)"><g id="0.cu_Subtract_sy_mgpkwh149t3wu-stroke" fill="none" stroke-linecap="round" stroke-linejoin="round" stroke-miterlimit="4" stroke="#ffffff" stroke-width="2"><g><path d="M 58 10.1851L 58 158.4C 58 169.43 49.03 178.4 38 178.4C 26.97 178.4 18 169.43 18 158.4C 18 156.19 16.21 154.4 14 154.4C 11.79 154.4 10 156.19 10 158.4C 10 173.84 22.56 186.4 38 186.4C 53.44 186.4 66 173.84 66 158.4L 66 10.1851C 64.6858 10.0655 63.3497 10 62 10C 60.6502 10 59.3142 10.0655 58 10.1851Z"></path></g></g></g><g id="g-root-0.Vector_sy_mgpkwh149t3wv-stroke" data-item-order="-280787" transform="translate(225, 351)"><g id="0.Vector_sy_mgpkwh149t3wv-stroke" fill="none" stroke-linecap="round" stroke-linejoin="round" stroke-miterlimit="4" stroke="#484848" stroke-width="2"><g><path d="M 10 202C 10 88 87.28 10 190 10C 292.72 10 370 88 370 202"></path></g></g></g><g id="g-root-5.cu_Vector_sy_i0w2s1149t4p4-stroke" data-item-order="-280784" transform="translate(405, 387)"><g id="5.cu_Vector_sy_i0w2s1149t4p4-stroke" fill="none" stroke-linecap="round" stroke-linejoin="round" stroke-miterlimit="4" stroke="#ffffff" stroke-width="2"><g><path d="M 96.4 154C 96.4 154 109.92 145.6 125.2 145.6C 140.48 145.6 154 154 154 154C 154 74.47 90.33 10 10 10C 10 10 96.4 36.09 96.4 154Z"></path></g></g></g><g id="g-root-5.Ellipse_sy_4pfkep149t6a1-stroke" data-item-order="-280782" transform="translate(581, 539)"><g id="5.Ellipse_sy_4pfkep149t6a1-stroke" fill="none" stroke-linecap="round" stroke-linejoin="round" stroke-miterlimit="4" stroke="#ffffff" stroke-width="2"><g><path d="M 10 14C 10 16.209139 11.790861 18 14 18C 16.209139 18 18 16.209139 18 14C 18 11.790861 16.209139 10 14 10C 11.790861 10 10 11.790861 10 14"></path></g></g></g><g id="g-root-5.cu_Vector_1_sy_8xzl149uigy-stroke" data-item-order="-280780" transform="translate(597, 495)"><g id="5.cu_Vector_1_sy_8xzl149uigy-stroke" fill="none" stroke-linecap="round" stroke-linejoin="round" stroke-miterlimit="4" stroke="#ffffff" stroke-width="2"><g><path d="M 70 106C 96.51 106 118 84.51 118 58C 118 31.49 96.51 10 70 10C 46.19 10 26.43 27.34 22.66 50.09L 10 58L 22.66 65.91C 26.43 88.65 46.19 106 70 106ZM 34 58C 34 38.12 50.12 22 70 22C 89.88 22 106 38.12 106 58C 106 77.88 89.88 94 70 94C 50.12 94 34 77.88 34 58Z"></path></g></g></g><g id="g-root-4.cu_Vector_sy_1q5pzpt149uj2j-stroke" data-item-order="-280776" transform="translate(405, 387)"><g id="4.cu_Vector_sy_1q5pzpt149uj2j-stroke" fill="none" stroke-linecap="round" stroke-linejoin="round" stroke-miterlimit="4" stroke="#ffffff" stroke-width="2"><g><path d="M 38.8 154C 38.8 154 52.32 145.6 67.6 145.6C 82.88 145.6 96.4 154 96.4 154C 96.4 36.09 10 10 10 10C 10 10 38.8 36.09 38.8 154Z"></path></g></g></g><g id="g-root-4.Ellipse_sy_1lpwhld149ujus-stroke" data-item-order="-280774" transform="translate(540, 412)"><g id="4.Ellipse_sy_1lpwhld149ujus-stroke" fill="none" stroke-linecap="round" stroke-linejoin="round" stroke-miterlimit="4" stroke="#ffffff" stroke-width="2"><g><path d="M 10 14C 10 16.209139 11.790861 18 14 18C 16.209139 18 18 16.209139 18 14C 18 11.790861 16.209139 10 14 10C 11.790861 10 10 11.790861 10 14"></path></g></g></g><g id="g-root-4.cu_Vector_1_sy_1cu9hch149uknh-stroke" data-item-order="-280772" transform="translate(549, 315)"><g id="4.cu_Vector_1_sy_1cu9hch149uknh-stroke" fill="none" stroke-linecap="round" stroke-linejoin="round" stroke-miterlimit="4" stroke="#ffffff" stroke-width="2"><g><path d="M 91.9333 91.9425C 110.6833 73.1925 110.6833 42.8025 91.9333 24.0625C 73.1933 5.3125 42.8033 5.3125 24.0533 24.0625C 7.2133 40.9025 5.5133 67.1325 18.9233 85.8825L 15.5633 100.4325L 30.1133 97.0725C 48.8633 110.4825 75.0933 108.7825 91.9333 91.9425ZM 32.5433 83.4625C 18.4833 69.4025 18.4833 46.6125 32.5433 32.5525C 46.6033 18.4925 69.3933 18.4925 83.4533 32.5525C 97.5133 46.6125 97.5133 69.4025 83.4533 83.4625C 69.3933 97.5225 46.6033 97.5225 32.5433 83.4625Z"></path></g></g></g><g id="g-root-3.cu_Vector_sy_zjfg29149uj2m-stroke" data-item-order="-280768" transform="translate(376.199951171875, 387)"><g id="3.cu_Vector_sy_zjfg29149uj2m-stroke" fill="none" stroke-linecap="round" stroke-linejoin="round" stroke-miterlimit="4" stroke="#ffffff" stroke-width="2"><g><path d="M 10 154C 10 36.09 38.8 10 38.8 10C 38.8 10 67.6 36.09 67.6 154C 67.6 154 54.08 145.6 38.8 145.6C 23.52 145.6 10 154 10 154Z"></path></g></g></g><g id="g-root-3.Ellipse_sy_m7yxox149uknj-stroke" data-item-order="-280766" transform="translate(401, 347)"><g id="3.Ellipse_sy_m7yxox149uknj-stroke" fill="none" stroke-linecap="round" stroke-linejoin="round" stroke-miterlimit="4" stroke="#ffffff" stroke-width="2"><g><path d="M 10 14C 10 16.209139 11.790861 18 14 18C 16.209139 18 18 16.209139 18 14C 18 11.790861 16.209139 10 14 10C 11.790861 10 10 11.790861 10 14"></path></g></g></g><g id="g-root-3.cu_Vector_1_sy_dcyej5149uj28-stroke" data-item-order="-280764" transform="translate(357, 231)"><g id="3.cu_Vector_1_sy_dcyej5149uj28-stroke" fill="none" stroke-linecap="round" stroke-linejoin="round" stroke-miterlimit="4" stroke="#ffffff" stroke-width="2"><g><path d="M 106 58C 106 31.49 84.51 10 58 10C 31.49 10 10 31.49 10 58C 10 81.81 27.34 101.57 50.09 105.34L 58 118L 65.91 105.34C 88.65 101.57 106 81.81 106 58ZM 58 94C 38.12 94 22 77.88 22 58C 22 38.12 38.12 22 58 22C 77.88 22 94 38.12 94 58C 94 77.88 77.88 94 58 94Z"></path></g></g></g><g id="g-root-2.cu_Vector_sy_4hbea9149ujux-stroke" data-item-order="-280760" transform="translate(318.60009765625, 387)"><g id="2.cu_Vector_sy_4hbea9149ujux-stroke" fill="none" stroke-linecap="round" stroke-linejoin="round" stroke-miterlimit="4" stroke="#ffffff" stroke-width="2"><g><path d="M 67.6 154C 67.6 154 54.08 145.6 38.8 145.6C 23.52 145.6 10 154 10 154C 10 36.09 96.4 10 96.4 10C 96.4 10 67.6 36.09 67.6 154Z"></path></g></g></g><g id="g-root-2.Ellipse_sy_1hw5t149ukn6-stroke" data-item-order="-280758" transform="translate(262, 412)"><g id="2.Ellipse_sy_1hw5t149ukn6-stroke" fill="none" stroke-linecap="round" stroke-linejoin="round" stroke-miterlimit="4" stroke="#ffffff" stroke-width="2"><g><path d="M 10 14C 10 16.209139 11.790861 18 14 18C 16.209139 18 18 16.209139 18 14C 18 11.790861 16.209139 10 14 10C 11.790861 10 10 11.790861 10 14"></path></g></g></g><g id="g-root-2.cu_Vector_1_sy_1lrrwup149uiv7-stroke" data-item-order="-280756" transform="translate(165, 315)"><g id="2.cu_Vector_1_sy_1lrrwup149uiv7-stroke" fill="none" stroke-linecap="round" stroke-linejoin="round" stroke-miterlimit="4" stroke="#ffffff" stroke-width="2"><g><path d="M 85.8825 97.0725L 100.4325 100.4325L 97.0725 85.8825C 110.4825 67.1325 108.7825 40.9025 91.9425 24.0625C 73.1925 5.3125 42.8025 5.3125 24.0625 24.0625C 5.3125 42.8125 5.3125 73.2025 24.0625 91.9425C 40.9025 108.7825 67.1325 110.4825 85.8825 97.0725ZM 32.5425 83.4625C 18.4825 69.4025 18.4825 46.6125 32.5425 32.5525C 46.6025 18.4925 69.3925 18.4925 83.4525 32.5525C 97.5125 46.6125 97.5125 69.4025 83.4525 83.4625C 69.3925 97.5225 46.6025 97.5225 32.5425 83.4625Z"></path></g></g></g><g id="g-root-1.cu_Vector_sy_1cw4wlt149ujnw-stroke" data-item-order="-280752" transform="translate(261, 387)"><g id="1.cu_Vector_sy_1cw4wlt149ujnw-stroke" fill="none" stroke-linecap="round" stroke-linejoin="round" stroke-miterlimit="4" stroke="#ffffff" stroke-width="2"><g><path d="M 67.6 154C 67.6 154 54.08 145.6 38.8 145.6C 23.52 145.6 10 154 10 154C 10 74.47 73.67 10 154 10C 154 10 67.6 36.09 67.6 154Z"></path></g></g></g><g id="g-root-1.Ellipse_sy_18gbehd149ukg5-stroke" data-item-order="-280750" transform="translate(221, 539)"><g id="1.Ellipse_sy_18gbehd149ukg5-stroke" fill="none" stroke-linecap="round" stroke-linejoin="round" stroke-miterlimit="4" stroke="#ffffff" stroke-width="2"><g><path d="M 10 14C 10 16.209139 11.790861 18 14 18C 16.209139 18 18 16.209139 18 14C 18 11.790861 16.209139 10 14 10C 11.790861 10 10 11.790861 10 14"></path></g></g></g><g id="g-root-1.cu_Vector_1_sy_zlavbl149ui32-stroke" data-item-order="-280748" transform="translate(105, 495)"><g id="1.cu_Vector_1_sy_zlavbl149ui32-stroke" fill="none" stroke-linecap="round" stroke-linejoin="round" stroke-miterlimit="4" stroke="#ffffff" stroke-width="2"><g><path d="M 105.34 65.91L 118 58L 105.34 50.09C 101.57 27.34 81.81 10 58 10C 31.49 10 10 31.49 10 58C 10 84.51 31.49 106 58 106C 81.81 106 101.57 88.66 105.34 65.91ZM 58 94C 38.12 94 22 77.88 22 58C 22 38.12 38.12 22 58 22C 77.88 22 94 38.12 94 58C 94 77.88 77.88 94 58 94Z"></path></g></g></g><g id="g-root-tx_teamcoll_v8lqmp149uk1t-stroke" data-item-order="0" transform="translate(15, 351)"></g><g id="g-root-exch_1cymz9t149xdl6-stroke" data-item-order="0" transform="translate(189, 339)"><g id="exch_1cymz9t149xdl6-stroke" fill="none" stroke-linecap="round" stroke-linejoin="round" stroke-miterlimit="4" stroke="#1eabda" stroke-width="2"><g><path d="M 26.007999 56L 30.007999 52L 26.007999 48M 41.007999 31L 57.007999 31L 57.007999 57L 41.007999 57ZM 18 42C 18 47.522846 22.477154 52 28 52L 30 52M 49.007999 12L 45.007999 16L 49.007999 20M 57 26C 57 20.477154 52.52285 16 47 16L 45 16M 41.007999 49L 57.007999 49M 49 52.5C 48.723858 52.5 48.5 52.723858 48.5 53C 48.5 53.276142 48.723858 53.5 49 53.5C 49.276142 53.5 49.5 53.276142 49.5 53C 49.5 52.723858 49.276142 52.5 49 52.5L 49 52.5M 11.008 11L 37.007999 11L 37.007999 31L 11.008 31ZM 11.008 17L 37.007999 17M 16.007999 21L 25.007999 21M 16.007999 25L 20.007999 25"></path></g></g></g><g id="g-root-tx_iterativ_1hf2s5t149uk27-stroke" data-item-order="0" transform="translate(117, 171)"></g><g id="g-root-tx_modernan_1q8ud5d149uk95-stroke" data-item-order="0" transform="translate(669, 327)"></g><g id="g-root-desi_4mba4x149yqdk-stroke" data-item-order="0" transform="translate(573, 339)"><g id="desi_4mba4x149yqdk-stroke" fill="none" stroke-linecap="round" stroke-linejoin="round" stroke-miterlimit="4" stroke="#e0cb15" stroke-width="2"><g><path d="M 33.528603 37.073601C 35.884201 37.073601 37.793602 35.1642 37.793602 32.808601C 37.793602 30.453199 35.884201 28.543699 33.528603 28.543699C 31.173201 28.543699 29.26368 30.453199 29.26368 32.808601C 29.26368 35.1642 31.173201 37.073601 33.528603 37.073601ZM 40.677002 43.7066C 39.743 40.647202 36.850998 38.353203 33.528801 38.353203C 30.2068 38.353203 27.31468 40.647202 26.380859 43.7066M 52.295601 36.125C 52.295601 29.736259 49.103199 24.093239 44.226601 20.7041M 22.83276 20.7041C 17.95612 24.093239 14.76368 29.736259 14.76368 36.125C 14.76368 36.741402 14.7934 37.350998 14.8515 37.952202M 37.694 54.4272C 36.354599 54.730598 34.9608 54.890999 33.529602 54.890999C 30.5788 54.890999 27.78698 54.209801 25.3029 52.996201M 11.88 47.776001C 11.879618 50.546528 14.125469 52.79269 16.896 52.79269C 19.666531 52.79269 21.912382 50.546528 21.911999 47.775997C 21.912382 45.005466 19.666531 42.759304 16.896 42.759304C 14.125469 42.759304 11.879618 45.005466 11.88 47.775997M 10 10M 38.255798 22.5625L 28.802481 22.5625L 28.802481 13.109119L 38.255798 13.109119L 38.255798 22.5625ZM 10 10M 43.982399 52.689201L 50.051601 42.322601L 56.1208 52.689201L 43.982399 52.689201Z"></path></g></g></g><g id="g-root-2_mb3hg1149rrig-stroke" data-item-order="0" transform="translate(381, 255)"><g id="2_mb3hg1149rrig-stroke" fill="none" stroke-linecap="round" stroke-linejoin="round" stroke-miterlimit="4" stroke="#92bd39" stroke-width="2"><g><path d="M 33.999397 33.839001C 36.7486 33.839001 38.977402 31.610201 38.977402 28.860901C 38.977402 26.11158 36.7486 23.88282 33.999397 23.88282C 31.25 23.88282 29.02124 26.11158 29.02124 28.860901C 29.02124 31.610201 31.25 33.839001 33.999397 33.839001ZM 42.3428 41.580002C 41.2528 38.009003 37.877197 35.3316 33.999599 35.3316C 30.122 35.3316 26.746441 38.009003 25.6565 41.580002M 50.802399 19.791859C 46.766201 15.02342 40.736603 11.996094 34 11.996094C 21.84758 11.996094 11.996094 21.84758 11.996094 34C 11.996094 36.552399 12.43064 39.003201 13.2298 41.2826M 17.243721 48.262402C 21.27972 52.999599 27.289 56.004002 34 56.004002C 46.152401 56.004002 56.004002 46.152401 56.004002 34C 56.004002 31.3298 55.528198 28.77062 54.6572 26.402679M 44.476601 20.4375L 51.370998 20.4375L 51.370998 13.543159M 23.523441 47.562401L 16.62908 47.562401L 16.62908 54.456799"></path></g></g></g><g id="g-root-tx_userfeed_9099u9149uk98-stroke" data-item-order="0" transform="translate(333, 147)"></g><g id="g-root-tx_iconssym_18i6tqp149ujgi-stroke" data-item-order="0" transform="translate(579, 231)"></g><g id="g-root-tx_diverset_18k2901149uigw-stroke" data-item-order="0" transform="translate(21, 411)"></g><g id="g-root-tx_visualiz_v5hd75149uivb-stroke" data-item-order="0" transform="translate(261, 39)"></g><g id="g-root-tx_designal_dettsh149ui2o-stroke" data-item-order="0" transform="translate(657, 411)"></g><g id="g-root-tx_mobileap_1qapsep149uj9i-stroke" data-item-order="0" transform="translate(93, 231)"></g><g id="g-root-sett_1lynhg1149oyru-stroke" data-item-order="0" transform="translate(129, 519)"><g id="sett_1lynhg1149oyru-stroke" fill="none" stroke-linecap="round" stroke-linejoin="round" stroke-miterlimit="4" stroke="#3cc583" stroke-width="2"><g><path d="M 32 37C 32 38.104568 32.895432 39 34 39C 35.104568 39 36 38.104568 36 37C 36 35.895432 35.104568 35 34 35C 32.895432 35 32 35.895432 32 37ZM 35.697998 29.264L 36.288002 31.200001C 36.490089 31.867315 37.174461 32.26413 37.854 32.108002L 39.816002 31.652C 40.579586 31.48052 41.365868 31.826136 41.755825 32.504662C 42.145782 33.183189 42.048573 34.03656 41.515999 34.610001L 40.141998 36.091999C 39.66832 36.604668 39.66832 37.395332 40.141998 37.908001L 41.515999 39.389999C 42.048573 39.96344 42.145782 40.816811 41.755825 41.495338C 41.365868 42.173862 40.579586 42.519482 39.816002 42.348L 37.854 41.891998C 37.174461 41.73587 36.490089 42.132687 36.288002 42.799999L 35.697998 44.736C 35.4762 45.490139 34.784081 46.008015 33.998001 46.008015C 33.211922 46.008015 32.519798 45.490139 32.298 44.736L 31.708 42.799999C 31.505909 42.132687 30.821539 41.73587 30.142 41.891998L 28.18 42.348C 27.416416 42.519482 26.630133 42.173862 26.240175 41.495338C 25.850216 40.816811 25.947426 39.96344 26.48 39.389999L 27.854 37.908001C 28.327679 37.395332 28.327679 36.604668 27.854 36.092003L 26.48 34.610001C 25.947426 34.03656 25.850216 33.183189 26.240175 32.504662C 26.630133 31.826136 27.416416 31.48052 28.18 31.652L 30.142 32.108002C 30.821539 32.26413 31.505909 31.867315 31.708 31.200001L 32.298 29.264C 32.519798 28.509859 33.211922 27.991983 33.998001 27.991983C 34.784081 27.991983 35.4762 28.509859 35.697998 29.264ZM 30.5 14.5C 30.500002 16.432997 32.067005 18 34 18C 35.932999 18 37.5 16.432997 37.5 14.5C 37.5 12.567003 35.932999 11 34 11C 32.067005 11 30.500002 12.567003 30.500002 14.5ZM 41 25C 40.184052 21.800182 37.302212 19.560986 34 19.560986C 30.697788 19.560986 27.815947 21.800182 27 25M 46.5 46.5C 46.5 48.432999 48.067005 50 50 50C 51.932999 50 53.5 48.432999 53.5 46.5C 53.5 44.567005 51.932999 43 50 43C 48.067005 43 46.5 44.567005 46.5 46.5ZM 57 57C 56.184055 53.800182 53.302212 51.560986 50 51.560986C 46.697788 51.560986 43.815948 53.800182 43 57M 14.5 46.5C 14.5 48.432999 16.067003 50 18 50C 19.932997 50 21.5 48.432999 21.5 46.5C 21.5 44.567005 19.932997 43 18 43C 16.067003 43 14.5 44.567005 14.5 46.5ZM 25 57C 24.184053 53.800182 21.302212 51.560986 18 51.560986C 14.697788 51.560986 11.815947 53.800182 11 57M 40.099998 52C 36.14254 53.332817 31.85746 53.332817 27.9 52M 42.495998 17C 49.912167 20.715904 54.066589 28.807884 52.764 37M 15.236 37C 13.933422 28.806824 18.089802 20.714184 25.507999 17"></path></g></g></g><g id="g-root-tx_usercent_1uqjaj5149uih9-stroke" data-item-order="0" transform="translate(339, 87)"></g><g id="g-root-floa_924p3l149uj9m-stroke" data-item-order="0" transform="translate(633, 519)"><g id="floa_924p3l149uj9m-stroke" fill="none" stroke-linecap="round" stroke-linejoin="round" stroke-miterlimit="4" stroke="#de8431" stroke-width="2"><g><path d="M 11 34C 11 46.702549 21.297451 57 34 57C 46.702549 57 57 46.702549 57 34C 57 21.297451 46.702549 11 34 11C 21.297451 11 11 21.297451 11 34ZM 26 34C 26 38.418278 29.581722 42 34 42C 38.418278 42 42 38.418278 42 34C 42 29.581722 38.418278 26 34 26C 29.581722 26 26 29.581722 26 34ZM 37 22.380001C 41.225761 23.474302 44.525696 26.774233 45.619999 30.999998L 52.762001 30.988001C 51.458832 22.891809 45.111858 16.543221 37.015999 15.238ZM 31 15.234C 22.893269 16.536842 16.536842 22.893269 15.233999 30.999998L 22.378 31C 23.483971 26.781843 26.780561 23.489075 31.000002 22.388ZM 37 52.764C 45.107014 51.463154 51.464127 45.10685 52.766003 37L 45.619999 37C 44.528706 41.212967 41.245392 44.506992 37.035999 45.612ZM 31 45.619999C 26.775114 44.524162 23.475842 41.224888 22.380001 37L 15.242001 37.014C 16.545465 45.114456 22.898884 51.464649 31 52.764Z"></path></g></g></g><g id="g-root-tx_agilepri_mbps7l149uiob-stroke" data-item-order="0" transform="translate(597, 171)"></g></g></g></svg>